%TF.GenerationSoftware,KiCad,Pcbnew,(6.0.7)*%
%TF.CreationDate,2023-02-07T22:18:11+09:00*%
%TF.ProjectId,scoppy_panel,73636f70-7079-45f7-9061-6e656c2e6b69,rev?*%
%TF.SameCoordinates,Original*%
%TF.FileFunction,Legend,Bot*%
%TF.FilePolarity,Positive*%
%FSLAX46Y46*%
G04 Gerber Fmt 4.6, Leading zero omitted, Abs format (unit mm)*
G04 Created by KiCad (PCBNEW (6.0.7)) date 2023-02-07 22:18:11*
%MOMM*%
%LPD*%
G01*
G04 APERTURE LIST*
%ADD10C,0.150000*%
G04 APERTURE END LIST*
D10*
X181885714Y-145076190D02*
X182742857Y-145076190D01*
X182838095Y-145123809D01*
X182885714Y-145219047D01*
X182885714Y-145266666D01*
X181552380Y-145076190D02*
X181600000Y-145123809D01*
X181647619Y-145076190D01*
X181600000Y-145028571D01*
X181552380Y-145076190D01*
X181647619Y-145076190D01*
X182552380Y-144457142D02*
X182504761Y-144552380D01*
X182409523Y-144600000D01*
X181552380Y-144600000D01*
X182504761Y-143647619D02*
X182552380Y-143742857D01*
X182552380Y-143933333D01*
X182504761Y-144028571D01*
X182457142Y-144076190D01*
X182361904Y-144123809D01*
X182076190Y-144123809D01*
X181980952Y-144076190D01*
X181933333Y-144028571D01*
X181885714Y-143933333D01*
X181885714Y-143742857D01*
X181933333Y-143647619D01*
X181885714Y-143219047D02*
X182742857Y-143219047D01*
X182838095Y-143266666D01*
X182885714Y-143361904D01*
X182885714Y-143409523D01*
X181552380Y-143219047D02*
X181600000Y-143266666D01*
X181647619Y-143219047D01*
X181600000Y-143171428D01*
X181552380Y-143219047D01*
X181647619Y-143219047D01*
X182552380Y-142600000D02*
X182504761Y-142695238D01*
X182409523Y-142742857D01*
X181552380Y-142742857D01*
X182504761Y-141790476D02*
X182552380Y-141885714D01*
X182552380Y-142076190D01*
X182504761Y-142171428D01*
X182457142Y-142219047D01*
X182361904Y-142266666D01*
X182076190Y-142266666D01*
X181980952Y-142219047D01*
X181933333Y-142171428D01*
X181885714Y-142076190D01*
X181885714Y-141885714D01*
X181933333Y-141790476D01*
X181885714Y-141361904D02*
X182742857Y-141361904D01*
X182838095Y-141409523D01*
X182885714Y-141504761D01*
X182885714Y-141552380D01*
X181552380Y-141361904D02*
X181600000Y-141409523D01*
X181647619Y-141361904D01*
X181600000Y-141314285D01*
X181552380Y-141361904D01*
X181647619Y-141361904D01*
X182552380Y-140742857D02*
X182504761Y-140838095D01*
X182409523Y-140885714D01*
X181552380Y-140885714D01*
X182504761Y-139933333D02*
X182552380Y-140028571D01*
X182552380Y-140219047D01*
X182504761Y-140314285D01*
X182457142Y-140361904D01*
X182361904Y-140409523D01*
X182076190Y-140409523D01*
X181980952Y-140361904D01*
X181933333Y-140314285D01*
X181885714Y-140219047D01*
X181885714Y-140028571D01*
X181933333Y-139933333D01*
X181885714Y-139504761D02*
X182742857Y-139504761D01*
X182838095Y-139552380D01*
X182885714Y-139647619D01*
X182885714Y-139695238D01*
X181552380Y-139504761D02*
X181600000Y-139552380D01*
X181647619Y-139504761D01*
X181600000Y-139457142D01*
X181552380Y-139504761D01*
X181647619Y-139504761D01*
X182552380Y-138885714D02*
X182504761Y-138980952D01*
X182409523Y-139028571D01*
X181552380Y-139028571D01*
X182504761Y-138076190D02*
X182552380Y-138171428D01*
X182552380Y-138361904D01*
X182504761Y-138457142D01*
X182457142Y-138504761D01*
X182361904Y-138552380D01*
X182076190Y-138552380D01*
X181980952Y-138504761D01*
X181933333Y-138457142D01*
X181885714Y-138361904D01*
X181885714Y-138171428D01*
X181933333Y-138076190D01*
M02*
