%TF.GenerationSoftware,KiCad,Pcbnew,(6.0.7)*%
%TF.CreationDate,2023-02-07T22:21:13+09:00*%
%TF.ProjectId,scoppy_main,73636f70-7079-45f6-9d61-696e2e6b6963,rev?*%
%TF.SameCoordinates,Original*%
%TF.FileFunction,Legend,Top*%
%TF.FilePolarity,Positive*%
%FSLAX46Y46*%
G04 Gerber Fmt 4.6, Leading zero omitted, Abs format (unit mm)*
G04 Created by KiCad (PCBNEW (6.0.7)) date 2023-02-07 22:21:13*
%MOMM*%
%LPD*%
G01*
G04 APERTURE LIST*
%ADD10C,0.150000*%
%ADD11C,0.120000*%
G04 APERTURE END LIST*
D10*
%TO.C,C22*%
X169757142Y-93242857D02*
X169804761Y-93290476D01*
X169852380Y-93433333D01*
X169852380Y-93528571D01*
X169804761Y-93671428D01*
X169709523Y-93766666D01*
X169614285Y-93814285D01*
X169423809Y-93861904D01*
X169280952Y-93861904D01*
X169090476Y-93814285D01*
X168995238Y-93766666D01*
X168900000Y-93671428D01*
X168852380Y-93528571D01*
X168852380Y-93433333D01*
X168900000Y-93290476D01*
X168947619Y-93242857D01*
X168947619Y-92861904D02*
X168900000Y-92814285D01*
X168852380Y-92719047D01*
X168852380Y-92480952D01*
X168900000Y-92385714D01*
X168947619Y-92338095D01*
X169042857Y-92290476D01*
X169138095Y-92290476D01*
X169280952Y-92338095D01*
X169852380Y-92909523D01*
X169852380Y-92290476D01*
X168947619Y-91909523D02*
X168900000Y-91861904D01*
X168852380Y-91766666D01*
X168852380Y-91528571D01*
X168900000Y-91433333D01*
X168947619Y-91385714D01*
X169042857Y-91338095D01*
X169138095Y-91338095D01*
X169280952Y-91385714D01*
X169852380Y-91957142D01*
X169852380Y-91338095D01*
%TO.C,U2*%
X165538095Y-150152380D02*
X165538095Y-150961904D01*
X165585714Y-151057142D01*
X165633333Y-151104761D01*
X165728571Y-151152380D01*
X165919047Y-151152380D01*
X166014285Y-151104761D01*
X166061904Y-151057142D01*
X166109523Y-150961904D01*
X166109523Y-150152380D01*
X166538095Y-150247619D02*
X166585714Y-150200000D01*
X166680952Y-150152380D01*
X166919047Y-150152380D01*
X167014285Y-150200000D01*
X167061904Y-150247619D01*
X167109523Y-150342857D01*
X167109523Y-150438095D01*
X167061904Y-150580952D01*
X166490476Y-151152380D01*
X167109523Y-151152380D01*
%TO.C,C19*%
X170707142Y-120957142D02*
X170659523Y-121004761D01*
X170516666Y-121052380D01*
X170421428Y-121052380D01*
X170278571Y-121004761D01*
X170183333Y-120909523D01*
X170135714Y-120814285D01*
X170088095Y-120623809D01*
X170088095Y-120480952D01*
X170135714Y-120290476D01*
X170183333Y-120195238D01*
X170278571Y-120100000D01*
X170421428Y-120052380D01*
X170516666Y-120052380D01*
X170659523Y-120100000D01*
X170707142Y-120147619D01*
X171659523Y-121052380D02*
X171088095Y-121052380D01*
X171373809Y-121052380D02*
X171373809Y-120052380D01*
X171278571Y-120195238D01*
X171183333Y-120290476D01*
X171088095Y-120338095D01*
X172135714Y-121052380D02*
X172326190Y-121052380D01*
X172421428Y-121004761D01*
X172469047Y-120957142D01*
X172564285Y-120814285D01*
X172611904Y-120623809D01*
X172611904Y-120242857D01*
X172564285Y-120147619D01*
X172516666Y-120100000D01*
X172421428Y-120052380D01*
X172230952Y-120052380D01*
X172135714Y-120100000D01*
X172088095Y-120147619D01*
X172040476Y-120242857D01*
X172040476Y-120480952D01*
X172088095Y-120576190D01*
X172135714Y-120623809D01*
X172230952Y-120671428D01*
X172421428Y-120671428D01*
X172516666Y-120623809D01*
X172564285Y-120576190D01*
X172611904Y-120480952D01*
%TO.C,C2*%
X170933333Y-144757142D02*
X170885714Y-144804761D01*
X170742857Y-144852380D01*
X170647619Y-144852380D01*
X170504761Y-144804761D01*
X170409523Y-144709523D01*
X170361904Y-144614285D01*
X170314285Y-144423809D01*
X170314285Y-144280952D01*
X170361904Y-144090476D01*
X170409523Y-143995238D01*
X170504761Y-143900000D01*
X170647619Y-143852380D01*
X170742857Y-143852380D01*
X170885714Y-143900000D01*
X170933333Y-143947619D01*
X171314285Y-143947619D02*
X171361904Y-143900000D01*
X171457142Y-143852380D01*
X171695238Y-143852380D01*
X171790476Y-143900000D01*
X171838095Y-143947619D01*
X171885714Y-144042857D01*
X171885714Y-144138095D01*
X171838095Y-144280952D01*
X171266666Y-144852380D01*
X171885714Y-144852380D01*
%TO.C,D7*%
X170561904Y-87652380D02*
X170561904Y-86652380D01*
X170800000Y-86652380D01*
X170942857Y-86700000D01*
X171038095Y-86795238D01*
X171085714Y-86890476D01*
X171133333Y-87080952D01*
X171133333Y-87223809D01*
X171085714Y-87414285D01*
X171038095Y-87509523D01*
X170942857Y-87604761D01*
X170800000Y-87652380D01*
X170561904Y-87652380D01*
X171466666Y-86652380D02*
X172133333Y-86652380D01*
X171704761Y-87652380D01*
X166818095Y-85552380D02*
X166818095Y-84552380D01*
X167389523Y-85552380D02*
X166960952Y-84980952D01*
X167389523Y-84552380D02*
X166818095Y-85123809D01*
%TO.C,R22*%
X174257142Y-146152380D02*
X173923809Y-145676190D01*
X173685714Y-146152380D02*
X173685714Y-145152380D01*
X174066666Y-145152380D01*
X174161904Y-145200000D01*
X174209523Y-145247619D01*
X174257142Y-145342857D01*
X174257142Y-145485714D01*
X174209523Y-145580952D01*
X174161904Y-145628571D01*
X174066666Y-145676190D01*
X173685714Y-145676190D01*
X174638095Y-145247619D02*
X174685714Y-145200000D01*
X174780952Y-145152380D01*
X175019047Y-145152380D01*
X175114285Y-145200000D01*
X175161904Y-145247619D01*
X175209523Y-145342857D01*
X175209523Y-145438095D01*
X175161904Y-145580952D01*
X174590476Y-146152380D01*
X175209523Y-146152380D01*
X175590476Y-145247619D02*
X175638095Y-145200000D01*
X175733333Y-145152380D01*
X175971428Y-145152380D01*
X176066666Y-145200000D01*
X176114285Y-145247619D01*
X176161904Y-145342857D01*
X176161904Y-145438095D01*
X176114285Y-145580952D01*
X175542857Y-146152380D01*
X176161904Y-146152380D01*
%TO.C,R29*%
X174302380Y-92942857D02*
X173826190Y-93276190D01*
X174302380Y-93514285D02*
X173302380Y-93514285D01*
X173302380Y-93133333D01*
X173350000Y-93038095D01*
X173397619Y-92990476D01*
X173492857Y-92942857D01*
X173635714Y-92942857D01*
X173730952Y-92990476D01*
X173778571Y-93038095D01*
X173826190Y-93133333D01*
X173826190Y-93514285D01*
X173397619Y-92561904D02*
X173350000Y-92514285D01*
X173302380Y-92419047D01*
X173302380Y-92180952D01*
X173350000Y-92085714D01*
X173397619Y-92038095D01*
X173492857Y-91990476D01*
X173588095Y-91990476D01*
X173730952Y-92038095D01*
X174302380Y-92609523D01*
X174302380Y-91990476D01*
X174302380Y-91514285D02*
X174302380Y-91323809D01*
X174254761Y-91228571D01*
X174207142Y-91180952D01*
X174064285Y-91085714D01*
X173873809Y-91038095D01*
X173492857Y-91038095D01*
X173397619Y-91085714D01*
X173350000Y-91133333D01*
X173302380Y-91228571D01*
X173302380Y-91419047D01*
X173350000Y-91514285D01*
X173397619Y-91561904D01*
X173492857Y-91609523D01*
X173730952Y-91609523D01*
X173826190Y-91561904D01*
X173873809Y-91514285D01*
X173921428Y-91419047D01*
X173921428Y-91228571D01*
X173873809Y-91133333D01*
X173826190Y-91085714D01*
X173730952Y-91038095D01*
%TO.C,R28*%
X178852380Y-67142857D02*
X178376190Y-67476190D01*
X178852380Y-67714285D02*
X177852380Y-67714285D01*
X177852380Y-67333333D01*
X177900000Y-67238095D01*
X177947619Y-67190476D01*
X178042857Y-67142857D01*
X178185714Y-67142857D01*
X178280952Y-67190476D01*
X178328571Y-67238095D01*
X178376190Y-67333333D01*
X178376190Y-67714285D01*
X177947619Y-66761904D02*
X177900000Y-66714285D01*
X177852380Y-66619047D01*
X177852380Y-66380952D01*
X177900000Y-66285714D01*
X177947619Y-66238095D01*
X178042857Y-66190476D01*
X178138095Y-66190476D01*
X178280952Y-66238095D01*
X178852380Y-66809523D01*
X178852380Y-66190476D01*
X178280952Y-65619047D02*
X178233333Y-65714285D01*
X178185714Y-65761904D01*
X178090476Y-65809523D01*
X178042857Y-65809523D01*
X177947619Y-65761904D01*
X177900000Y-65714285D01*
X177852380Y-65619047D01*
X177852380Y-65428571D01*
X177900000Y-65333333D01*
X177947619Y-65285714D01*
X178042857Y-65238095D01*
X178090476Y-65238095D01*
X178185714Y-65285714D01*
X178233333Y-65333333D01*
X178280952Y-65428571D01*
X178280952Y-65619047D01*
X178328571Y-65714285D01*
X178376190Y-65761904D01*
X178471428Y-65809523D01*
X178661904Y-65809523D01*
X178757142Y-65761904D01*
X178804761Y-65714285D01*
X178852380Y-65619047D01*
X178852380Y-65428571D01*
X178804761Y-65333333D01*
X178757142Y-65285714D01*
X178661904Y-65238095D01*
X178471428Y-65238095D01*
X178376190Y-65285714D01*
X178328571Y-65333333D01*
X178280952Y-65428571D01*
%TO.C,REF4*%
X158822380Y-132447619D02*
X158346190Y-132780952D01*
X158822380Y-133019047D02*
X157822380Y-133019047D01*
X157822380Y-132638095D01*
X157870000Y-132542857D01*
X157917619Y-132495238D01*
X158012857Y-132447619D01*
X158155714Y-132447619D01*
X158250952Y-132495238D01*
X158298571Y-132542857D01*
X158346190Y-132638095D01*
X158346190Y-133019047D01*
X158298571Y-132019047D02*
X158298571Y-131685714D01*
X158822380Y-131542857D02*
X158822380Y-132019047D01*
X157822380Y-132019047D01*
X157822380Y-131542857D01*
X158298571Y-130780952D02*
X158298571Y-131114285D01*
X158822380Y-131114285D02*
X157822380Y-131114285D01*
X157822380Y-130638095D01*
X158155714Y-129828571D02*
X158822380Y-129828571D01*
X157774761Y-130066666D02*
X158489047Y-130304761D01*
X158489047Y-129685714D01*
%TO.C,C12*%
X177657142Y-101692857D02*
X177704761Y-101740476D01*
X177752380Y-101883333D01*
X177752380Y-101978571D01*
X177704761Y-102121428D01*
X177609523Y-102216666D01*
X177514285Y-102264285D01*
X177323809Y-102311904D01*
X177180952Y-102311904D01*
X176990476Y-102264285D01*
X176895238Y-102216666D01*
X176800000Y-102121428D01*
X176752380Y-101978571D01*
X176752380Y-101883333D01*
X176800000Y-101740476D01*
X176847619Y-101692857D01*
X177752380Y-100740476D02*
X177752380Y-101311904D01*
X177752380Y-101026190D02*
X176752380Y-101026190D01*
X176895238Y-101121428D01*
X176990476Y-101216666D01*
X177038095Y-101311904D01*
X176847619Y-100359523D02*
X176800000Y-100311904D01*
X176752380Y-100216666D01*
X176752380Y-99978571D01*
X176800000Y-99883333D01*
X176847619Y-99835714D01*
X176942857Y-99788095D01*
X177038095Y-99788095D01*
X177180952Y-99835714D01*
X177752380Y-100407142D01*
X177752380Y-99788095D01*
%TO.C,C13*%
X184257142Y-124957142D02*
X184209523Y-125004761D01*
X184066666Y-125052380D01*
X183971428Y-125052380D01*
X183828571Y-125004761D01*
X183733333Y-124909523D01*
X183685714Y-124814285D01*
X183638095Y-124623809D01*
X183638095Y-124480952D01*
X183685714Y-124290476D01*
X183733333Y-124195238D01*
X183828571Y-124100000D01*
X183971428Y-124052380D01*
X184066666Y-124052380D01*
X184209523Y-124100000D01*
X184257142Y-124147619D01*
X185209523Y-125052380D02*
X184638095Y-125052380D01*
X184923809Y-125052380D02*
X184923809Y-124052380D01*
X184828571Y-124195238D01*
X184733333Y-124290476D01*
X184638095Y-124338095D01*
X185542857Y-124052380D02*
X186161904Y-124052380D01*
X185828571Y-124433333D01*
X185971428Y-124433333D01*
X186066666Y-124480952D01*
X186114285Y-124528571D01*
X186161904Y-124623809D01*
X186161904Y-124861904D01*
X186114285Y-124957142D01*
X186066666Y-125004761D01*
X185971428Y-125052380D01*
X185685714Y-125052380D01*
X185590476Y-125004761D01*
X185542857Y-124957142D01*
%TO.C,R10*%
X178863810Y-129452380D02*
X178530477Y-128976190D01*
X178292382Y-129452380D02*
X178292382Y-128452380D01*
X178673334Y-128452380D01*
X178768572Y-128500000D01*
X178816191Y-128547619D01*
X178863810Y-128642857D01*
X178863810Y-128785714D01*
X178816191Y-128880952D01*
X178768572Y-128928571D01*
X178673334Y-128976190D01*
X178292382Y-128976190D01*
X179816191Y-129452380D02*
X179244763Y-129452380D01*
X179530477Y-129452380D02*
X179530477Y-128452380D01*
X179435239Y-128595238D01*
X179340001Y-128690476D01*
X179244763Y-128738095D01*
X180435239Y-128452380D02*
X180530477Y-128452380D01*
X180625715Y-128500000D01*
X180673334Y-128547619D01*
X180720953Y-128642857D01*
X180768572Y-128833333D01*
X180768572Y-129071428D01*
X180720953Y-129261904D01*
X180673334Y-129357142D01*
X180625715Y-129404761D01*
X180530477Y-129452380D01*
X180435239Y-129452380D01*
X180340001Y-129404761D01*
X180292382Y-129357142D01*
X180244763Y-129261904D01*
X180197144Y-129071428D01*
X180197144Y-128833333D01*
X180244763Y-128642857D01*
X180292382Y-128547619D01*
X180340001Y-128500000D01*
X180435239Y-128452380D01*
%TO.C,C20*%
X169357142Y-101557142D02*
X169309523Y-101604761D01*
X169166666Y-101652380D01*
X169071428Y-101652380D01*
X168928571Y-101604761D01*
X168833333Y-101509523D01*
X168785714Y-101414285D01*
X168738095Y-101223809D01*
X168738095Y-101080952D01*
X168785714Y-100890476D01*
X168833333Y-100795238D01*
X168928571Y-100700000D01*
X169071428Y-100652380D01*
X169166666Y-100652380D01*
X169309523Y-100700000D01*
X169357142Y-100747619D01*
X169738095Y-100747619D02*
X169785714Y-100700000D01*
X169880952Y-100652380D01*
X170119047Y-100652380D01*
X170214285Y-100700000D01*
X170261904Y-100747619D01*
X170309523Y-100842857D01*
X170309523Y-100938095D01*
X170261904Y-101080952D01*
X169690476Y-101652380D01*
X170309523Y-101652380D01*
X170928571Y-100652380D02*
X171023809Y-100652380D01*
X171119047Y-100700000D01*
X171166666Y-100747619D01*
X171214285Y-100842857D01*
X171261904Y-101033333D01*
X171261904Y-101271428D01*
X171214285Y-101461904D01*
X171166666Y-101557142D01*
X171119047Y-101604761D01*
X171023809Y-101652380D01*
X170928571Y-101652380D01*
X170833333Y-101604761D01*
X170785714Y-101557142D01*
X170738095Y-101461904D01*
X170690476Y-101271428D01*
X170690476Y-101033333D01*
X170738095Y-100842857D01*
X170785714Y-100747619D01*
X170833333Y-100700000D01*
X170928571Y-100652380D01*
%TO.C,R19*%
X172374642Y-138552380D02*
X172041309Y-138076190D01*
X171803214Y-138552380D02*
X171803214Y-137552380D01*
X172184166Y-137552380D01*
X172279404Y-137600000D01*
X172327023Y-137647619D01*
X172374642Y-137742857D01*
X172374642Y-137885714D01*
X172327023Y-137980952D01*
X172279404Y-138028571D01*
X172184166Y-138076190D01*
X171803214Y-138076190D01*
X173327023Y-138552380D02*
X172755595Y-138552380D01*
X173041309Y-138552380D02*
X173041309Y-137552380D01*
X172946071Y-137695238D01*
X172850833Y-137790476D01*
X172755595Y-137838095D01*
X173803214Y-138552380D02*
X173993690Y-138552380D01*
X174088928Y-138504761D01*
X174136547Y-138457142D01*
X174231785Y-138314285D01*
X174279404Y-138123809D01*
X174279404Y-137742857D01*
X174231785Y-137647619D01*
X174184166Y-137600000D01*
X174088928Y-137552380D01*
X173898452Y-137552380D01*
X173803214Y-137600000D01*
X173755595Y-137647619D01*
X173707976Y-137742857D01*
X173707976Y-137980952D01*
X173755595Y-138076190D01*
X173803214Y-138123809D01*
X173898452Y-138171428D01*
X174088928Y-138171428D01*
X174184166Y-138123809D01*
X174231785Y-138076190D01*
X174279404Y-137980952D01*
%TO.C,C18*%
X159857142Y-148642857D02*
X159904761Y-148690476D01*
X159952380Y-148833333D01*
X159952380Y-148928571D01*
X159904761Y-149071428D01*
X159809523Y-149166666D01*
X159714285Y-149214285D01*
X159523809Y-149261904D01*
X159380952Y-149261904D01*
X159190476Y-149214285D01*
X159095238Y-149166666D01*
X159000000Y-149071428D01*
X158952380Y-148928571D01*
X158952380Y-148833333D01*
X159000000Y-148690476D01*
X159047619Y-148642857D01*
X159952380Y-147690476D02*
X159952380Y-148261904D01*
X159952380Y-147976190D02*
X158952380Y-147976190D01*
X159095238Y-148071428D01*
X159190476Y-148166666D01*
X159238095Y-148261904D01*
X159380952Y-147119047D02*
X159333333Y-147214285D01*
X159285714Y-147261904D01*
X159190476Y-147309523D01*
X159142857Y-147309523D01*
X159047619Y-147261904D01*
X159000000Y-147214285D01*
X158952380Y-147119047D01*
X158952380Y-146928571D01*
X159000000Y-146833333D01*
X159047619Y-146785714D01*
X159142857Y-146738095D01*
X159190476Y-146738095D01*
X159285714Y-146785714D01*
X159333333Y-146833333D01*
X159380952Y-146928571D01*
X159380952Y-147119047D01*
X159428571Y-147214285D01*
X159476190Y-147261904D01*
X159571428Y-147309523D01*
X159761904Y-147309523D01*
X159857142Y-147261904D01*
X159904761Y-147214285D01*
X159952380Y-147119047D01*
X159952380Y-146928571D01*
X159904761Y-146833333D01*
X159857142Y-146785714D01*
X159761904Y-146738095D01*
X159571428Y-146738095D01*
X159476190Y-146785714D01*
X159428571Y-146833333D01*
X159380952Y-146928571D01*
%TO.C,R13*%
X185357142Y-129252380D02*
X185023809Y-128776190D01*
X184785714Y-129252380D02*
X184785714Y-128252380D01*
X185166666Y-128252380D01*
X185261904Y-128300000D01*
X185309523Y-128347619D01*
X185357142Y-128442857D01*
X185357142Y-128585714D01*
X185309523Y-128680952D01*
X185261904Y-128728571D01*
X185166666Y-128776190D01*
X184785714Y-128776190D01*
X186309523Y-129252380D02*
X185738095Y-129252380D01*
X186023809Y-129252380D02*
X186023809Y-128252380D01*
X185928571Y-128395238D01*
X185833333Y-128490476D01*
X185738095Y-128538095D01*
X186642857Y-128252380D02*
X187261904Y-128252380D01*
X186928571Y-128633333D01*
X187071428Y-128633333D01*
X187166666Y-128680952D01*
X187214285Y-128728571D01*
X187261904Y-128823809D01*
X187261904Y-129061904D01*
X187214285Y-129157142D01*
X187166666Y-129204761D01*
X187071428Y-129252380D01*
X186785714Y-129252380D01*
X186690476Y-129204761D01*
X186642857Y-129157142D01*
%TO.C,C7*%
X163657142Y-142566666D02*
X163704761Y-142614285D01*
X163752380Y-142757142D01*
X163752380Y-142852380D01*
X163704761Y-142995238D01*
X163609523Y-143090476D01*
X163514285Y-143138095D01*
X163323809Y-143185714D01*
X163180952Y-143185714D01*
X162990476Y-143138095D01*
X162895238Y-143090476D01*
X162800000Y-142995238D01*
X162752380Y-142852380D01*
X162752380Y-142757142D01*
X162800000Y-142614285D01*
X162847619Y-142566666D01*
X162752380Y-142233333D02*
X162752380Y-141566666D01*
X163752380Y-141995238D01*
%TO.C,C23*%
X169657142Y-77642857D02*
X169704761Y-77690476D01*
X169752380Y-77833333D01*
X169752380Y-77928571D01*
X169704761Y-78071428D01*
X169609523Y-78166666D01*
X169514285Y-78214285D01*
X169323809Y-78261904D01*
X169180952Y-78261904D01*
X168990476Y-78214285D01*
X168895238Y-78166666D01*
X168800000Y-78071428D01*
X168752380Y-77928571D01*
X168752380Y-77833333D01*
X168800000Y-77690476D01*
X168847619Y-77642857D01*
X168847619Y-77261904D02*
X168800000Y-77214285D01*
X168752380Y-77119047D01*
X168752380Y-76880952D01*
X168800000Y-76785714D01*
X168847619Y-76738095D01*
X168942857Y-76690476D01*
X169038095Y-76690476D01*
X169180952Y-76738095D01*
X169752380Y-77309523D01*
X169752380Y-76690476D01*
X168752380Y-76357142D02*
X168752380Y-75738095D01*
X169133333Y-76071428D01*
X169133333Y-75928571D01*
X169180952Y-75833333D01*
X169228571Y-75785714D01*
X169323809Y-75738095D01*
X169561904Y-75738095D01*
X169657142Y-75785714D01*
X169704761Y-75833333D01*
X169752380Y-75928571D01*
X169752380Y-76214285D01*
X169704761Y-76309523D01*
X169657142Y-76357142D01*
%TO.C,U6*%
X165238095Y-117072380D02*
X165238095Y-117881904D01*
X165285714Y-117977142D01*
X165333333Y-118024761D01*
X165428571Y-118072380D01*
X165619047Y-118072380D01*
X165714285Y-118024761D01*
X165761904Y-117977142D01*
X165809523Y-117881904D01*
X165809523Y-117072380D01*
X166714285Y-117072380D02*
X166523809Y-117072380D01*
X166428571Y-117120000D01*
X166380952Y-117167619D01*
X166285714Y-117310476D01*
X166238095Y-117500952D01*
X166238095Y-117881904D01*
X166285714Y-117977142D01*
X166333333Y-118024761D01*
X166428571Y-118072380D01*
X166619047Y-118072380D01*
X166714285Y-118024761D01*
X166761904Y-117977142D01*
X166809523Y-117881904D01*
X166809523Y-117643809D01*
X166761904Y-117548571D01*
X166714285Y-117500952D01*
X166619047Y-117453333D01*
X166428571Y-117453333D01*
X166333333Y-117500952D01*
X166285714Y-117548571D01*
X166238095Y-117643809D01*
%TO.C,U7*%
X164738095Y-155402380D02*
X164738095Y-156211904D01*
X164785714Y-156307142D01*
X164833333Y-156354761D01*
X164928571Y-156402380D01*
X165119047Y-156402380D01*
X165214285Y-156354761D01*
X165261904Y-156307142D01*
X165309523Y-156211904D01*
X165309523Y-155402380D01*
X165690476Y-155402380D02*
X166357142Y-155402380D01*
X165928571Y-156402380D01*
%TO.C,C11*%
X165857142Y-144157142D02*
X165809523Y-144204761D01*
X165666666Y-144252380D01*
X165571428Y-144252380D01*
X165428571Y-144204761D01*
X165333333Y-144109523D01*
X165285714Y-144014285D01*
X165238095Y-143823809D01*
X165238095Y-143680952D01*
X165285714Y-143490476D01*
X165333333Y-143395238D01*
X165428571Y-143300000D01*
X165571428Y-143252380D01*
X165666666Y-143252380D01*
X165809523Y-143300000D01*
X165857142Y-143347619D01*
X166809523Y-144252380D02*
X166238095Y-144252380D01*
X166523809Y-144252380D02*
X166523809Y-143252380D01*
X166428571Y-143395238D01*
X166333333Y-143490476D01*
X166238095Y-143538095D01*
X167761904Y-144252380D02*
X167190476Y-144252380D01*
X167476190Y-144252380D02*
X167476190Y-143252380D01*
X167380952Y-143395238D01*
X167285714Y-143490476D01*
X167190476Y-143538095D01*
%TO.C,C17*%
X158607142Y-113657142D02*
X158559523Y-113704761D01*
X158416666Y-113752380D01*
X158321428Y-113752380D01*
X158178571Y-113704761D01*
X158083333Y-113609523D01*
X158035714Y-113514285D01*
X157988095Y-113323809D01*
X157988095Y-113180952D01*
X158035714Y-112990476D01*
X158083333Y-112895238D01*
X158178571Y-112800000D01*
X158321428Y-112752380D01*
X158416666Y-112752380D01*
X158559523Y-112800000D01*
X158607142Y-112847619D01*
X159559523Y-113752380D02*
X158988095Y-113752380D01*
X159273809Y-113752380D02*
X159273809Y-112752380D01*
X159178571Y-112895238D01*
X159083333Y-112990476D01*
X158988095Y-113038095D01*
X159892857Y-112752380D02*
X160559523Y-112752380D01*
X160130952Y-113752380D01*
%TO.C,R24*%
X166682380Y-105772857D02*
X166206190Y-106106190D01*
X166682380Y-106344285D02*
X165682380Y-106344285D01*
X165682380Y-105963333D01*
X165730000Y-105868095D01*
X165777619Y-105820476D01*
X165872857Y-105772857D01*
X166015714Y-105772857D01*
X166110952Y-105820476D01*
X166158571Y-105868095D01*
X166206190Y-105963333D01*
X166206190Y-106344285D01*
X165777619Y-105391904D02*
X165730000Y-105344285D01*
X165682380Y-105249047D01*
X165682380Y-105010952D01*
X165730000Y-104915714D01*
X165777619Y-104868095D01*
X165872857Y-104820476D01*
X165968095Y-104820476D01*
X166110952Y-104868095D01*
X166682380Y-105439523D01*
X166682380Y-104820476D01*
X166015714Y-103963333D02*
X166682380Y-103963333D01*
X165634761Y-104201428D02*
X166349047Y-104439523D01*
X166349047Y-103820476D01*
%TO.C,D8*%
X170561904Y-83052380D02*
X170561904Y-82052380D01*
X170800000Y-82052380D01*
X170942857Y-82100000D01*
X171038095Y-82195238D01*
X171085714Y-82290476D01*
X171133333Y-82480952D01*
X171133333Y-82623809D01*
X171085714Y-82814285D01*
X171038095Y-82909523D01*
X170942857Y-83004761D01*
X170800000Y-83052380D01*
X170561904Y-83052380D01*
X171704761Y-82480952D02*
X171609523Y-82433333D01*
X171561904Y-82385714D01*
X171514285Y-82290476D01*
X171514285Y-82242857D01*
X171561904Y-82147619D01*
X171609523Y-82100000D01*
X171704761Y-82052380D01*
X171895238Y-82052380D01*
X171990476Y-82100000D01*
X172038095Y-82147619D01*
X172085714Y-82242857D01*
X172085714Y-82290476D01*
X172038095Y-82385714D01*
X171990476Y-82433333D01*
X171895238Y-82480952D01*
X171704761Y-82480952D01*
X171609523Y-82528571D01*
X171561904Y-82576190D01*
X171514285Y-82671428D01*
X171514285Y-82861904D01*
X171561904Y-82957142D01*
X171609523Y-83004761D01*
X171704761Y-83052380D01*
X171895238Y-83052380D01*
X171990476Y-83004761D01*
X172038095Y-82957142D01*
X172085714Y-82861904D01*
X172085714Y-82671428D01*
X172038095Y-82576190D01*
X171990476Y-82528571D01*
X171895238Y-82480952D01*
X166828095Y-80952380D02*
X166828095Y-79952380D01*
X167399523Y-80952380D02*
X166970952Y-80380952D01*
X167399523Y-79952380D02*
X166828095Y-80523809D01*
%TO.C,R27*%
X179052380Y-92942857D02*
X178576190Y-93276190D01*
X179052380Y-93514285D02*
X178052380Y-93514285D01*
X178052380Y-93133333D01*
X178100000Y-93038095D01*
X178147619Y-92990476D01*
X178242857Y-92942857D01*
X178385714Y-92942857D01*
X178480952Y-92990476D01*
X178528571Y-93038095D01*
X178576190Y-93133333D01*
X178576190Y-93514285D01*
X178147619Y-92561904D02*
X178100000Y-92514285D01*
X178052380Y-92419047D01*
X178052380Y-92180952D01*
X178100000Y-92085714D01*
X178147619Y-92038095D01*
X178242857Y-91990476D01*
X178338095Y-91990476D01*
X178480952Y-92038095D01*
X179052380Y-92609523D01*
X179052380Y-91990476D01*
X178052380Y-91657142D02*
X178052380Y-90990476D01*
X179052380Y-91419047D01*
%TO.C,R11*%
X172100476Y-129452380D02*
X171767143Y-128976190D01*
X171529048Y-129452380D02*
X171529048Y-128452380D01*
X171910000Y-128452380D01*
X172005238Y-128500000D01*
X172052857Y-128547619D01*
X172100476Y-128642857D01*
X172100476Y-128785714D01*
X172052857Y-128880952D01*
X172005238Y-128928571D01*
X171910000Y-128976190D01*
X171529048Y-128976190D01*
X173052857Y-129452380D02*
X172481429Y-129452380D01*
X172767143Y-129452380D02*
X172767143Y-128452380D01*
X172671905Y-128595238D01*
X172576667Y-128690476D01*
X172481429Y-128738095D01*
X174005238Y-129452380D02*
X173433810Y-129452380D01*
X173719524Y-129452380D02*
X173719524Y-128452380D01*
X173624286Y-128595238D01*
X173529048Y-128690476D01*
X173433810Y-128738095D01*
%TO.C,R23*%
X159857142Y-138852380D02*
X159523809Y-138376190D01*
X159285714Y-138852380D02*
X159285714Y-137852380D01*
X159666666Y-137852380D01*
X159761904Y-137900000D01*
X159809523Y-137947619D01*
X159857142Y-138042857D01*
X159857142Y-138185714D01*
X159809523Y-138280952D01*
X159761904Y-138328571D01*
X159666666Y-138376190D01*
X159285714Y-138376190D01*
X160238095Y-137947619D02*
X160285714Y-137900000D01*
X160380952Y-137852380D01*
X160619047Y-137852380D01*
X160714285Y-137900000D01*
X160761904Y-137947619D01*
X160809523Y-138042857D01*
X160809523Y-138138095D01*
X160761904Y-138280952D01*
X160190476Y-138852380D01*
X160809523Y-138852380D01*
X161142857Y-137852380D02*
X161761904Y-137852380D01*
X161428571Y-138233333D01*
X161571428Y-138233333D01*
X161666666Y-138280952D01*
X161714285Y-138328571D01*
X161761904Y-138423809D01*
X161761904Y-138661904D01*
X161714285Y-138757142D01*
X161666666Y-138804761D01*
X161571428Y-138852380D01*
X161285714Y-138852380D01*
X161190476Y-138804761D01*
X161142857Y-138757142D01*
%TO.C,R30*%
X175357142Y-76752380D02*
X175023809Y-76276190D01*
X174785714Y-76752380D02*
X174785714Y-75752380D01*
X175166666Y-75752380D01*
X175261904Y-75800000D01*
X175309523Y-75847619D01*
X175357142Y-75942857D01*
X175357142Y-76085714D01*
X175309523Y-76180952D01*
X175261904Y-76228571D01*
X175166666Y-76276190D01*
X174785714Y-76276190D01*
X175690476Y-75752380D02*
X176309523Y-75752380D01*
X175976190Y-76133333D01*
X176119047Y-76133333D01*
X176214285Y-76180952D01*
X176261904Y-76228571D01*
X176309523Y-76323809D01*
X176309523Y-76561904D01*
X176261904Y-76657142D01*
X176214285Y-76704761D01*
X176119047Y-76752380D01*
X175833333Y-76752380D01*
X175738095Y-76704761D01*
X175690476Y-76657142D01*
X176928571Y-75752380D02*
X177023809Y-75752380D01*
X177119047Y-75800000D01*
X177166666Y-75847619D01*
X177214285Y-75942857D01*
X177261904Y-76133333D01*
X177261904Y-76371428D01*
X177214285Y-76561904D01*
X177166666Y-76657142D01*
X177119047Y-76704761D01*
X177023809Y-76752380D01*
X176928571Y-76752380D01*
X176833333Y-76704761D01*
X176785714Y-76657142D01*
X176738095Y-76561904D01*
X176690476Y-76371428D01*
X176690476Y-76133333D01*
X176738095Y-75942857D01*
X176785714Y-75847619D01*
X176833333Y-75800000D01*
X176928571Y-75752380D01*
%TO.C,R20*%
X178768442Y-138652380D02*
X178435109Y-138176190D01*
X178197014Y-138652380D02*
X178197014Y-137652380D01*
X178577966Y-137652380D01*
X178673204Y-137700000D01*
X178720823Y-137747619D01*
X178768442Y-137842857D01*
X178768442Y-137985714D01*
X178720823Y-138080952D01*
X178673204Y-138128571D01*
X178577966Y-138176190D01*
X178197014Y-138176190D01*
X179149395Y-137747619D02*
X179197014Y-137700000D01*
X179292252Y-137652380D01*
X179530347Y-137652380D01*
X179625585Y-137700000D01*
X179673204Y-137747619D01*
X179720823Y-137842857D01*
X179720823Y-137938095D01*
X179673204Y-138080952D01*
X179101776Y-138652380D01*
X179720823Y-138652380D01*
X180339871Y-137652380D02*
X180435109Y-137652380D01*
X180530347Y-137700000D01*
X180577966Y-137747619D01*
X180625585Y-137842857D01*
X180673204Y-138033333D01*
X180673204Y-138271428D01*
X180625585Y-138461904D01*
X180577966Y-138557142D01*
X180530347Y-138604761D01*
X180435109Y-138652380D01*
X180339871Y-138652380D01*
X180244633Y-138604761D01*
X180197014Y-138557142D01*
X180149395Y-138461904D01*
X180101776Y-138271428D01*
X180101776Y-138033333D01*
X180149395Y-137842857D01*
X180197014Y-137747619D01*
X180244633Y-137700000D01*
X180339871Y-137652380D01*
%TO.C,R25*%
X168807142Y-143352380D02*
X168473809Y-142876190D01*
X168235714Y-143352380D02*
X168235714Y-142352380D01*
X168616666Y-142352380D01*
X168711904Y-142400000D01*
X168759523Y-142447619D01*
X168807142Y-142542857D01*
X168807142Y-142685714D01*
X168759523Y-142780952D01*
X168711904Y-142828571D01*
X168616666Y-142876190D01*
X168235714Y-142876190D01*
X169188095Y-142447619D02*
X169235714Y-142400000D01*
X169330952Y-142352380D01*
X169569047Y-142352380D01*
X169664285Y-142400000D01*
X169711904Y-142447619D01*
X169759523Y-142542857D01*
X169759523Y-142638095D01*
X169711904Y-142780952D01*
X169140476Y-143352380D01*
X169759523Y-143352380D01*
X170664285Y-142352380D02*
X170188095Y-142352380D01*
X170140476Y-142828571D01*
X170188095Y-142780952D01*
X170283333Y-142733333D01*
X170521428Y-142733333D01*
X170616666Y-142780952D01*
X170664285Y-142828571D01*
X170711904Y-142923809D01*
X170711904Y-143161904D01*
X170664285Y-143257142D01*
X170616666Y-143304761D01*
X170521428Y-143352380D01*
X170283333Y-143352380D01*
X170188095Y-143304761D01*
X170140476Y-143257142D01*
%TO.C,R9*%
X166442133Y-138722380D02*
X166108800Y-138246190D01*
X165870704Y-138722380D02*
X165870704Y-137722380D01*
X166251657Y-137722380D01*
X166346895Y-137770000D01*
X166394514Y-137817619D01*
X166442133Y-137912857D01*
X166442133Y-138055714D01*
X166394514Y-138150952D01*
X166346895Y-138198571D01*
X166251657Y-138246190D01*
X165870704Y-138246190D01*
X166918323Y-138722380D02*
X167108800Y-138722380D01*
X167204038Y-138674761D01*
X167251657Y-138627142D01*
X167346895Y-138484285D01*
X167394514Y-138293809D01*
X167394514Y-137912857D01*
X167346895Y-137817619D01*
X167299276Y-137770000D01*
X167204038Y-137722380D01*
X167013561Y-137722380D01*
X166918323Y-137770000D01*
X166870704Y-137817619D01*
X166823085Y-137912857D01*
X166823085Y-138150952D01*
X166870704Y-138246190D01*
X166918323Y-138293809D01*
X167013561Y-138341428D01*
X167204038Y-138341428D01*
X167299276Y-138293809D01*
X167346895Y-138246190D01*
X167394514Y-138150952D01*
%TO.C,R26*%
X184232142Y-138722380D02*
X183898809Y-138246190D01*
X183660714Y-138722380D02*
X183660714Y-137722380D01*
X184041666Y-137722380D01*
X184136904Y-137770000D01*
X184184523Y-137817619D01*
X184232142Y-137912857D01*
X184232142Y-138055714D01*
X184184523Y-138150952D01*
X184136904Y-138198571D01*
X184041666Y-138246190D01*
X183660714Y-138246190D01*
X184613095Y-137817619D02*
X184660714Y-137770000D01*
X184755952Y-137722380D01*
X184994047Y-137722380D01*
X185089285Y-137770000D01*
X185136904Y-137817619D01*
X185184523Y-137912857D01*
X185184523Y-138008095D01*
X185136904Y-138150952D01*
X184565476Y-138722380D01*
X185184523Y-138722380D01*
X186041666Y-137722380D02*
X185851190Y-137722380D01*
X185755952Y-137770000D01*
X185708333Y-137817619D01*
X185613095Y-137960476D01*
X185565476Y-138150952D01*
X185565476Y-138531904D01*
X185613095Y-138627142D01*
X185660714Y-138674761D01*
X185755952Y-138722380D01*
X185946428Y-138722380D01*
X186041666Y-138674761D01*
X186089285Y-138627142D01*
X186136904Y-138531904D01*
X186136904Y-138293809D01*
X186089285Y-138198571D01*
X186041666Y-138150952D01*
X185946428Y-138103333D01*
X185755952Y-138103333D01*
X185660714Y-138150952D01*
X185613095Y-138198571D01*
X185565476Y-138293809D01*
D11*
%TO.C,C22*%
X165730000Y-94770000D02*
X168470000Y-94770000D01*
X165730000Y-94770000D02*
X165730000Y-89530000D01*
X168470000Y-94770000D02*
X168470000Y-89530000D01*
X165730000Y-89530000D02*
X168470000Y-89530000D01*
%TO.C,U2*%
X168500000Y-151440000D02*
X169300000Y-151440000D01*
X168500000Y-151440000D02*
X167700000Y-151440000D01*
X168500000Y-154560000D02*
X167700000Y-154560000D01*
X168500000Y-154560000D02*
X170300000Y-154560000D01*
%TO.C,C19*%
X168730000Y-121430000D02*
X173970000Y-121430000D01*
X168730000Y-121430000D02*
X168730000Y-124170000D01*
X173970000Y-121430000D02*
X173970000Y-124170000D01*
X168730000Y-124170000D02*
X173970000Y-124170000D01*
%TO.C,C2*%
X171570000Y-150370000D02*
X171570000Y-145130000D01*
X168830000Y-150370000D02*
X168830000Y-145130000D01*
X168830000Y-150370000D02*
X171570000Y-150370000D01*
X168830000Y-145130000D02*
X171570000Y-145130000D01*
%TO.C,D7*%
X168170000Y-85730000D02*
X173610000Y-85730000D01*
X168170000Y-88540000D02*
X168170000Y-88670000D01*
X168170000Y-85860000D02*
X168170000Y-85730000D01*
X168950000Y-85730000D02*
X168950000Y-88670000D01*
X173610000Y-88670000D02*
X173610000Y-88540000D01*
X169070000Y-85730000D02*
X169070000Y-88670000D01*
X173610000Y-85730000D02*
X173610000Y-85860000D01*
X169190000Y-85730000D02*
X169190000Y-88670000D01*
X168170000Y-88670000D02*
X173610000Y-88670000D01*
%TO.C,R22*%
X175325000Y-143400000D02*
X175395000Y-143400000D01*
X175325000Y-143400000D02*
G75*
G03*
X175325000Y-143400000I-1370000J0D01*
G01*
%TO.C,R29*%
X171750000Y-92425000D02*
X171750000Y-92495000D01*
X173120000Y-91055000D02*
G75*
G03*
X173120000Y-91055000I-1370000J0D01*
G01*
%TO.C,R28*%
X178500000Y-70430000D02*
X178500000Y-70360000D01*
X179870000Y-71800000D02*
G75*
G03*
X179870000Y-71800000I-1370000J0D01*
G01*
%TO.C,REF4*%
X160700000Y-132730000D02*
X159370000Y-132730000D01*
X161970000Y-132730000D02*
X187430000Y-132730000D01*
X187430000Y-132730000D02*
X187430000Y-130070000D01*
X161970000Y-130070000D02*
X187430000Y-130070000D01*
X159370000Y-132730000D02*
X159370000Y-131400000D01*
X161970000Y-132730000D02*
X161970000Y-130070000D01*
%TO.C,C12*%
X179170000Y-107870000D02*
X179170000Y-102630000D01*
X176430000Y-102630000D02*
X179170000Y-102630000D01*
X176430000Y-107870000D02*
X179170000Y-107870000D01*
X176430000Y-107870000D02*
X176430000Y-102630000D01*
%TO.C,C13*%
X182430000Y-120930000D02*
X187670000Y-120930000D01*
X187670000Y-120930000D02*
X187670000Y-123670000D01*
X182430000Y-120930000D02*
X182430000Y-123670000D01*
X182430000Y-123670000D02*
X187670000Y-123670000D01*
%TO.C,R10*%
X179530000Y-126900000D02*
X179460000Y-126900000D01*
X182270000Y-126900000D02*
G75*
G03*
X182270000Y-126900000I-1370000J0D01*
G01*
%TO.C,C20*%
X172570000Y-97630000D02*
X172570000Y-100370000D01*
X167330000Y-97630000D02*
X167330000Y-100370000D01*
X167330000Y-100370000D02*
X172570000Y-100370000D01*
X167330000Y-97630000D02*
X172570000Y-97630000D01*
%TO.C,R19*%
X173247500Y-135900000D02*
X173317500Y-135900000D01*
X173247500Y-135900000D02*
G75*
G03*
X173247500Y-135900000I-1370000J0D01*
G01*
%TO.C,C18*%
X158530000Y-145970000D02*
X158530000Y-140730000D01*
X161270000Y-145970000D02*
X161270000Y-140730000D01*
X158530000Y-140730000D02*
X161270000Y-140730000D01*
X158530000Y-145970000D02*
X161270000Y-145970000D01*
%TO.C,R13*%
X185570000Y-126900000D02*
X185640000Y-126900000D01*
X185570000Y-126900000D02*
G75*
G03*
X185570000Y-126900000I-1370000J0D01*
G01*
%TO.C,C7*%
X161830000Y-143580000D02*
X164570000Y-143580000D01*
X161830000Y-148820000D02*
X161830000Y-143580000D01*
X164570000Y-148820000D02*
X164570000Y-143580000D01*
X161830000Y-148820000D02*
X164570000Y-148820000D01*
%TO.C,C23*%
X168570000Y-79620000D02*
X165830000Y-79620000D01*
X168570000Y-74380000D02*
X165830000Y-74380000D01*
X165830000Y-74380000D02*
X165830000Y-79620000D01*
X168570000Y-74380000D02*
X168570000Y-79620000D01*
%TO.C,U6*%
X165460000Y-128750000D02*
X165460000Y-118470000D01*
X165460000Y-118470000D02*
X163810000Y-118470000D01*
X160160000Y-118470000D02*
X160160000Y-128750000D01*
X161810000Y-118470000D02*
X160160000Y-118470000D01*
X160160000Y-128750000D02*
X165460000Y-128750000D01*
X161810000Y-118470000D02*
G75*
G03*
X163810000Y-118470000I1000000J0D01*
G01*
%TO.C,U7*%
X166600000Y-159860000D02*
X165950000Y-159860000D01*
X166600000Y-159860000D02*
X168275000Y-159860000D01*
X166600000Y-156740000D02*
X167250000Y-156740000D01*
X166600000Y-156740000D02*
X165950000Y-156740000D01*
%TO.C,C11*%
X165330000Y-149770000D02*
X168070000Y-149770000D01*
X168070000Y-149770000D02*
X168070000Y-144530000D01*
X165330000Y-144530000D02*
X168070000Y-144530000D01*
X165330000Y-149770000D02*
X165330000Y-144530000D01*
%TO.C,C17*%
X158080000Y-114230000D02*
X163320000Y-114230000D01*
X158080000Y-114230000D02*
X158080000Y-116970000D01*
X158080000Y-116970000D02*
X163320000Y-116970000D01*
X163320000Y-114230000D02*
X163320000Y-116970000D01*
%TO.C,R24*%
X168600000Y-105030000D02*
X168600000Y-104960000D01*
X169970000Y-106400000D02*
G75*
G03*
X169970000Y-106400000I-1370000J0D01*
G01*
%TO.C,D8*%
X169200000Y-81130000D02*
X169200000Y-84070000D01*
X168180000Y-81130000D02*
X173620000Y-81130000D01*
X168180000Y-83940000D02*
X168180000Y-84070000D01*
X168180000Y-84070000D02*
X173620000Y-84070000D01*
X169080000Y-81130000D02*
X169080000Y-84070000D01*
X173620000Y-81130000D02*
X173620000Y-81260000D01*
X168960000Y-81130000D02*
X168960000Y-84070000D01*
X173620000Y-84070000D02*
X173620000Y-83940000D01*
X168180000Y-81260000D02*
X168180000Y-81130000D01*
%TO.C,R27*%
X176400000Y-91830000D02*
X176400000Y-91760000D01*
X177770000Y-93200000D02*
G75*
G03*
X177770000Y-93200000I-1370000J0D01*
G01*
%TO.C,R11*%
X172025000Y-126900000D02*
X172095000Y-126900000D01*
X172025000Y-126900000D02*
G75*
G03*
X172025000Y-126900000I-1370000J0D01*
G01*
%TO.C,R23*%
X161070000Y-135900000D02*
X161140000Y-135900000D01*
X161070000Y-135900000D02*
G75*
G03*
X161070000Y-135900000I-1370000J0D01*
G01*
%TO.C,R30*%
X176030000Y-78300000D02*
X175960000Y-78300000D01*
X178770000Y-78300000D02*
G75*
G03*
X178770000Y-78300000I-1370000J0D01*
G01*
%TO.C,R20*%
X179336300Y-135900000D02*
X179406300Y-135900000D01*
X179336300Y-135900000D02*
G75*
G03*
X179336300Y-135900000I-1370000J0D01*
G01*
%TO.C,R25*%
X169580000Y-140500000D02*
X169650000Y-140500000D01*
X169580000Y-140500000D02*
G75*
G03*
X169580000Y-140500000I-1370000J0D01*
G01*
%TO.C,R9*%
X166508800Y-135900000D02*
X166438800Y-135900000D01*
X169248800Y-135900000D02*
G75*
G03*
X169248800Y-135900000I-1370000J0D01*
G01*
%TO.C,R26*%
X184775000Y-135900000D02*
X184705000Y-135900000D01*
X187515000Y-135900000D02*
G75*
G03*
X187515000Y-135900000I-1370000J0D01*
G01*
%TD*%
M02*
