M48
; DRILL file {KiCad (6.0.7)} date Tue Feb  7 22:21:15 2023
; FORMAT={-:-/ absolute / inch / decimal}
; #@! TF.CreationDate,2023-02-07T22:21:15+09:00
; #@! TF.GenerationSoftware,Kicad,Pcbnew,(6.0.7)
; #@! TF.FileFunction,Plated,1,2,PTH
FMAT,2
INCH
; #@! TA.AperFunction,Plated,PTH,ViaDrill
T1C0.0157
; #@! TA.AperFunction,Plated,PTH,ComponentDrill
T2C0.0315
; #@! TA.AperFunction,Plated,PTH,ComponentDrill
T3C0.0394
; #@! TA.AperFunction,Plated,PTH,ComponentDrill
T4C0.0402
; #@! TA.AperFunction,Plated,PTH,ComponentDrill
T5C0.0433
%
G90
G05
T1
X6.789Y-5.0563
X7.3044Y-4.5834
T2
X6.2598Y-4.7165
X6.2598Y-4.8165
X6.2598Y-4.9165
X6.2598Y-5.0165
X6.2776Y-4.5512
X6.2874Y-5.3504
X6.2953Y-5.5945
X6.2953Y-5.6929
X6.376Y-4.5512
X6.3874Y-5.3504
X6.4252Y-5.7067
X6.4252Y-5.8051
X6.5094Y-5.3504
X6.5598Y-4.7165
X6.5598Y-4.8165
X6.5598Y-4.9165
X6.5598Y-5.0165
X6.563Y-5.7441
X6.563Y-5.8425
X6.5787Y-3.5787
X6.5787Y-3.6772
X6.5827Y-2.9823
X6.5827Y-3.0807
X6.6094Y-5.3504
X6.6224Y-5.5315
X6.6378Y-4.089
X6.6378Y-4.189
X6.6417Y-3.8976
X6.6969Y-4.8346
X6.7008Y-5.7677
X6.7008Y-5.8661
X6.7187Y-4.9961
X6.7224Y-5.5315
X6.7402Y-3.8976
X6.7618Y-3.5848
X6.7618Y-3.6848
X6.7668Y-5.3504
X6.7953Y-4.8346
X6.8187Y-4.9961
X6.8486Y-5.6457
X6.8504Y-6.0997
X6.8504Y-6.1981
X6.8668Y-5.3504
X6.8799Y-5.825
X6.8799Y-5.9234
X6.8843Y-3.0827
X6.9449Y-3.5693
X6.9449Y-3.6693
X6.9486Y-5.6457
X6.9843Y-3.0827
X7.0Y-4.0945
X7.0Y-4.1929
X7.0065Y-5.3504
X7.022Y-4.9961
X7.0276Y-2.7268
X7.0276Y-2.8268
X7.1065Y-5.3504
X7.122Y-4.9961
X7.2285Y-5.3504
X7.2362Y-4.815
X7.252Y-4.9961
X7.3285Y-5.3504
X7.3346Y-4.815
X7.352Y-4.9961
T3
X6.3268Y-5.1732
X6.4268Y-5.1732
X6.5268Y-5.1732
X6.6268Y-5.1732
X6.7268Y-5.1732
X6.8268Y-5.1732
X6.9268Y-5.1732
X7.0268Y-5.1732
X7.1268Y-5.1732
X7.154Y-5.6858
X7.154Y-5.7858
X7.154Y-5.8858
X7.154Y-5.9858
X7.154Y-6.0858
X7.2268Y-5.1732
X7.254Y-5.6858
X7.254Y-5.7858
X7.254Y-5.8858
X7.254Y-5.9858
X7.254Y-6.0858
X7.3268Y-5.1732
T4
X6.4512Y-2.4654
X6.4512Y-2.5654
X6.4512Y-2.6654
X6.4512Y-2.7654
X6.4512Y-2.8654
X6.4512Y-2.9654
X6.4512Y-3.0654
X6.4512Y-3.1654
X6.4512Y-3.2654
X6.4512Y-3.3654
X6.4512Y-3.4654
X6.4512Y-3.5654
X6.4512Y-3.6654
X6.4512Y-3.7654
X6.4512Y-3.8654
X6.4512Y-3.9654
X6.4512Y-4.0654
X6.4512Y-4.1654
X6.4512Y-4.2654
X6.4512Y-4.3654
X6.7012Y-4.3563
X6.8012Y-4.3563
X6.9012Y-4.3563
X7.1512Y-2.4654
X7.1512Y-2.5654
X7.1512Y-2.6654
X7.1512Y-2.7654
X7.1512Y-2.8654
X7.1512Y-2.9654
X7.1512Y-3.0654
X7.1512Y-3.1654
X7.1512Y-3.2654
X7.1512Y-3.3654
X7.1512Y-3.4654
X7.1512Y-3.5654
X7.1512Y-3.6654
X7.1512Y-3.7654
X7.1512Y-3.8654
X7.1512Y-3.9654
X7.1512Y-4.0654
X7.1512Y-4.1654
X7.1512Y-4.2654
X7.1512Y-4.3654
T5
X6.3484Y-5.9941
X6.3484Y-6.0941
X6.3484Y-6.1941
X6.578Y-3.4331
X6.5783Y-3.252
X6.878Y-3.4331
X6.8783Y-3.252
T0
M30
