%TF.GenerationSoftware,KiCad,Pcbnew,(6.0.7)*%
%TF.CreationDate,2023-02-07T22:21:13+09:00*%
%TF.ProjectId,scoppy_main,73636f70-7079-45f6-9d61-696e2e6b6963,rev?*%
%TF.SameCoordinates,Original*%
%TF.FileFunction,Soldermask,Bot*%
%TF.FilePolarity,Negative*%
%FSLAX46Y46*%
G04 Gerber Fmt 4.6, Leading zero omitted, Abs format (unit mm)*
G04 Created by KiCad (PCBNEW (6.0.7)) date 2023-02-07 22:21:13*
%MOMM*%
%LPD*%
G01*
G04 APERTURE LIST*
G04 Aperture macros list*
%AMRoundRect*
0 Rectangle with rounded corners*
0 $1 Rounding radius*
0 $2 $3 $4 $5 $6 $7 $8 $9 X,Y pos of 4 corners*
0 Add a 4 corners polygon primitive as box body*
4,1,4,$2,$3,$4,$5,$6,$7,$8,$9,$2,$3,0*
0 Add four circle primitives for the rounded corners*
1,1,$1+$1,$2,$3*
1,1,$1+$1,$4,$5*
1,1,$1+$1,$6,$7*
1,1,$1+$1,$8,$9*
0 Add four rect primitives between the rounded corners*
20,1,$1+$1,$2,$3,$4,$5,0*
20,1,$1+$1,$4,$5,$6,$7,0*
20,1,$1+$1,$6,$7,$8,$9,0*
20,1,$1+$1,$8,$9,$2,$3,0*%
G04 Aperture macros list end*
%ADD10C,1.600000*%
%ADD11C,3.200000*%
%ADD12R,2.200000X2.200000*%
%ADD13O,2.200000X2.200000*%
%ADD14O,1.600000X1.600000*%
%ADD15R,1.700000X1.700000*%
%ADD16O,1.700000X1.700000*%
%ADD17R,1.600000X1.600000*%
%ADD18RoundRect,0.150000X-0.650000X-0.150000X0.650000X-0.150000X0.650000X0.150000X-0.650000X0.150000X0*%
%ADD19RoundRect,0.250000X0.600000X0.600000X-0.600000X0.600000X-0.600000X-0.600000X0.600000X-0.600000X0*%
%ADD20C,1.700000*%
%ADD21O,1.500000X1.500000*%
%ADD22O,1.800000X1.800000*%
%ADD23R,3.500000X1.700000*%
%ADD24R,1.700000X3.500000*%
%ADD25RoundRect,0.150000X0.650000X0.150000X-0.650000X0.150000X-0.650000X-0.150000X0.650000X-0.150000X0*%
%ADD26R,2.000000X1.905000*%
%ADD27O,2.000000X1.905000*%
G04 APERTURE END LIST*
D10*
%TO.C,C22*%
X167100000Y-93400000D03*
X167100000Y-90900000D03*
%TD*%
D11*
%TO.C,REF2*%
X172000000Y-71200000D03*
%TD*%
D10*
%TO.C,C19*%
X170100000Y-122800000D03*
X172600000Y-122800000D03*
%TD*%
%TO.C,C2*%
X170200000Y-149000000D03*
X170200000Y-146500000D03*
%TD*%
D12*
%TO.C,D7*%
X167080000Y-87200000D03*
D13*
X174700000Y-87200000D03*
%TD*%
D10*
%TO.C,R22*%
X173955000Y-143400000D03*
D14*
X176495000Y-143400000D03*
%TD*%
D10*
%TO.C,R29*%
X171750000Y-91055000D03*
D14*
X171750000Y-93595000D03*
%TD*%
D10*
%TO.C,R28*%
X178500000Y-71800000D03*
D14*
X178500000Y-69260000D03*
%TD*%
D15*
%TO.C,REF4*%
X160700000Y-131400000D03*
D16*
X163240000Y-131400000D03*
X165780000Y-131400000D03*
X168320000Y-131400000D03*
X170860000Y-131400000D03*
X173400000Y-131400000D03*
X175940000Y-131400000D03*
X178480000Y-131400000D03*
X181020000Y-131400000D03*
X183560000Y-131400000D03*
X186100000Y-131400000D03*
%TD*%
D10*
%TO.C,C12*%
X177800000Y-106500000D03*
X177800000Y-104000000D03*
%TD*%
%TO.C,C13*%
X183800000Y-122300000D03*
X186300000Y-122300000D03*
%TD*%
%TO.C,R10*%
X180900000Y-126900000D03*
D14*
X178360000Y-126900000D03*
%TD*%
D10*
%TO.C,C20*%
X168700000Y-99000000D03*
X171200000Y-99000000D03*
%TD*%
%TO.C,R19*%
X171877500Y-135900000D03*
D14*
X174417500Y-135900000D03*
%TD*%
D10*
%TO.C,C18*%
X159900000Y-144600000D03*
X159900000Y-142100000D03*
%TD*%
%TO.C,R13*%
X184200000Y-126900000D03*
D14*
X186740000Y-126900000D03*
%TD*%
D10*
%TO.C,C7*%
X163200000Y-147450000D03*
X163200000Y-144950000D03*
%TD*%
%TO.C,C23*%
X167200000Y-75750000D03*
X167200000Y-78250000D03*
%TD*%
D17*
%TO.C,U6*%
X159000000Y-119800000D03*
D14*
X159000000Y-122340000D03*
X159000000Y-124880000D03*
X159000000Y-127420000D03*
X166620000Y-127420000D03*
X166620000Y-124880000D03*
X166620000Y-122340000D03*
X166620000Y-119800000D03*
%TD*%
D10*
%TO.C,C11*%
X166700000Y-148400000D03*
X166700000Y-145900000D03*
%TD*%
%TO.C,C17*%
X159450000Y-115600000D03*
X161950000Y-115600000D03*
%TD*%
%TO.C,R24*%
X168600000Y-106400000D03*
D14*
X168600000Y-103860000D03*
%TD*%
D12*
%TO.C,D8*%
X167090000Y-82600000D03*
D13*
X174710000Y-82600000D03*
%TD*%
D10*
%TO.C,R27*%
X176400000Y-93200000D03*
D14*
X176400000Y-90660000D03*
%TD*%
D10*
%TO.C,R11*%
X170655000Y-126900000D03*
D14*
X173195000Y-126900000D03*
%TD*%
D10*
%TO.C,R23*%
X159700000Y-135900000D03*
D14*
X162240000Y-135900000D03*
%TD*%
D10*
%TO.C,R30*%
X177400000Y-78300000D03*
D14*
X174860000Y-78300000D03*
%TD*%
D10*
%TO.C,R20*%
X177966300Y-135900000D03*
D14*
X180506300Y-135900000D03*
%TD*%
D10*
%TO.C,R25*%
X168210000Y-140500000D03*
D14*
X170750000Y-140500000D03*
%TD*%
D10*
%TO.C,R9*%
X167878800Y-135900000D03*
D14*
X165338800Y-135900000D03*
%TD*%
D10*
%TO.C,R26*%
X186145000Y-135900000D03*
D14*
X183605000Y-135900000D03*
%TD*%
D17*
%TO.C,C14*%
X174750000Y-150455100D03*
D10*
X174750000Y-147955100D03*
%TD*%
D17*
%TO.C,C8*%
X174000000Y-157432400D03*
D10*
X174000000Y-154932400D03*
%TD*%
D18*
%TO.C,U5*%
X179600000Y-119605000D03*
X179600000Y-118335000D03*
X179600000Y-117065000D03*
X179600000Y-115795000D03*
X186800000Y-115795000D03*
X186800000Y-117065000D03*
X186800000Y-118335000D03*
X186800000Y-119605000D03*
%TD*%
D19*
%TO.C,J6*%
X184252500Y-144420000D03*
D20*
X181712500Y-144420000D03*
X184252500Y-146960000D03*
X181712500Y-146960000D03*
X184252500Y-149500000D03*
X181712500Y-149500000D03*
X184252500Y-152040000D03*
X181712500Y-152040000D03*
X184252500Y-154580000D03*
X181712500Y-154580000D03*
%TD*%
D21*
%TO.C,U1*%
X170325000Y-65780000D03*
X175175000Y-65780000D03*
D22*
X170025000Y-62750000D03*
X175475000Y-62750000D03*
D16*
X181640000Y-62620000D03*
D23*
X182540000Y-62620000D03*
D16*
X181640000Y-65160000D03*
D23*
X182540000Y-65160000D03*
D15*
X181640000Y-67700000D03*
D23*
X182540000Y-67700000D03*
D16*
X181640000Y-70240000D03*
D23*
X182540000Y-70240000D03*
X182540000Y-72780000D03*
D16*
X181640000Y-72780000D03*
D23*
X182540000Y-75320000D03*
D16*
X181640000Y-75320000D03*
D23*
X182540000Y-77860000D03*
D16*
X181640000Y-77860000D03*
D15*
X181640000Y-80400000D03*
D23*
X182540000Y-80400000D03*
X182540000Y-82940000D03*
D16*
X181640000Y-82940000D03*
D23*
X182540000Y-85480000D03*
D16*
X181640000Y-85480000D03*
D23*
X182540000Y-88020000D03*
D16*
X181640000Y-88020000D03*
D23*
X182540000Y-90560000D03*
D16*
X181640000Y-90560000D03*
D23*
X182540000Y-93100000D03*
D15*
X181640000Y-93100000D03*
D23*
X182540000Y-95640000D03*
D16*
X181640000Y-95640000D03*
D23*
X182540000Y-98180000D03*
D16*
X181640000Y-98180000D03*
X181640000Y-100720000D03*
D23*
X182540000Y-100720000D03*
D16*
X181640000Y-103260000D03*
D23*
X182540000Y-103260000D03*
D15*
X181640000Y-105800000D03*
D23*
X182540000Y-105800000D03*
D16*
X181640000Y-108340000D03*
D23*
X182540000Y-108340000D03*
D16*
X181640000Y-110880000D03*
D23*
X182540000Y-110880000D03*
D16*
X163860000Y-110880000D03*
D23*
X162960000Y-110880000D03*
X162960000Y-108340000D03*
D16*
X163860000Y-108340000D03*
D15*
X163860000Y-105800000D03*
D23*
X162960000Y-105800000D03*
D16*
X163860000Y-103260000D03*
D23*
X162960000Y-103260000D03*
D16*
X163860000Y-100720000D03*
D23*
X162960000Y-100720000D03*
X162960000Y-98180000D03*
D16*
X163860000Y-98180000D03*
D23*
X162960000Y-95640000D03*
D16*
X163860000Y-95640000D03*
D23*
X162960000Y-93100000D03*
D15*
X163860000Y-93100000D03*
D23*
X162960000Y-90560000D03*
D16*
X163860000Y-90560000D03*
D23*
X162960000Y-88020000D03*
D16*
X163860000Y-88020000D03*
X163860000Y-85480000D03*
D23*
X162960000Y-85480000D03*
D16*
X163860000Y-82940000D03*
D23*
X162960000Y-82940000D03*
X162960000Y-80400000D03*
D15*
X163860000Y-80400000D03*
D23*
X162960000Y-77860000D03*
D16*
X163860000Y-77860000D03*
D23*
X162960000Y-75320000D03*
D16*
X163860000Y-75320000D03*
D23*
X162960000Y-72780000D03*
D16*
X163860000Y-72780000D03*
X163860000Y-70240000D03*
D23*
X162960000Y-70240000D03*
D15*
X163860000Y-67700000D03*
D23*
X162960000Y-67700000D03*
D16*
X163860000Y-65160000D03*
D23*
X162960000Y-65160000D03*
D16*
X163860000Y-62620000D03*
D23*
X162960000Y-62620000D03*
D16*
X175290000Y-110650000D03*
D24*
X175290000Y-111550000D03*
X172750000Y-111550000D03*
D15*
X172750000Y-110650000D03*
D24*
X170210000Y-111550000D03*
D16*
X170210000Y-110650000D03*
%TD*%
D25*
%TO.C,U4*%
X176300000Y-114795000D03*
X176300000Y-116065000D03*
X176300000Y-117335000D03*
X176300000Y-118605000D03*
X169100000Y-118605000D03*
X169100000Y-117335000D03*
X169100000Y-116065000D03*
X169100000Y-114795000D03*
%TD*%
D26*
%TO.C,U3*%
X161250000Y-152250000D03*
D27*
X161250000Y-154790000D03*
X161250000Y-157330000D03*
%TD*%
M02*
