%TF.GenerationSoftware,KiCad,Pcbnew,(6.0.7)*%
%TF.CreationDate,2023-02-07T22:19:33+09:00*%
%TF.ProjectId,scoppy_control,73636f70-7079-45f6-936f-6e74726f6c2e,rev?*%
%TF.SameCoordinates,Original*%
%TF.FileFunction,Legend,Top*%
%TF.FilePolarity,Positive*%
%FSLAX46Y46*%
G04 Gerber Fmt 4.6, Leading zero omitted, Abs format (unit mm)*
G04 Created by KiCad (PCBNEW (6.0.7)) date 2023-02-07 22:19:33*
%MOMM*%
%LPD*%
G01*
G04 APERTURE LIST*
%ADD10C,0.150000*%
%ADD11C,0.254000*%
%ADD12C,0.120000*%
%ADD13C,0.200000*%
G04 APERTURE END LIST*
D10*
%TO.C,R18*%
X129712142Y-63452380D02*
X129378809Y-62976190D01*
X129140714Y-63452380D02*
X129140714Y-62452380D01*
X129521666Y-62452380D01*
X129616904Y-62500000D01*
X129664523Y-62547619D01*
X129712142Y-62642857D01*
X129712142Y-62785714D01*
X129664523Y-62880952D01*
X129616904Y-62928571D01*
X129521666Y-62976190D01*
X129140714Y-62976190D01*
X130664523Y-63452380D02*
X130093095Y-63452380D01*
X130378809Y-63452380D02*
X130378809Y-62452380D01*
X130283571Y-62595238D01*
X130188333Y-62690476D01*
X130093095Y-62738095D01*
X131235952Y-62880952D02*
X131140714Y-62833333D01*
X131093095Y-62785714D01*
X131045476Y-62690476D01*
X131045476Y-62642857D01*
X131093095Y-62547619D01*
X131140714Y-62500000D01*
X131235952Y-62452380D01*
X131426428Y-62452380D01*
X131521666Y-62500000D01*
X131569285Y-62547619D01*
X131616904Y-62642857D01*
X131616904Y-62690476D01*
X131569285Y-62785714D01*
X131521666Y-62833333D01*
X131426428Y-62880952D01*
X131235952Y-62880952D01*
X131140714Y-62928571D01*
X131093095Y-62976190D01*
X131045476Y-63071428D01*
X131045476Y-63261904D01*
X131093095Y-63357142D01*
X131140714Y-63404761D01*
X131235952Y-63452380D01*
X131426428Y-63452380D01*
X131521666Y-63404761D01*
X131569285Y-63357142D01*
X131616904Y-63261904D01*
X131616904Y-63071428D01*
X131569285Y-62976190D01*
X131521666Y-62928571D01*
X131426428Y-62880952D01*
%TO.C,SW2*%
X127304761Y-94733333D02*
X127352380Y-94590476D01*
X127352380Y-94352380D01*
X127304761Y-94257142D01*
X127257142Y-94209523D01*
X127161904Y-94161904D01*
X127066666Y-94161904D01*
X126971428Y-94209523D01*
X126923809Y-94257142D01*
X126876190Y-94352380D01*
X126828571Y-94542857D01*
X126780952Y-94638095D01*
X126733333Y-94685714D01*
X126638095Y-94733333D01*
X126542857Y-94733333D01*
X126447619Y-94685714D01*
X126400000Y-94638095D01*
X126352380Y-94542857D01*
X126352380Y-94304761D01*
X126400000Y-94161904D01*
X126352380Y-93828571D02*
X127352380Y-93590476D01*
X126638095Y-93400000D01*
X127352380Y-93209523D01*
X126352380Y-92971428D01*
X126447619Y-92638095D02*
X126400000Y-92590476D01*
X126352380Y-92495238D01*
X126352380Y-92257142D01*
X126400000Y-92161904D01*
X126447619Y-92114285D01*
X126542857Y-92066666D01*
X126638095Y-92066666D01*
X126780952Y-92114285D01*
X127352380Y-92685714D01*
X127352380Y-92066666D01*
%TO.C,SW4*%
X129929761Y-85433333D02*
X129977380Y-85290476D01*
X129977380Y-85052380D01*
X129929761Y-84957142D01*
X129882142Y-84909523D01*
X129786904Y-84861904D01*
X129691666Y-84861904D01*
X129596428Y-84909523D01*
X129548809Y-84957142D01*
X129501190Y-85052380D01*
X129453571Y-85242857D01*
X129405952Y-85338095D01*
X129358333Y-85385714D01*
X129263095Y-85433333D01*
X129167857Y-85433333D01*
X129072619Y-85385714D01*
X129025000Y-85338095D01*
X128977380Y-85242857D01*
X128977380Y-85004761D01*
X129025000Y-84861904D01*
X128977380Y-84528571D02*
X129977380Y-84290476D01*
X129263095Y-84100000D01*
X129977380Y-83909523D01*
X128977380Y-83671428D01*
X129310714Y-82861904D02*
X129977380Y-82861904D01*
X128929761Y-83100000D02*
X129644047Y-83338095D01*
X129644047Y-82719047D01*
%TO.C,D4*%
X124071904Y-136052380D02*
X124071904Y-135052380D01*
X124310000Y-135052380D01*
X124452857Y-135100000D01*
X124548095Y-135195238D01*
X124595714Y-135290476D01*
X124643333Y-135480952D01*
X124643333Y-135623809D01*
X124595714Y-135814285D01*
X124548095Y-135909523D01*
X124452857Y-136004761D01*
X124310000Y-136052380D01*
X124071904Y-136052380D01*
X125500476Y-135385714D02*
X125500476Y-136052380D01*
X125262380Y-135004761D02*
X125024285Y-135719047D01*
X125643333Y-135719047D01*
%TO.C,C9*%
X116357142Y-83416666D02*
X116404761Y-83464285D01*
X116452380Y-83607142D01*
X116452380Y-83702380D01*
X116404761Y-83845238D01*
X116309523Y-83940476D01*
X116214285Y-83988095D01*
X116023809Y-84035714D01*
X115880952Y-84035714D01*
X115690476Y-83988095D01*
X115595238Y-83940476D01*
X115500000Y-83845238D01*
X115452380Y-83702380D01*
X115452380Y-83607142D01*
X115500000Y-83464285D01*
X115547619Y-83416666D01*
X116452380Y-82940476D02*
X116452380Y-82750000D01*
X116404761Y-82654761D01*
X116357142Y-82607142D01*
X116214285Y-82511904D01*
X116023809Y-82464285D01*
X115642857Y-82464285D01*
X115547619Y-82511904D01*
X115500000Y-82559523D01*
X115452380Y-82654761D01*
X115452380Y-82845238D01*
X115500000Y-82940476D01*
X115547619Y-82988095D01*
X115642857Y-83035714D01*
X115880952Y-83035714D01*
X115976190Y-82988095D01*
X116023809Y-82940476D01*
X116071428Y-82845238D01*
X116071428Y-82654761D01*
X116023809Y-82559523D01*
X115976190Y-82511904D01*
X115880952Y-82464285D01*
%TO.C,R17*%
X105757142Y-62552380D02*
X105423809Y-62076190D01*
X105185714Y-62552380D02*
X105185714Y-61552380D01*
X105566666Y-61552380D01*
X105661904Y-61600000D01*
X105709523Y-61647619D01*
X105757142Y-61742857D01*
X105757142Y-61885714D01*
X105709523Y-61980952D01*
X105661904Y-62028571D01*
X105566666Y-62076190D01*
X105185714Y-62076190D01*
X106709523Y-62552380D02*
X106138095Y-62552380D01*
X106423809Y-62552380D02*
X106423809Y-61552380D01*
X106328571Y-61695238D01*
X106233333Y-61790476D01*
X106138095Y-61838095D01*
X107042857Y-61552380D02*
X107709523Y-61552380D01*
X107280952Y-62552380D01*
%TO.C,R15*%
X118007142Y-64352380D02*
X117673809Y-63876190D01*
X117435714Y-64352380D02*
X117435714Y-63352380D01*
X117816666Y-63352380D01*
X117911904Y-63400000D01*
X117959523Y-63447619D01*
X118007142Y-63542857D01*
X118007142Y-63685714D01*
X117959523Y-63780952D01*
X117911904Y-63828571D01*
X117816666Y-63876190D01*
X117435714Y-63876190D01*
X118959523Y-64352380D02*
X118388095Y-64352380D01*
X118673809Y-64352380D02*
X118673809Y-63352380D01*
X118578571Y-63495238D01*
X118483333Y-63590476D01*
X118388095Y-63638095D01*
X119864285Y-63352380D02*
X119388095Y-63352380D01*
X119340476Y-63828571D01*
X119388095Y-63780952D01*
X119483333Y-63733333D01*
X119721428Y-63733333D01*
X119816666Y-63780952D01*
X119864285Y-63828571D01*
X119911904Y-63923809D01*
X119911904Y-64161904D01*
X119864285Y-64257142D01*
X119816666Y-64304761D01*
X119721428Y-64352380D01*
X119483333Y-64352380D01*
X119388095Y-64304761D01*
X119340476Y-64257142D01*
%TO.C,SW3*%
X110554761Y-85433333D02*
X110602380Y-85290476D01*
X110602380Y-85052380D01*
X110554761Y-84957142D01*
X110507142Y-84909523D01*
X110411904Y-84861904D01*
X110316666Y-84861904D01*
X110221428Y-84909523D01*
X110173809Y-84957142D01*
X110126190Y-85052380D01*
X110078571Y-85242857D01*
X110030952Y-85338095D01*
X109983333Y-85385714D01*
X109888095Y-85433333D01*
X109792857Y-85433333D01*
X109697619Y-85385714D01*
X109650000Y-85338095D01*
X109602380Y-85242857D01*
X109602380Y-85004761D01*
X109650000Y-84861904D01*
X109602380Y-84528571D02*
X110602380Y-84290476D01*
X109888095Y-84100000D01*
X110602380Y-83909523D01*
X109602380Y-83671428D01*
X109602380Y-83385714D02*
X109602380Y-82766666D01*
X109983333Y-83100000D01*
X109983333Y-82957142D01*
X110030952Y-82861904D01*
X110078571Y-82814285D01*
X110173809Y-82766666D01*
X110411904Y-82766666D01*
X110507142Y-82814285D01*
X110554761Y-82861904D01*
X110602380Y-82957142D01*
X110602380Y-83242857D01*
X110554761Y-83338095D01*
X110507142Y-83385714D01*
%TO.C,R16*%
X121257142Y-68552380D02*
X120923809Y-68076190D01*
X120685714Y-68552380D02*
X120685714Y-67552380D01*
X121066666Y-67552380D01*
X121161904Y-67600000D01*
X121209523Y-67647619D01*
X121257142Y-67742857D01*
X121257142Y-67885714D01*
X121209523Y-67980952D01*
X121161904Y-68028571D01*
X121066666Y-68076190D01*
X120685714Y-68076190D01*
X122209523Y-68552380D02*
X121638095Y-68552380D01*
X121923809Y-68552380D02*
X121923809Y-67552380D01*
X121828571Y-67695238D01*
X121733333Y-67790476D01*
X121638095Y-67838095D01*
X123066666Y-67552380D02*
X122876190Y-67552380D01*
X122780952Y-67600000D01*
X122733333Y-67647619D01*
X122638095Y-67790476D01*
X122590476Y-67980952D01*
X122590476Y-68361904D01*
X122638095Y-68457142D01*
X122685714Y-68504761D01*
X122780952Y-68552380D01*
X122971428Y-68552380D01*
X123066666Y-68504761D01*
X123114285Y-68457142D01*
X123161904Y-68361904D01*
X123161904Y-68123809D01*
X123114285Y-68028571D01*
X123066666Y-67980952D01*
X122971428Y-67933333D01*
X122780952Y-67933333D01*
X122685714Y-67980952D01*
X122638095Y-68028571D01*
X122590476Y-68123809D01*
%TO.C,J1*%
X113696666Y-110752380D02*
X113696666Y-111466666D01*
X113649047Y-111609523D01*
X113553809Y-111704761D01*
X113410952Y-111752380D01*
X113315714Y-111752380D01*
X114696666Y-111752380D02*
X114125238Y-111752380D01*
X114410952Y-111752380D02*
X114410952Y-110752380D01*
X114315714Y-110895238D01*
X114220476Y-110990476D01*
X114125238Y-111038095D01*
%TO.C,VBUS*%
X110666666Y-139022380D02*
X111000000Y-140022380D01*
X111333333Y-139022380D01*
X112000000Y-139498571D02*
X112142857Y-139546190D01*
X112190476Y-139593809D01*
X112238095Y-139689047D01*
X112238095Y-139831904D01*
X112190476Y-139927142D01*
X112142857Y-139974761D01*
X112047619Y-140022380D01*
X111666666Y-140022380D01*
X111666666Y-139022380D01*
X112000000Y-139022380D01*
X112095238Y-139070000D01*
X112142857Y-139117619D01*
X112190476Y-139212857D01*
X112190476Y-139308095D01*
X112142857Y-139403333D01*
X112095238Y-139450952D01*
X112000000Y-139498571D01*
X111666666Y-139498571D01*
X112666666Y-139022380D02*
X112666666Y-139831904D01*
X112714285Y-139927142D01*
X112761904Y-139974761D01*
X112857142Y-140022380D01*
X113047619Y-140022380D01*
X113142857Y-139974761D01*
X113190476Y-139927142D01*
X113238095Y-139831904D01*
X113238095Y-139022380D01*
X113666666Y-139974761D02*
X113809523Y-140022380D01*
X114047619Y-140022380D01*
X114142857Y-139974761D01*
X114190476Y-139927142D01*
X114238095Y-139831904D01*
X114238095Y-139736666D01*
X114190476Y-139641428D01*
X114142857Y-139593809D01*
X114047619Y-139546190D01*
X113857142Y-139498571D01*
X113761904Y-139450952D01*
X113714285Y-139403333D01*
X113666666Y-139308095D01*
X113666666Y-139212857D01*
X113714285Y-139117619D01*
X113761904Y-139070000D01*
X113857142Y-139022380D01*
X114095238Y-139022380D01*
X114238095Y-139070000D01*
%TO.C,R5*%
X117200033Y-117912380D02*
X116866700Y-117436190D01*
X116628604Y-117912380D02*
X116628604Y-116912380D01*
X117009557Y-116912380D01*
X117104795Y-116960000D01*
X117152414Y-117007619D01*
X117200033Y-117102857D01*
X117200033Y-117245714D01*
X117152414Y-117340952D01*
X117104795Y-117388571D01*
X117009557Y-117436190D01*
X116628604Y-117436190D01*
X118104795Y-116912380D02*
X117628604Y-116912380D01*
X117580985Y-117388571D01*
X117628604Y-117340952D01*
X117723842Y-117293333D01*
X117961938Y-117293333D01*
X118057176Y-117340952D01*
X118104795Y-117388571D01*
X118152414Y-117483809D01*
X118152414Y-117721904D01*
X118104795Y-117817142D01*
X118057176Y-117864761D01*
X117961938Y-117912380D01*
X117723842Y-117912380D01*
X117628604Y-117864761D01*
X117580985Y-117817142D01*
%TO.C,C21*%
X116312142Y-94457142D02*
X116264523Y-94504761D01*
X116121666Y-94552380D01*
X116026428Y-94552380D01*
X115883571Y-94504761D01*
X115788333Y-94409523D01*
X115740714Y-94314285D01*
X115693095Y-94123809D01*
X115693095Y-93980952D01*
X115740714Y-93790476D01*
X115788333Y-93695238D01*
X115883571Y-93600000D01*
X116026428Y-93552380D01*
X116121666Y-93552380D01*
X116264523Y-93600000D01*
X116312142Y-93647619D01*
X116693095Y-93647619D02*
X116740714Y-93600000D01*
X116835952Y-93552380D01*
X117074047Y-93552380D01*
X117169285Y-93600000D01*
X117216904Y-93647619D01*
X117264523Y-93742857D01*
X117264523Y-93838095D01*
X117216904Y-93980952D01*
X116645476Y-94552380D01*
X117264523Y-94552380D01*
X118216904Y-94552380D02*
X117645476Y-94552380D01*
X117931190Y-94552380D02*
X117931190Y-93552380D01*
X117835952Y-93695238D01*
X117740714Y-93790476D01*
X117645476Y-93838095D01*
%TO.C,C3*%
X117557142Y-101516666D02*
X117604761Y-101564285D01*
X117652380Y-101707142D01*
X117652380Y-101802380D01*
X117604761Y-101945238D01*
X117509523Y-102040476D01*
X117414285Y-102088095D01*
X117223809Y-102135714D01*
X117080952Y-102135714D01*
X116890476Y-102088095D01*
X116795238Y-102040476D01*
X116700000Y-101945238D01*
X116652380Y-101802380D01*
X116652380Y-101707142D01*
X116700000Y-101564285D01*
X116747619Y-101516666D01*
X116652380Y-101183333D02*
X116652380Y-100564285D01*
X117033333Y-100897619D01*
X117033333Y-100754761D01*
X117080952Y-100659523D01*
X117128571Y-100611904D01*
X117223809Y-100564285D01*
X117461904Y-100564285D01*
X117557142Y-100611904D01*
X117604761Y-100659523D01*
X117652380Y-100754761D01*
X117652380Y-101040476D01*
X117604761Y-101135714D01*
X117557142Y-101183333D01*
%TO.C,R12*%
X116057142Y-92952380D02*
X115723809Y-92476190D01*
X115485714Y-92952380D02*
X115485714Y-91952380D01*
X115866666Y-91952380D01*
X115961904Y-92000000D01*
X116009523Y-92047619D01*
X116057142Y-92142857D01*
X116057142Y-92285714D01*
X116009523Y-92380952D01*
X115961904Y-92428571D01*
X115866666Y-92476190D01*
X115485714Y-92476190D01*
X117009523Y-92952380D02*
X116438095Y-92952380D01*
X116723809Y-92952380D02*
X116723809Y-91952380D01*
X116628571Y-92095238D01*
X116533333Y-92190476D01*
X116438095Y-92238095D01*
X117390476Y-92047619D02*
X117438095Y-92000000D01*
X117533333Y-91952380D01*
X117771428Y-91952380D01*
X117866666Y-92000000D01*
X117914285Y-92047619D01*
X117961904Y-92142857D01*
X117961904Y-92238095D01*
X117914285Y-92380952D01*
X117342857Y-92952380D01*
X117961904Y-92952380D01*
%TO.C,TP2*%
X115971395Y-139022380D02*
X116542823Y-139022380D01*
X116257109Y-140022380D02*
X116257109Y-139022380D01*
X116876157Y-140022380D02*
X116876157Y-139022380D01*
X117257109Y-139022380D01*
X117352347Y-139070000D01*
X117399966Y-139117619D01*
X117447585Y-139212857D01*
X117447585Y-139355714D01*
X117399966Y-139450952D01*
X117352347Y-139498571D01*
X117257109Y-139546190D01*
X116876157Y-139546190D01*
X117828538Y-139117619D02*
X117876157Y-139070000D01*
X117971395Y-139022380D01*
X118209490Y-139022380D01*
X118304728Y-139070000D01*
X118352347Y-139117619D01*
X118399966Y-139212857D01*
X118399966Y-139308095D01*
X118352347Y-139450952D01*
X117780919Y-140022380D01*
X118399966Y-140022380D01*
%TO.C,C16*%
X124857142Y-90842857D02*
X124904761Y-90890476D01*
X124952380Y-91033333D01*
X124952380Y-91128571D01*
X124904761Y-91271428D01*
X124809523Y-91366666D01*
X124714285Y-91414285D01*
X124523809Y-91461904D01*
X124380952Y-91461904D01*
X124190476Y-91414285D01*
X124095238Y-91366666D01*
X124000000Y-91271428D01*
X123952380Y-91128571D01*
X123952380Y-91033333D01*
X124000000Y-90890476D01*
X124047619Y-90842857D01*
X124952380Y-89890476D02*
X124952380Y-90461904D01*
X124952380Y-90176190D02*
X123952380Y-90176190D01*
X124095238Y-90271428D01*
X124190476Y-90366666D01*
X124238095Y-90461904D01*
X123952380Y-89033333D02*
X123952380Y-89223809D01*
X124000000Y-89319047D01*
X124047619Y-89366666D01*
X124190476Y-89461904D01*
X124380952Y-89509523D01*
X124761904Y-89509523D01*
X124857142Y-89461904D01*
X124904761Y-89414285D01*
X124952380Y-89319047D01*
X124952380Y-89128571D01*
X124904761Y-89033333D01*
X124857142Y-88985714D01*
X124761904Y-88938095D01*
X124523809Y-88938095D01*
X124428571Y-88985714D01*
X124380952Y-89033333D01*
X124333333Y-89128571D01*
X124333333Y-89319047D01*
X124380952Y-89414285D01*
X124428571Y-89461904D01*
X124523809Y-89509523D01*
%TO.C,R6*%
X122266667Y-117812380D02*
X121933334Y-117336190D01*
X121695238Y-117812380D02*
X121695238Y-116812380D01*
X122076191Y-116812380D01*
X122171429Y-116860000D01*
X122219048Y-116907619D01*
X122266667Y-117002857D01*
X122266667Y-117145714D01*
X122219048Y-117240952D01*
X122171429Y-117288571D01*
X122076191Y-117336190D01*
X121695238Y-117336190D01*
X123123810Y-116812380D02*
X122933334Y-116812380D01*
X122838095Y-116860000D01*
X122790476Y-116907619D01*
X122695238Y-117050476D01*
X122647619Y-117240952D01*
X122647619Y-117621904D01*
X122695238Y-117717142D01*
X122742857Y-117764761D01*
X122838095Y-117812380D01*
X123028572Y-117812380D01*
X123123810Y-117764761D01*
X123171429Y-117717142D01*
X123219048Y-117621904D01*
X123219048Y-117383809D01*
X123171429Y-117288571D01*
X123123810Y-117240952D01*
X123028572Y-117193333D01*
X122838095Y-117193333D01*
X122742857Y-117240952D01*
X122695238Y-117288571D01*
X122647619Y-117383809D01*
%TO.C,J8*%
X118066666Y-152552380D02*
X118066666Y-153266666D01*
X118019047Y-153409523D01*
X117923809Y-153504761D01*
X117780952Y-153552380D01*
X117685714Y-153552380D01*
X118685714Y-152980952D02*
X118590476Y-152933333D01*
X118542857Y-152885714D01*
X118495238Y-152790476D01*
X118495238Y-152742857D01*
X118542857Y-152647619D01*
X118590476Y-152600000D01*
X118685714Y-152552380D01*
X118876190Y-152552380D01*
X118971428Y-152600000D01*
X119019047Y-152647619D01*
X119066666Y-152742857D01*
X119066666Y-152790476D01*
X119019047Y-152885714D01*
X118971428Y-152933333D01*
X118876190Y-152980952D01*
X118685714Y-152980952D01*
X118590476Y-153028571D01*
X118542857Y-153076190D01*
X118495238Y-153171428D01*
X118495238Y-153361904D01*
X118542857Y-153457142D01*
X118590476Y-153504761D01*
X118685714Y-153552380D01*
X118876190Y-153552380D01*
X118971428Y-153504761D01*
X119019047Y-153457142D01*
X119066666Y-153361904D01*
X119066666Y-153171428D01*
X119019047Y-153076190D01*
X118971428Y-153028571D01*
X118876190Y-152980952D01*
%TO.C,GND*%
X125938095Y-139070000D02*
X125842857Y-139022380D01*
X125700000Y-139022380D01*
X125557142Y-139070000D01*
X125461904Y-139165238D01*
X125414285Y-139260476D01*
X125366666Y-139450952D01*
X125366666Y-139593809D01*
X125414285Y-139784285D01*
X125461904Y-139879523D01*
X125557142Y-139974761D01*
X125700000Y-140022380D01*
X125795238Y-140022380D01*
X125938095Y-139974761D01*
X125985714Y-139927142D01*
X125985714Y-139593809D01*
X125795238Y-139593809D01*
X126414285Y-140022380D02*
X126414285Y-139022380D01*
X126985714Y-140022380D01*
X126985714Y-139022380D01*
X127461904Y-140022380D02*
X127461904Y-139022380D01*
X127700000Y-139022380D01*
X127842857Y-139070000D01*
X127938095Y-139165238D01*
X127985714Y-139260476D01*
X128033333Y-139450952D01*
X128033333Y-139593809D01*
X127985714Y-139784285D01*
X127938095Y-139879523D01*
X127842857Y-139974761D01*
X127700000Y-140022380D01*
X127461904Y-140022380D01*
%TO.C,J4*%
X105636666Y-115852380D02*
X105636666Y-116566666D01*
X105589047Y-116709523D01*
X105493809Y-116804761D01*
X105350952Y-116852380D01*
X105255714Y-116852380D01*
X106541428Y-116185714D02*
X106541428Y-116852380D01*
X106303333Y-115804761D02*
X106065238Y-116519047D01*
X106684285Y-116519047D01*
%TO.C,D3*%
X110451904Y-136852380D02*
X110451904Y-135852380D01*
X110690000Y-135852380D01*
X110832857Y-135900000D01*
X110928095Y-135995238D01*
X110975714Y-136090476D01*
X111023333Y-136280952D01*
X111023333Y-136423809D01*
X110975714Y-136614285D01*
X110928095Y-136709523D01*
X110832857Y-136804761D01*
X110690000Y-136852380D01*
X110451904Y-136852380D01*
X111356666Y-135852380D02*
X111975714Y-135852380D01*
X111642380Y-136233333D01*
X111785238Y-136233333D01*
X111880476Y-136280952D01*
X111928095Y-136328571D01*
X111975714Y-136423809D01*
X111975714Y-136661904D01*
X111928095Y-136757142D01*
X111880476Y-136804761D01*
X111785238Y-136852380D01*
X111499523Y-136852380D01*
X111404285Y-136804761D01*
X111356666Y-136757142D01*
%TO.C,D6*%
X132652380Y-154528095D02*
X131652380Y-154528095D01*
X131652380Y-154290000D01*
X131700000Y-154147142D01*
X131795238Y-154051904D01*
X131890476Y-154004285D01*
X132080952Y-153956666D01*
X132223809Y-153956666D01*
X132414285Y-154004285D01*
X132509523Y-154051904D01*
X132604761Y-154147142D01*
X132652380Y-154290000D01*
X132652380Y-154528095D01*
X131652380Y-153099523D02*
X131652380Y-153290000D01*
X131700000Y-153385238D01*
X131747619Y-153432857D01*
X131890476Y-153528095D01*
X132080952Y-153575714D01*
X132461904Y-153575714D01*
X132557142Y-153528095D01*
X132604761Y-153480476D01*
X132652380Y-153385238D01*
X132652380Y-153194761D01*
X132604761Y-153099523D01*
X132557142Y-153051904D01*
X132461904Y-153004285D01*
X132223809Y-153004285D01*
X132128571Y-153051904D01*
X132080952Y-153099523D01*
X132033333Y-153194761D01*
X132033333Y-153385238D01*
X132080952Y-153480476D01*
X132128571Y-153528095D01*
X132223809Y-153575714D01*
X130252380Y-158251904D02*
X129252380Y-158251904D01*
X130252380Y-157680476D02*
X129680952Y-158109047D01*
X129252380Y-157680476D02*
X129823809Y-158251904D01*
%TO.C,C10*%
X125057142Y-75092857D02*
X125104761Y-75140476D01*
X125152380Y-75283333D01*
X125152380Y-75378571D01*
X125104761Y-75521428D01*
X125009523Y-75616666D01*
X124914285Y-75664285D01*
X124723809Y-75711904D01*
X124580952Y-75711904D01*
X124390476Y-75664285D01*
X124295238Y-75616666D01*
X124200000Y-75521428D01*
X124152380Y-75378571D01*
X124152380Y-75283333D01*
X124200000Y-75140476D01*
X124247619Y-75092857D01*
X125152380Y-74140476D02*
X125152380Y-74711904D01*
X125152380Y-74426190D02*
X124152380Y-74426190D01*
X124295238Y-74521428D01*
X124390476Y-74616666D01*
X124438095Y-74711904D01*
X124152380Y-73521428D02*
X124152380Y-73426190D01*
X124200000Y-73330952D01*
X124247619Y-73283333D01*
X124342857Y-73235714D01*
X124533333Y-73188095D01*
X124771428Y-73188095D01*
X124961904Y-73235714D01*
X125057142Y-73283333D01*
X125104761Y-73330952D01*
X125152380Y-73426190D01*
X125152380Y-73521428D01*
X125104761Y-73616666D01*
X125057142Y-73664285D01*
X124961904Y-73711904D01*
X124771428Y-73759523D01*
X124533333Y-73759523D01*
X124342857Y-73711904D01*
X124247619Y-73664285D01*
X124200000Y-73616666D01*
X124152380Y-73521428D01*
%TO.C,C15*%
X105857142Y-74257142D02*
X105809523Y-74304761D01*
X105666666Y-74352380D01*
X105571428Y-74352380D01*
X105428571Y-74304761D01*
X105333333Y-74209523D01*
X105285714Y-74114285D01*
X105238095Y-73923809D01*
X105238095Y-73780952D01*
X105285714Y-73590476D01*
X105333333Y-73495238D01*
X105428571Y-73400000D01*
X105571428Y-73352380D01*
X105666666Y-73352380D01*
X105809523Y-73400000D01*
X105857142Y-73447619D01*
X106809523Y-74352380D02*
X106238095Y-74352380D01*
X106523809Y-74352380D02*
X106523809Y-73352380D01*
X106428571Y-73495238D01*
X106333333Y-73590476D01*
X106238095Y-73638095D01*
X107714285Y-73352380D02*
X107238095Y-73352380D01*
X107190476Y-73828571D01*
X107238095Y-73780952D01*
X107333333Y-73733333D01*
X107571428Y-73733333D01*
X107666666Y-73780952D01*
X107714285Y-73828571D01*
X107761904Y-73923809D01*
X107761904Y-74161904D01*
X107714285Y-74257142D01*
X107666666Y-74304761D01*
X107571428Y-74352380D01*
X107333333Y-74352380D01*
X107238095Y-74304761D01*
X107190476Y-74257142D01*
%TO.C,SW1*%
X107904761Y-94733333D02*
X107952380Y-94590476D01*
X107952380Y-94352380D01*
X107904761Y-94257142D01*
X107857142Y-94209523D01*
X107761904Y-94161904D01*
X107666666Y-94161904D01*
X107571428Y-94209523D01*
X107523809Y-94257142D01*
X107476190Y-94352380D01*
X107428571Y-94542857D01*
X107380952Y-94638095D01*
X107333333Y-94685714D01*
X107238095Y-94733333D01*
X107142857Y-94733333D01*
X107047619Y-94685714D01*
X107000000Y-94638095D01*
X106952380Y-94542857D01*
X106952380Y-94304761D01*
X107000000Y-94161904D01*
X106952380Y-93828571D02*
X107952380Y-93590476D01*
X107238095Y-93400000D01*
X107952380Y-93209523D01*
X106952380Y-92971428D01*
X107952380Y-92066666D02*
X107952380Y-92638095D01*
X107952380Y-92352380D02*
X106952380Y-92352380D01*
X107095238Y-92447619D01*
X107190476Y-92542857D01*
X107238095Y-92638095D01*
%TO.C,R8*%
X130882380Y-74696666D02*
X130406190Y-75030000D01*
X130882380Y-75268095D02*
X129882380Y-75268095D01*
X129882380Y-74887142D01*
X129930000Y-74791904D01*
X129977619Y-74744285D01*
X130072857Y-74696666D01*
X130215714Y-74696666D01*
X130310952Y-74744285D01*
X130358571Y-74791904D01*
X130406190Y-74887142D01*
X130406190Y-75268095D01*
X130310952Y-74125238D02*
X130263333Y-74220476D01*
X130215714Y-74268095D01*
X130120476Y-74315714D01*
X130072857Y-74315714D01*
X129977619Y-74268095D01*
X129930000Y-74220476D01*
X129882380Y-74125238D01*
X129882380Y-73934761D01*
X129930000Y-73839523D01*
X129977619Y-73791904D01*
X130072857Y-73744285D01*
X130120476Y-73744285D01*
X130215714Y-73791904D01*
X130263333Y-73839523D01*
X130310952Y-73934761D01*
X130310952Y-74125238D01*
X130358571Y-74220476D01*
X130406190Y-74268095D01*
X130501428Y-74315714D01*
X130691904Y-74315714D01*
X130787142Y-74268095D01*
X130834761Y-74220476D01*
X130882380Y-74125238D01*
X130882380Y-73934761D01*
X130834761Y-73839523D01*
X130787142Y-73791904D01*
X130691904Y-73744285D01*
X130501428Y-73744285D01*
X130406190Y-73791904D01*
X130358571Y-73839523D01*
X130310952Y-73934761D01*
%TO.C,J2*%
X133296666Y-110722380D02*
X133296666Y-111436666D01*
X133249047Y-111579523D01*
X133153809Y-111674761D01*
X133010952Y-111722380D01*
X132915714Y-111722380D01*
X133725238Y-110817619D02*
X133772857Y-110770000D01*
X133868095Y-110722380D01*
X134106190Y-110722380D01*
X134201428Y-110770000D01*
X134249047Y-110817619D01*
X134296666Y-110912857D01*
X134296666Y-111008095D01*
X134249047Y-111150952D01*
X133677619Y-111722380D01*
X134296666Y-111722380D01*
%TO.C,R7*%
X111682380Y-75296666D02*
X111206190Y-75630000D01*
X111682380Y-75868095D02*
X110682380Y-75868095D01*
X110682380Y-75487142D01*
X110730000Y-75391904D01*
X110777619Y-75344285D01*
X110872857Y-75296666D01*
X111015714Y-75296666D01*
X111110952Y-75344285D01*
X111158571Y-75391904D01*
X111206190Y-75487142D01*
X111206190Y-75868095D01*
X110682380Y-74963333D02*
X110682380Y-74296666D01*
X111682380Y-74725238D01*
%TO.C,J5*%
X125236666Y-115852380D02*
X125236666Y-116566666D01*
X125189047Y-116709523D01*
X125093809Y-116804761D01*
X124950952Y-116852380D01*
X124855714Y-116852380D01*
X126189047Y-115852380D02*
X125712857Y-115852380D01*
X125665238Y-116328571D01*
X125712857Y-116280952D01*
X125808095Y-116233333D01*
X126046190Y-116233333D01*
X126141428Y-116280952D01*
X126189047Y-116328571D01*
X126236666Y-116423809D01*
X126236666Y-116661904D01*
X126189047Y-116757142D01*
X126141428Y-116804761D01*
X126046190Y-116852380D01*
X125808095Y-116852380D01*
X125712857Y-116804761D01*
X125665238Y-116757142D01*
%TO.C,TP3*%
X120704795Y-139022380D02*
X121276223Y-139022380D01*
X120990509Y-140022380D02*
X120990509Y-139022380D01*
X121609557Y-140022380D02*
X121609557Y-139022380D01*
X121990509Y-139022380D01*
X122085747Y-139070000D01*
X122133366Y-139117619D01*
X122180985Y-139212857D01*
X122180985Y-139355714D01*
X122133366Y-139450952D01*
X122085747Y-139498571D01*
X121990509Y-139546190D01*
X121609557Y-139546190D01*
X122514319Y-139022380D02*
X123133366Y-139022380D01*
X122800033Y-139403333D01*
X122942890Y-139403333D01*
X123038128Y-139450952D01*
X123085747Y-139498571D01*
X123133366Y-139593809D01*
X123133366Y-139831904D01*
X123085747Y-139927142D01*
X123038128Y-139974761D01*
X122942890Y-140022380D01*
X122657176Y-140022380D01*
X122561938Y-139974761D01*
X122514319Y-139927142D01*
D11*
%TO.C,C6*%
X129320833Y-68349571D02*
X129260357Y-68410047D01*
X129078928Y-68470523D01*
X128957976Y-68470523D01*
X128776547Y-68410047D01*
X128655595Y-68289095D01*
X128595119Y-68168142D01*
X128534642Y-67926238D01*
X128534642Y-67744809D01*
X128595119Y-67502904D01*
X128655595Y-67381952D01*
X128776547Y-67261000D01*
X128957976Y-67200523D01*
X129078928Y-67200523D01*
X129260357Y-67261000D01*
X129320833Y-67321476D01*
X130409404Y-67200523D02*
X130167500Y-67200523D01*
X130046547Y-67261000D01*
X129986071Y-67321476D01*
X129865119Y-67502904D01*
X129804642Y-67744809D01*
X129804642Y-68228619D01*
X129865119Y-68349571D01*
X129925595Y-68410047D01*
X130046547Y-68470523D01*
X130288452Y-68470523D01*
X130409404Y-68410047D01*
X130469880Y-68349571D01*
X130530357Y-68228619D01*
X130530357Y-67926238D01*
X130469880Y-67805285D01*
X130409404Y-67744809D01*
X130288452Y-67684333D01*
X130046547Y-67684333D01*
X129925595Y-67744809D01*
X129865119Y-67805285D01*
X129804642Y-67926238D01*
D10*
%TO.C,C4*%
X122757142Y-101466666D02*
X122804761Y-101514285D01*
X122852380Y-101657142D01*
X122852380Y-101752380D01*
X122804761Y-101895238D01*
X122709523Y-101990476D01*
X122614285Y-102038095D01*
X122423809Y-102085714D01*
X122280952Y-102085714D01*
X122090476Y-102038095D01*
X121995238Y-101990476D01*
X121900000Y-101895238D01*
X121852380Y-101752380D01*
X121852380Y-101657142D01*
X121900000Y-101514285D01*
X121947619Y-101466666D01*
X122185714Y-100609523D02*
X122852380Y-100609523D01*
X121804761Y-100847619D02*
X122519047Y-101085714D01*
X122519047Y-100466666D01*
D11*
%TO.C,C5*%
X109120833Y-68349571D02*
X109060357Y-68410047D01*
X108878928Y-68470523D01*
X108757976Y-68470523D01*
X108576547Y-68410047D01*
X108455595Y-68289095D01*
X108395119Y-68168142D01*
X108334642Y-67926238D01*
X108334642Y-67744809D01*
X108395119Y-67502904D01*
X108455595Y-67381952D01*
X108576547Y-67261000D01*
X108757976Y-67200523D01*
X108878928Y-67200523D01*
X109060357Y-67261000D01*
X109120833Y-67321476D01*
X110269880Y-67200523D02*
X109665119Y-67200523D01*
X109604642Y-67805285D01*
X109665119Y-67744809D01*
X109786071Y-67684333D01*
X110088452Y-67684333D01*
X110209404Y-67744809D01*
X110269880Y-67805285D01*
X110330357Y-67926238D01*
X110330357Y-68228619D01*
X110269880Y-68349571D01*
X110209404Y-68410047D01*
X110088452Y-68470523D01*
X109786071Y-68470523D01*
X109665119Y-68410047D01*
X109604642Y-68349571D01*
D10*
%TO.C,R14*%
X121757142Y-83507380D02*
X121423809Y-83031190D01*
X121185714Y-83507380D02*
X121185714Y-82507380D01*
X121566666Y-82507380D01*
X121661904Y-82555000D01*
X121709523Y-82602619D01*
X121757142Y-82697857D01*
X121757142Y-82840714D01*
X121709523Y-82935952D01*
X121661904Y-82983571D01*
X121566666Y-83031190D01*
X121185714Y-83031190D01*
X122709523Y-83507380D02*
X122138095Y-83507380D01*
X122423809Y-83507380D02*
X122423809Y-82507380D01*
X122328571Y-82650238D01*
X122233333Y-82745476D01*
X122138095Y-82793095D01*
X123566666Y-82840714D02*
X123566666Y-83507380D01*
X123328571Y-82459761D02*
X123090476Y-83174047D01*
X123709523Y-83174047D01*
%TO.C,D5*%
X132652380Y-142248095D02*
X131652380Y-142248095D01*
X131652380Y-142010000D01*
X131700000Y-141867142D01*
X131795238Y-141771904D01*
X131890476Y-141724285D01*
X132080952Y-141676666D01*
X132223809Y-141676666D01*
X132414285Y-141724285D01*
X132509523Y-141771904D01*
X132604761Y-141867142D01*
X132652380Y-142010000D01*
X132652380Y-142248095D01*
X131652380Y-140771904D02*
X131652380Y-141248095D01*
X132128571Y-141295714D01*
X132080952Y-141248095D01*
X132033333Y-141152857D01*
X132033333Y-140914761D01*
X132080952Y-140819523D01*
X132128571Y-140771904D01*
X132223809Y-140724285D01*
X132461904Y-140724285D01*
X132557142Y-140771904D01*
X132604761Y-140819523D01*
X132652380Y-140914761D01*
X132652380Y-141152857D01*
X132604761Y-141248095D01*
X132557142Y-141295714D01*
X130552380Y-145971904D02*
X129552380Y-145971904D01*
X130552380Y-145400476D02*
X129980952Y-145829047D01*
X129552380Y-145400476D02*
X130123809Y-145971904D01*
%TO.C,R21*%
X122912142Y-94452380D02*
X122578809Y-93976190D01*
X122340714Y-94452380D02*
X122340714Y-93452380D01*
X122721666Y-93452380D01*
X122816904Y-93500000D01*
X122864523Y-93547619D01*
X122912142Y-93642857D01*
X122912142Y-93785714D01*
X122864523Y-93880952D01*
X122816904Y-93928571D01*
X122721666Y-93976190D01*
X122340714Y-93976190D01*
X123293095Y-93547619D02*
X123340714Y-93500000D01*
X123435952Y-93452380D01*
X123674047Y-93452380D01*
X123769285Y-93500000D01*
X123816904Y-93547619D01*
X123864523Y-93642857D01*
X123864523Y-93738095D01*
X123816904Y-93880952D01*
X123245476Y-94452380D01*
X123864523Y-94452380D01*
X124816904Y-94452380D02*
X124245476Y-94452380D01*
X124531190Y-94452380D02*
X124531190Y-93452380D01*
X124435952Y-93595238D01*
X124340714Y-93690476D01*
X124245476Y-93738095D01*
D12*
%TO.C,R18*%
X126430000Y-62800000D02*
X126500000Y-62800000D01*
X126430000Y-62800000D02*
G75*
G03*
X126430000Y-62800000I-1370000J0D01*
G01*
%TO.C,SW2*%
X128170000Y-91175000D02*
X128170000Y-89845000D01*
X128170000Y-89845000D02*
X129500000Y-89845000D01*
X128170000Y-92445000D02*
X130830000Y-92445000D01*
X128170000Y-97585000D02*
X130830000Y-97585000D01*
X128170000Y-92445000D02*
X128170000Y-97585000D01*
X130830000Y-92445000D02*
X130830000Y-97585000D01*
%TO.C,SW4*%
X125675000Y-80125000D02*
X133175000Y-80125000D01*
X133175000Y-80125000D02*
X133175000Y-87785000D01*
X125595000Y-87785000D02*
X133175000Y-87785000D01*
X125675000Y-80125000D02*
X125595000Y-87785000D01*
%TO.C,D4*%
X122570000Y-134130000D02*
X122570000Y-137070000D01*
X127230000Y-137070000D02*
X127230000Y-136940000D01*
X121790000Y-136940000D02*
X121790000Y-137070000D01*
X121790000Y-134130000D02*
X127230000Y-134130000D01*
X122810000Y-134130000D02*
X122810000Y-137070000D01*
X121790000Y-134260000D02*
X121790000Y-134130000D01*
X122690000Y-134130000D02*
X122690000Y-137070000D01*
X127230000Y-134130000D02*
X127230000Y-134260000D01*
X121790000Y-137070000D02*
X127230000Y-137070000D01*
%TO.C,C9*%
X116930000Y-78930000D02*
X119670000Y-78930000D01*
X116930000Y-84170000D02*
X119670000Y-84170000D01*
X119670000Y-84170000D02*
X119670000Y-78930000D01*
X116930000Y-84170000D02*
X116930000Y-78930000D01*
%TO.C,R17*%
X110330000Y-62300000D02*
X110260000Y-62300000D01*
X113070000Y-62300000D02*
G75*
G03*
X113070000Y-62300000I-1370000J0D01*
G01*
%TO.C,R15*%
X119630000Y-61900000D02*
X119560000Y-61900000D01*
X122370000Y-61900000D02*
G75*
G03*
X122370000Y-61900000I-1370000J0D01*
G01*
%TO.C,SW3*%
X106275000Y-80125000D02*
X106195000Y-87785000D01*
X106275000Y-80125000D02*
X113775000Y-80125000D01*
X113775000Y-80125000D02*
X113775000Y-87785000D01*
X106195000Y-87785000D02*
X113775000Y-87785000D01*
%TO.C,R16*%
X120275000Y-66100000D02*
X120345000Y-66100000D01*
X120275000Y-66100000D02*
G75*
G03*
X120275000Y-66100000I-1370000J0D01*
G01*
%TO.C,J1*%
X110720000Y-110400000D02*
X114500000Y-110400000D01*
X105500000Y-99900000D02*
X109200000Y-99900000D01*
X111230000Y-113550000D02*
X110370000Y-113550000D01*
X105500000Y-110400000D02*
X105500000Y-99900000D01*
X114500000Y-110400000D02*
X114500000Y-99900000D01*
X105500000Y-110400000D02*
X109280000Y-110400000D01*
X111230000Y-113550000D02*
X111230000Y-112750000D01*
X110800000Y-99900000D02*
X114500000Y-99900000D01*
X111800000Y-105900000D02*
G75*
G03*
X111800000Y-105900000I-1800000J0D01*
G01*
%TO.C,VBUS*%
X111170000Y-141900000D02*
X111170000Y-140570000D01*
X111170000Y-140570000D02*
X112500000Y-140570000D01*
X111170000Y-143170000D02*
X111170000Y-143230000D01*
X113830000Y-143170000D02*
X113830000Y-143230000D01*
X111170000Y-143230000D02*
X113830000Y-143230000D01*
X111170000Y-143170000D02*
X113830000Y-143170000D01*
%TO.C,R5*%
X117366700Y-113830000D02*
X117366700Y-113760000D01*
X118736700Y-115200000D02*
G75*
G03*
X118736700Y-115200000I-1370000J0D01*
G01*
%TO.C,C21*%
X114330000Y-97470000D02*
X114330000Y-94730000D01*
X119570000Y-97470000D02*
X119570000Y-94730000D01*
X119570000Y-97470000D02*
X114330000Y-97470000D01*
X119570000Y-94730000D02*
X114330000Y-94730000D01*
%TO.C,REF5*%
X107700000Y-132730000D02*
X106370000Y-132730000D01*
X108970000Y-132730000D02*
X134430000Y-132730000D01*
X108970000Y-130070000D02*
X134430000Y-130070000D01*
X108970000Y-132730000D02*
X108970000Y-130070000D01*
X134430000Y-132730000D02*
X134430000Y-130070000D01*
X106370000Y-132730000D02*
X106370000Y-131400000D01*
%TO.C,C3*%
X115830000Y-102480000D02*
X118570000Y-102480000D01*
X118570000Y-107720000D02*
X118570000Y-102480000D01*
X115830000Y-107720000D02*
X118570000Y-107720000D01*
X115830000Y-107720000D02*
X115830000Y-102480000D01*
%TO.C,R12*%
X116700000Y-88730000D02*
X116700000Y-88660000D01*
X118070000Y-90100000D02*
G75*
G03*
X118070000Y-90100000I-1370000J0D01*
G01*
%TO.C,TP2*%
X115903300Y-143170000D02*
X115903300Y-143230000D01*
X118563300Y-143170000D02*
X118563300Y-143230000D01*
X115903300Y-141900000D02*
X115903300Y-140570000D01*
X115903300Y-143170000D02*
X118563300Y-143170000D01*
X115903300Y-143230000D02*
X118563300Y-143230000D01*
X115903300Y-140570000D02*
X117233300Y-140570000D01*
%TO.C,C16*%
X123370000Y-87580000D02*
X123370000Y-92820000D01*
X123370000Y-87580000D02*
X120630000Y-87580000D01*
X120630000Y-87580000D02*
X120630000Y-92820000D01*
X123370000Y-92820000D02*
X120630000Y-92820000D01*
%TO.C,R6*%
X122500000Y-113730000D02*
X122500000Y-113660000D01*
X123870000Y-115100000D02*
G75*
G03*
X123870000Y-115100000I-1370000J0D01*
G01*
%TO.C,J8*%
X112320000Y-159285000D02*
X127040000Y-159285000D01*
X112320000Y-145065000D02*
X112320000Y-147045000D01*
X116680000Y-144185000D02*
X115680000Y-144185000D01*
X112320000Y-150745000D02*
X112320000Y-159285000D01*
X116180000Y-144685000D02*
X116680000Y-144185000D01*
X112320000Y-145065000D02*
X127040000Y-145065000D01*
X127040000Y-147045000D02*
X127040000Y-145065000D01*
X115680000Y-144185000D02*
X116180000Y-144685000D01*
X127040000Y-150745000D02*
X127040000Y-159285000D01*
%TO.C,GND*%
X125370000Y-141900000D02*
X125370000Y-140570000D01*
X125370000Y-140570000D02*
X126700000Y-140570000D01*
X125370000Y-143170000D02*
X128030000Y-143170000D01*
X125370000Y-143170000D02*
X125370000Y-143230000D01*
X125370000Y-143230000D02*
X128030000Y-143230000D01*
X128030000Y-143170000D02*
X128030000Y-143230000D01*
%TO.C,J4*%
X114500000Y-117300000D02*
X110720000Y-117300000D01*
X105500000Y-117300000D02*
X105500000Y-127800000D01*
X114500000Y-117300000D02*
X114500000Y-127800000D01*
X114500000Y-127800000D02*
X110800000Y-127800000D01*
X109200000Y-127800000D02*
X105500000Y-127800000D01*
X108770000Y-114150000D02*
X109630000Y-114150000D01*
X109280000Y-117300000D02*
X105500000Y-117300000D01*
X108770000Y-114150000D02*
X108770000Y-114950000D01*
X111800000Y-121800000D02*
G75*
G03*
X111800000Y-121800000I-1800000J0D01*
G01*
%TO.C,D3*%
X108080000Y-134930000D02*
X113520000Y-134930000D01*
X113520000Y-134930000D02*
X113520000Y-135060000D01*
X113520000Y-137870000D02*
X113520000Y-137740000D01*
X108080000Y-135060000D02*
X108080000Y-134930000D01*
X108080000Y-137740000D02*
X108080000Y-137870000D01*
X108860000Y-134930000D02*
X108860000Y-137870000D01*
X109100000Y-134930000D02*
X109100000Y-137870000D01*
X108980000Y-134930000D02*
X108980000Y-137870000D01*
X108080000Y-137870000D02*
X113520000Y-137870000D01*
%TO.C,D6*%
X133540000Y-156910000D02*
X133670000Y-156910000D01*
X130730000Y-155890000D02*
X133670000Y-155890000D01*
X130730000Y-156130000D02*
X133670000Y-156130000D01*
X133670000Y-156910000D02*
X133670000Y-151470000D01*
X130730000Y-156910000D02*
X130730000Y-151470000D01*
X130730000Y-151470000D02*
X130860000Y-151470000D01*
X133670000Y-151470000D02*
X133540000Y-151470000D01*
X130730000Y-156010000D02*
X133670000Y-156010000D01*
X130860000Y-156910000D02*
X130730000Y-156910000D01*
%TO.C,C10*%
X128370000Y-77070000D02*
X125630000Y-77070000D01*
X125630000Y-71830000D02*
X125630000Y-77070000D01*
X128370000Y-71830000D02*
X128370000Y-77070000D01*
X128370000Y-71830000D02*
X125630000Y-71830000D01*
%TO.C,C15*%
X110420000Y-74930000D02*
X110420000Y-77670000D01*
X105180000Y-74930000D02*
X105180000Y-77670000D01*
X105180000Y-77670000D02*
X110420000Y-77670000D01*
X105180000Y-74930000D02*
X110420000Y-74930000D01*
%TO.C,SW1*%
X108670000Y-89945000D02*
X110000000Y-89945000D01*
X108670000Y-97685000D02*
X111330000Y-97685000D01*
X108670000Y-92545000D02*
X108670000Y-97685000D01*
X111330000Y-92545000D02*
X111330000Y-97685000D01*
X108670000Y-91275000D02*
X108670000Y-89945000D01*
X108670000Y-92545000D02*
X111330000Y-92545000D01*
%TO.C,R8*%
X132800000Y-74430000D02*
X132800000Y-74360000D01*
X134170000Y-75800000D02*
G75*
G03*
X134170000Y-75800000I-1370000J0D01*
G01*
%TO.C,J2*%
X130320000Y-110370000D02*
X134100000Y-110370000D01*
X125100000Y-110370000D02*
X125100000Y-99870000D01*
X130830000Y-113520000D02*
X130830000Y-112720000D01*
X125100000Y-99870000D02*
X128800000Y-99870000D01*
X125100000Y-110370000D02*
X128880000Y-110370000D01*
X134100000Y-110370000D02*
X134100000Y-99870000D01*
X130400000Y-99870000D02*
X134100000Y-99870000D01*
X130830000Y-113520000D02*
X129970000Y-113520000D01*
X131400000Y-105870000D02*
G75*
G03*
X131400000Y-105870000I-1800000J0D01*
G01*
%TO.C,R7*%
X113600000Y-75030000D02*
X113600000Y-74960000D01*
X114970000Y-76400000D02*
G75*
G03*
X114970000Y-76400000I-1370000J0D01*
G01*
%TO.C,J5*%
X128880000Y-117300000D02*
X125100000Y-117300000D01*
X134100000Y-117300000D02*
X130320000Y-117300000D01*
X134100000Y-127800000D02*
X130400000Y-127800000D01*
X134100000Y-117300000D02*
X134100000Y-127800000D01*
X128800000Y-127800000D02*
X125100000Y-127800000D01*
X128370000Y-114150000D02*
X128370000Y-114950000D01*
X128370000Y-114150000D02*
X129230000Y-114150000D01*
X125100000Y-117300000D02*
X125100000Y-127800000D01*
X131400000Y-121800000D02*
G75*
G03*
X131400000Y-121800000I-1800000J0D01*
G01*
%TO.C,TP3*%
X120636700Y-143170000D02*
X123296700Y-143170000D01*
X120636700Y-143230000D02*
X123296700Y-143230000D01*
X120636700Y-141900000D02*
X120636700Y-140570000D01*
X120636700Y-140570000D02*
X121966700Y-140570000D01*
X123296700Y-143170000D02*
X123296700Y-143230000D01*
X120636700Y-143170000D02*
X120636700Y-143230000D01*
D13*
%TO.C,C6*%
X133129500Y-70000000D02*
X129422500Y-71000000D01*
X133129500Y-66000000D02*
X129422500Y-65000000D01*
X134885500Y-68066000D02*
G75*
G03*
X134885500Y-68066000I-42000J0D01*
G01*
D12*
%TO.C,C4*%
X121030000Y-107670000D02*
X123770000Y-107670000D01*
X121030000Y-102430000D02*
X123770000Y-102430000D01*
X121030000Y-107670000D02*
X121030000Y-102430000D01*
X123770000Y-107670000D02*
X123770000Y-102430000D01*
D13*
%TO.C,C5*%
X112929500Y-70000000D02*
X109222500Y-71000000D01*
X112929500Y-66000000D02*
X109222500Y-65000000D01*
X114685500Y-68066000D02*
G75*
G03*
X114685500Y-68066000I-42000J0D01*
G01*
D12*
%TO.C,R14*%
X122300000Y-79230000D02*
X122300000Y-79160000D01*
X123670000Y-80600000D02*
G75*
G03*
X123670000Y-80600000I-1370000J0D01*
G01*
%TO.C,D5*%
X130860000Y-144620000D02*
X130730000Y-144620000D01*
X130730000Y-139180000D02*
X130860000Y-139180000D01*
X130730000Y-143840000D02*
X133670000Y-143840000D01*
X133670000Y-139180000D02*
X133540000Y-139180000D01*
X133540000Y-144620000D02*
X133670000Y-144620000D01*
X130730000Y-143600000D02*
X133670000Y-143600000D01*
X130730000Y-143720000D02*
X133670000Y-143720000D01*
X130730000Y-144620000D02*
X130730000Y-139180000D01*
X133670000Y-144620000D02*
X133670000Y-139180000D01*
%TO.C,R21*%
X123725000Y-96100000D02*
X123795000Y-96100000D01*
X123725000Y-96100000D02*
G75*
G03*
X123725000Y-96100000I-1370000J0D01*
G01*
%TD*%
M02*
