M48
; DRILL file {KiCad (6.0.7)} date Tue Feb  7 22:19:36 2023
; FORMAT={-:-/ absolute / inch / decimal}
; #@! TF.CreationDate,2023-02-07T22:19:36+09:00
; #@! TF.GenerationSoftware,Kicad,Pcbnew,(6.0.7)
; #@! TF.FileFunction,Plated,1,2,PTH
FMAT,2
INCH
; #@! TA.AperFunction,Plated,PTH,ComponentDrill
T1C0.0315
; #@! TA.AperFunction,Plated,PTH,ComponentDrill
T2C0.0362
; #@! TA.AperFunction,Plated,PTH,ComponentDrill
T3C0.0394
; #@! TA.AperFunction,Plated,PTH,ComponentDrill
T4C0.0433
; #@! TA.AperFunction,Plated,PTH,ComponentDrill
T5C0.0480
; #@! TA.AperFunction,Plated,PTH,ComponentDrill
T6C0.0559
; #@! TA.AperFunction,Plated,PTH,ComponentDrill
T7C0.0563
; #@! TA.AperFunction,Plated,PTH,ComponentDrill
T8C0.0598
; #@! TA.AperFunction,Plated,PTH,ComponentDrill
T9C0.0602
; #@! TA.AperFunction,Plated,PTH,ComponentDrill
T10C0.0906
%
G90
G05
T1
X4.1949Y-3.0039
X4.2933Y-3.0039
X4.2976Y-2.4528
X4.3976Y-2.4528
X4.4724Y-2.9079
X4.4724Y-3.0079
X4.5551Y-3.7835
X4.5945Y-3.4472
X4.5945Y-3.5472
X4.6142Y-4.0886
X4.6142Y-4.187
X4.6207Y-4.4354
X4.6207Y-4.5354
X4.6535Y-3.7835
X4.6575Y-3.1614
X4.6575Y-3.2598
X4.6638Y-2.437
X4.6813Y-2.6024
X4.7638Y-2.437
X4.7813Y-2.6024
X4.8031Y-3.502
X4.8031Y-3.6004
X4.815Y-3.0732
X4.815Y-3.1732
X4.8171Y-3.7835
X4.8189Y-4.0866
X4.8189Y-4.185
X4.8228Y-4.4315
X4.8228Y-4.5315
X4.9171Y-3.7835
X4.9236Y-2.4724
X5.0Y-2.8819
X5.0Y-2.9803
X5.0236Y-2.4724
X5.2283Y-2.8843
X5.2283Y-2.9843
T2
X4.574Y-5.7553
X4.6724Y-5.7553
X4.7512Y-5.7553
X4.8496Y-5.7553
T3
X4.2333Y-3.2037
X4.2333Y-3.3037
X4.2333Y-3.4037
X4.2402Y-5.1732
X4.3307Y-3.5935
X4.3307Y-3.6935
X4.3307Y-3.7935
X4.3402Y-5.1732
X4.4291Y-5.5866
X4.4333Y-3.2037
X4.4333Y-3.3037
X4.4333Y-3.4037
X4.4402Y-5.1732
X4.5402Y-5.1732
X4.6155Y-5.5866
X4.6402Y-5.1732
X4.7402Y-5.1732
X4.8018Y-5.5866
X4.8402Y-5.1732
X4.9402Y-5.1732
X4.9882Y-5.5866
X4.997Y-3.2037
X4.997Y-3.3037
X4.997Y-3.4037
X5.0402Y-5.1732
X5.0984Y-3.5896
X5.0984Y-3.6896
X5.0984Y-3.7896
X5.1402Y-5.1732
X5.197Y-3.2037
X5.197Y-3.3037
X5.197Y-3.4037
X5.2402Y-5.1732
T4
X4.2122Y-5.3701
X4.5122Y-5.3701
X4.752Y-5.3386
X5.052Y-5.3386
X5.2047Y-5.4366
X5.2047Y-5.7366
X5.2047Y-5.9205
X5.2047Y-6.2205
T5
X4.3307Y-4.4244
X4.3307Y-4.5402
X5.1024Y-4.4232
X5.1024Y-4.5402
T6
X4.3307Y-4.3024
X4.3307Y-4.6622
X5.1024Y-4.3012
X5.1024Y-4.6622
T7
X4.3307Y-3.9756
X4.3307Y-4.989
X5.1024Y-3.9744
X5.1024Y-4.989
T8
X4.446Y-2.6772
X5.2413Y-2.6772
T9
X4.1951Y-2.6772
X4.9903Y-2.6772
T10
X4.4531Y-5.862
X4.9705Y-5.862
T0
M30
