%TF.GenerationSoftware,KiCad,Pcbnew,(6.0.7)*%
%TF.CreationDate,2023-02-07T22:19:33+09:00*%
%TF.ProjectId,scoppy_control,73636f70-7079-45f6-936f-6e74726f6c2e,rev?*%
%TF.SameCoordinates,Original*%
%TF.FileFunction,Copper,L1,Top*%
%TF.FilePolarity,Positive*%
%FSLAX46Y46*%
G04 Gerber Fmt 4.6, Leading zero omitted, Abs format (unit mm)*
G04 Created by KiCad (PCBNEW (6.0.7)) date 2023-02-07 22:19:33*
%MOMM*%
%LPD*%
G01*
G04 APERTURE LIST*
%TA.AperFunction,ComponentPad*%
%ADD10C,1.600000*%
%TD*%
%TA.AperFunction,ComponentPad*%
%ADD11O,1.600000X1.600000*%
%TD*%
%TA.AperFunction,ComponentPad*%
%ADD12R,1.700000X1.700000*%
%TD*%
%TA.AperFunction,ComponentPad*%
%ADD13O,1.700000X1.700000*%
%TD*%
%TA.AperFunction,ComponentPad*%
%ADD14R,2.200000X2.200000*%
%TD*%
%TA.AperFunction,ComponentPad*%
%ADD15O,2.200000X2.200000*%
%TD*%
%TA.AperFunction,ComponentPad*%
%ADD16R,1.930000X1.830000*%
%TD*%
%TA.AperFunction,ComponentPad*%
%ADD17C,2.130000*%
%TD*%
%TA.AperFunction,ComponentPad*%
%ADD18R,1.524000X1.524000*%
%TD*%
%TA.AperFunction,ComponentPad*%
%ADD19C,1.524000*%
%TD*%
%TA.AperFunction,ComponentPad*%
%ADD20C,3.500000*%
%TD*%
%TA.AperFunction,ComponentPad*%
%ADD21C,2.250000*%
%TD*%
%TA.AperFunction,ComponentPad*%
%ADD22C,2.280000*%
%TD*%
%TA.AperFunction,Conductor*%
%ADD23C,0.250000*%
%TD*%
G04 APERTURE END LIST*
D10*
%TO.P,R18,1*%
%TO.N,Net-(R13-Pad1)*%
X125060000Y-62800000D03*
D11*
%TO.P,R18,2*%
%TO.N,Net-(R18-Pad2)*%
X127600000Y-62800000D03*
%TD*%
D12*
%TO.P,SW2,1,A*%
%TO.N,Net-(C4-Pad2)*%
X129500000Y-91175000D03*
D13*
%TO.P,SW2,2,B*%
X129500000Y-93715000D03*
%TO.P,SW2,3,C*%
%TO.N,CH2*%
X129500000Y-96255000D03*
%TD*%
D12*
%TO.P,SW4,1,A*%
%TO.N,Net-(R16-Pad2)*%
X126925000Y-81375000D03*
D13*
%TO.P,SW4,2,B*%
%TO.N,GND*%
X132005000Y-81375000D03*
%TO.P,SW4,3,C*%
%TO.N,Net-(R18-Pad2)*%
X126925000Y-83915000D03*
%TO.P,SW4,4,A*%
%TO.N,GPIO4*%
X132005000Y-83915000D03*
%TO.P,SW4,5,B*%
%TO.N,Net-(R14-Pad2)*%
X126925000Y-86455000D03*
%TO.P,SW4,6,C*%
%TO.N,GPIO5*%
X132005000Y-86455000D03*
%TD*%
D14*
%TO.P,D4,1,K*%
%TO.N,Net-(C12-Pad1)*%
X120700000Y-135600000D03*
D15*
%TO.P,D4,2,A*%
%TO.N,-3V3*%
X128320000Y-135600000D03*
%TD*%
D10*
%TO.P,C9,1*%
%TO.N,GND*%
X118300000Y-82800000D03*
%TO.P,C9,2*%
%TO.N,+3V3*%
X118300000Y-80300000D03*
%TD*%
%TO.P,R17,1*%
%TO.N,Net-(R11-Pad1)*%
X111700000Y-62300000D03*
D11*
%TO.P,R17,2*%
%TO.N,Net-(R17-Pad2)*%
X109160000Y-62300000D03*
%TD*%
D10*
%TO.P,R15,1*%
%TO.N,Net-(R11-Pad1)*%
X121000000Y-61900000D03*
D11*
%TO.P,R15,2*%
%TO.N,Net-(R15-Pad2)*%
X118460000Y-61900000D03*
%TD*%
D12*
%TO.P,SW3,1,A*%
%TO.N,Net-(R15-Pad2)*%
X107525000Y-81375000D03*
D13*
%TO.P,SW3,2,B*%
%TO.N,GND*%
X112605000Y-81375000D03*
%TO.P,SW3,3,C*%
%TO.N,Net-(R17-Pad2)*%
X107525000Y-83915000D03*
%TO.P,SW3,4,A*%
%TO.N,GPIO2*%
X112605000Y-83915000D03*
%TO.P,SW3,5,B*%
%TO.N,Net-(R12-Pad2)*%
X107525000Y-86455000D03*
%TO.P,SW3,6,C*%
%TO.N,GPIO3*%
X112605000Y-86455000D03*
%TD*%
D10*
%TO.P,R16,1*%
%TO.N,Net-(R13-Pad1)*%
X118905000Y-66100000D03*
D11*
%TO.P,R16,2*%
%TO.N,Net-(R16-Pad2)*%
X121445000Y-66100000D03*
%TD*%
D16*
%TO.P,J1,S*%
%TO.N,GND*%
X110000000Y-112380000D03*
D17*
%TO.P,J1,T*%
%TO.N,CH1*%
X110000000Y-100980000D03*
%TO.P,J1,TN*%
%TO.N,N/C*%
X110000000Y-109280000D03*
%TD*%
D12*
%TO.P,VBUS,1,Pin_1*%
%TO.N,Net-(J8-Pad1)*%
X112500000Y-141900000D03*
%TD*%
D10*
%TO.P,R5,1*%
%TO.N,Net-(C3-Pad2)*%
X117366700Y-115200000D03*
D11*
%TO.P,R5,2*%
%TO.N,Net-(C12-Pad1)*%
X117366700Y-112660000D03*
%TD*%
D10*
%TO.P,C21,1*%
%TO.N,-3V3*%
X118200000Y-96100000D03*
%TO.P,C21,2*%
%TO.N,GND*%
X115700000Y-96100000D03*
%TD*%
D12*
%TO.P,REF5,1*%
%TO.N,GND*%
X107700000Y-131400000D03*
D13*
%TO.P,REF5,2*%
%TO.N,+3V3*%
X110240000Y-131400000D03*
%TO.P,REF5,3*%
%TO.N,-3V3*%
X112780000Y-131400000D03*
%TO.P,REF5,4*%
%TO.N,Net-(C12-Pad1)*%
X115320000Y-131400000D03*
%TO.P,REF5,5*%
%TO.N,Net-(C19-Pad2)*%
X117860000Y-131400000D03*
%TO.P,REF5,6*%
%TO.N,GPIO2*%
X120400000Y-131400000D03*
%TO.P,REF5,7*%
%TO.N,GPIO3*%
X122940000Y-131400000D03*
%TO.P,REF5,8*%
%TO.N,GPIO4*%
X125480000Y-131400000D03*
%TO.P,REF5,9*%
%TO.N,GPIO5*%
X128020000Y-131400000D03*
%TO.P,REF5,10*%
%TO.N,Net-(R11-Pad1)*%
X130560000Y-131400000D03*
%TO.P,REF5,11*%
%TO.N,Net-(C13-Pad1)*%
X133100000Y-131400000D03*
%TD*%
D10*
%TO.P,C3,1*%
%TO.N,CH1*%
X117200000Y-106350000D03*
%TO.P,C3,2*%
%TO.N,Net-(C3-Pad2)*%
X117200000Y-103850000D03*
%TD*%
%TO.P,R12,1*%
%TO.N,+3V3*%
X116700000Y-90100000D03*
D11*
%TO.P,R12,2*%
%TO.N,Net-(R12-Pad2)*%
X116700000Y-87560000D03*
%TD*%
D12*
%TO.P,TP2,1,Pin_1*%
%TO.N,Net-(J11-Pad1)*%
X117233300Y-141900000D03*
%TD*%
D10*
%TO.P,C16,1*%
%TO.N,GND*%
X122000000Y-88950000D03*
%TO.P,C16,2*%
%TO.N,-3V3*%
X122000000Y-91450000D03*
%TD*%
%TO.P,R6,1*%
%TO.N,Net-(C4-Pad2)*%
X122500000Y-115100000D03*
D11*
%TO.P,R6,2*%
%TO.N,Net-(C13-Pad1)*%
X122500000Y-112560000D03*
%TD*%
D18*
%TO.P,J8,1,VBUS*%
%TO.N,Net-(J8-Pad1)*%
X116180000Y-146185000D03*
D19*
%TO.P,J8,2,D-*%
%TO.N,Net-(J11-Pad1)*%
X118680000Y-146185000D03*
%TO.P,J8,3,D+*%
%TO.N,Net-(J10-Pad1)*%
X120680000Y-146185000D03*
%TO.P,J8,4,GND*%
%TO.N,Net-(J7-Pad1)*%
X123180000Y-146185000D03*
D20*
%TO.P,J8,5,Shield*%
X126250000Y-148895000D03*
X113110000Y-148895000D03*
%TD*%
D12*
%TO.P,GND,1,Pin_1*%
%TO.N,Net-(J7-Pad1)*%
X126700000Y-141900000D03*
%TD*%
D16*
%TO.P,J4,S*%
%TO.N,GND*%
X110000000Y-115320000D03*
D17*
%TO.P,J4,T*%
%TO.N,CH1*%
X110000000Y-126720000D03*
%TO.P,J4,TN*%
%TO.N,N/C*%
X110000000Y-118420000D03*
%TD*%
D14*
%TO.P,D3,1,K*%
%TO.N,+3V3*%
X106990000Y-136400000D03*
D15*
%TO.P,D3,2,A*%
%TO.N,Net-(C12-Pad1)*%
X114610000Y-136400000D03*
%TD*%
D14*
%TO.P,D6,1,K*%
%TO.N,Net-(C13-Pad1)*%
X132200000Y-158000000D03*
D15*
%TO.P,D6,2,A*%
%TO.N,-3V3*%
X132200000Y-150380000D03*
%TD*%
D10*
%TO.P,C10,1*%
%TO.N,GND*%
X127000000Y-73200000D03*
%TO.P,C10,2*%
%TO.N,+3V3*%
X127000000Y-75700000D03*
%TD*%
%TO.P,C15,1*%
%TO.N,GND*%
X106550000Y-76300000D03*
%TO.P,C15,2*%
%TO.N,-3V3*%
X109050000Y-76300000D03*
%TD*%
D12*
%TO.P,SW1,1,A*%
%TO.N,Net-(C3-Pad2)*%
X110000000Y-91275000D03*
D13*
%TO.P,SW1,2,B*%
X110000000Y-93815000D03*
%TO.P,SW1,3,C*%
%TO.N,CH1*%
X110000000Y-96355000D03*
%TD*%
D10*
%TO.P,R8,1*%
%TO.N,GND*%
X132800000Y-75800000D03*
D11*
%TO.P,R8,2*%
%TO.N,Net-(C13-Pad1)*%
X132800000Y-73260000D03*
%TD*%
D16*
%TO.P,J2,S*%
%TO.N,GND*%
X129600000Y-112350000D03*
D17*
%TO.P,J2,T*%
%TO.N,CH2*%
X129600000Y-100950000D03*
%TO.P,J2,TN*%
%TO.N,N/C*%
X129600000Y-109250000D03*
%TD*%
D10*
%TO.P,R7,1*%
%TO.N,GND*%
X113600000Y-76400000D03*
D11*
%TO.P,R7,2*%
%TO.N,Net-(C12-Pad1)*%
X113600000Y-73860000D03*
%TD*%
D16*
%TO.P,J5,S*%
%TO.N,GND*%
X129600000Y-115320000D03*
D17*
%TO.P,J5,T*%
%TO.N,CH2*%
X129600000Y-126720000D03*
%TO.P,J5,TN*%
%TO.N,N/C*%
X129600000Y-118420000D03*
%TD*%
D12*
%TO.P,TP3,1,Pin_1*%
%TO.N,Net-(J10-Pad1)*%
X121966700Y-141900000D03*
%TD*%
D21*
%TO.P,C6,1*%
%TO.N,Net-(C4-Pad2)*%
X133129500Y-68000000D03*
D22*
%TO.P,C6,2*%
%TO.N,Net-(C13-Pad1)*%
X126754500Y-68000000D03*
%TD*%
D10*
%TO.P,C4,1*%
%TO.N,CH2*%
X122400000Y-106300000D03*
%TO.P,C4,2*%
%TO.N,Net-(C4-Pad2)*%
X122400000Y-103800000D03*
%TD*%
D21*
%TO.P,C5,1*%
%TO.N,Net-(C3-Pad2)*%
X112929500Y-68000000D03*
D22*
%TO.P,C5,2*%
%TO.N,Net-(C12-Pad1)*%
X106554500Y-68000000D03*
%TD*%
D10*
%TO.P,R14,1*%
%TO.N,+3V3*%
X122300000Y-80600000D03*
D11*
%TO.P,R14,2*%
%TO.N,Net-(R14-Pad2)*%
X122300000Y-78060000D03*
%TD*%
D14*
%TO.P,D5,1,K*%
%TO.N,+3V3*%
X132200000Y-145710000D03*
D15*
%TO.P,D5,2,A*%
%TO.N,Net-(C13-Pad1)*%
X132200000Y-138090000D03*
%TD*%
D10*
%TO.P,R21,1*%
%TO.N,+3V3*%
X122355000Y-96100000D03*
D11*
%TO.P,R21,2*%
%TO.N,Net-(C19-Pad2)*%
X124895000Y-96100000D03*
%TD*%
D23*
%TO.N,Net-(C3-Pad2)*%
X117200000Y-103850000D02*
X118516200Y-105166200D01*
X110000000Y-93815000D02*
X110000000Y-91275000D01*
X118516200Y-114050500D02*
X117366700Y-115200000D01*
X110000000Y-90099900D02*
X111429400Y-88670500D01*
X111429400Y-88670500D02*
X111429400Y-69500100D01*
X110000000Y-91275000D02*
X110000000Y-90099900D01*
X111429400Y-69500100D02*
X112929500Y-68000000D01*
X118516200Y-105166200D02*
X118516200Y-114050500D01*
%TO.N,Net-(C12-Pad1)*%
X114610000Y-134974900D02*
X115320000Y-134264900D01*
X119915900Y-80316500D02*
X114584500Y-74985100D01*
X116138700Y-129406200D02*
X115320000Y-130224900D01*
X119915900Y-98785200D02*
X119915900Y-80316500D01*
X115320000Y-134264900D02*
X115320000Y-131400000D01*
X116063800Y-110232000D02*
X116063800Y-102637300D01*
X117366700Y-113785100D02*
X117151300Y-113785100D01*
X117151300Y-113785100D02*
X116138700Y-114797700D01*
X114610000Y-136400000D02*
X114610000Y-134974900D01*
X116138700Y-114797700D02*
X116138700Y-129406200D01*
X114584500Y-74985100D02*
X113600000Y-74985100D01*
X115320000Y-131400000D02*
X115320000Y-130224900D01*
X113600000Y-73860000D02*
X113600000Y-74985100D01*
X117366700Y-112660000D02*
X117366700Y-111534900D01*
X117366700Y-112660000D02*
X117366700Y-113785100D01*
X117366700Y-111534900D02*
X116063800Y-110232000D01*
X116063800Y-102637300D02*
X119915900Y-98785200D01*
%TO.N,Net-(C4-Pad2)*%
X122500000Y-115100000D02*
X121272200Y-113872200D01*
X121272200Y-104927800D02*
X122400000Y-103800000D01*
X121272200Y-113872200D02*
X121272200Y-104927800D01*
X129500000Y-93715000D02*
X129500000Y-91175000D01*
%TO.N,Net-(C13-Pad1)*%
X122500000Y-112560000D02*
X122500000Y-111434900D01*
X123625000Y-71129500D02*
X126754500Y-68000000D01*
X123625000Y-110309900D02*
X123625000Y-71129500D01*
X132200000Y-136664900D02*
X133100000Y-135764900D01*
X122500000Y-111434900D02*
X123625000Y-110309900D01*
X132200000Y-138090000D02*
X132200000Y-136664900D01*
X133100000Y-135764900D02*
X133100000Y-131400000D01*
%TO.N,GND*%
X112605000Y-80199900D02*
X113600000Y-79204900D01*
X130395000Y-76595000D02*
X132005000Y-76595000D01*
X110000000Y-115320000D02*
X110000000Y-116560100D01*
X127000000Y-73200000D02*
X130395000Y-76595000D01*
X112605000Y-81375000D02*
X112605000Y-80199900D01*
X129600000Y-115320000D02*
X129600000Y-112350000D01*
X107700000Y-131400000D02*
X107700000Y-118705100D01*
X109845000Y-116560100D02*
X110000000Y-116560100D01*
X113600000Y-79204900D02*
X113600000Y-76400000D01*
X107700000Y-118705100D02*
X109845000Y-116560100D01*
X132005000Y-76595000D02*
X132005000Y-81375000D01*
X132800000Y-75800000D02*
X132005000Y-76595000D01*
%TO.N,Net-(R17-Pad2)*%
X107525000Y-83915000D02*
X107525000Y-82739900D01*
X107525000Y-82739900D02*
X108332900Y-82739900D01*
X110216000Y-64481100D02*
X109160000Y-63425100D01*
X109160000Y-62300000D02*
X109160000Y-63425100D01*
X108332900Y-82739900D02*
X110216000Y-80856800D01*
X110216000Y-80856800D02*
X110216000Y-64481100D01*
%TO.N,GPIO4*%
X125480000Y-130224900D02*
X126655100Y-129049800D01*
X126655100Y-90074700D02*
X131639700Y-85090100D01*
X126655100Y-129049800D02*
X126655100Y-90074700D01*
X132005000Y-83915000D02*
X132005000Y-85090100D01*
X125480000Y-131400000D02*
X125480000Y-130224900D01*
X131639700Y-85090100D02*
X132005000Y-85090100D01*
%TO.N,GPIO5*%
X128093400Y-130224900D02*
X132005000Y-126313300D01*
X128020000Y-130224900D02*
X128093400Y-130224900D01*
X128020000Y-131400000D02*
X128020000Y-130224900D01*
X132005000Y-126313300D02*
X132005000Y-86455000D01*
%TO.N,-3V3*%
X118200000Y-99864400D02*
X115463500Y-102600900D01*
X115463500Y-127541400D02*
X112780000Y-130224900D01*
X115463500Y-102600900D02*
X115463500Y-127541400D01*
X118200000Y-96100000D02*
X118200000Y-99864400D01*
X112780000Y-131400000D02*
X112780000Y-130224900D01*
%TO.N,+3V3*%
X116887500Y-100501800D02*
X115013400Y-102375900D01*
X116700000Y-90100000D02*
X116887500Y-90287500D01*
X116887500Y-90287500D02*
X116887500Y-100501800D01*
X119465800Y-81465800D02*
X119465800Y-87334200D01*
X115013400Y-102375900D02*
X115013400Y-125451500D01*
X119465800Y-87334200D02*
X116700000Y-90100000D01*
X110240000Y-131400000D02*
X110240000Y-130224900D01*
X115013400Y-125451500D02*
X110240000Y-130224900D01*
X118300000Y-80300000D02*
X119465800Y-81465800D01*
%TO.N,Net-(R11-Pad1)*%
X130560000Y-131400000D02*
X130560000Y-130224900D01*
X133944500Y-72786800D02*
X126132500Y-64974800D01*
X126132500Y-64974800D02*
X124074800Y-64974800D01*
X124074800Y-64974800D02*
X121000000Y-61900000D01*
X133944500Y-126840400D02*
X133944500Y-72786800D01*
X130560000Y-130224900D02*
X133944500Y-126840400D01*
%TO.N,Net-(C19-Pad2)*%
X117860000Y-130224900D02*
X124895000Y-123189900D01*
X124895000Y-123189900D02*
X124895000Y-96100000D01*
X117860000Y-131400000D02*
X117860000Y-130224900D01*
%TO.N,CH2*%
X129500000Y-96255000D02*
X129500000Y-100850000D01*
X129500000Y-100850000D02*
X129600000Y-100950000D01*
%TO.N,CH1*%
X110000000Y-96355000D02*
X110000000Y-100980000D01*
%TO.N,Net-(J7-Pad1)*%
X126700000Y-141900000D02*
X126700000Y-148445000D01*
X126700000Y-148445000D02*
X126250000Y-148895000D01*
%TD*%
%TA.AperFunction,Conductor*%
%TO.N,GND*%
G36*
X108968841Y-60778502D02*
G01*
X109015334Y-60832158D01*
X109025438Y-60902432D01*
X108995944Y-60967012D01*
X108936218Y-61005396D01*
X108931900Y-61006407D01*
X108931913Y-61006457D01*
X108716067Y-61064293D01*
X108716065Y-61064294D01*
X108710757Y-61065716D01*
X108705776Y-61068039D01*
X108705775Y-61068039D01*
X108508238Y-61160151D01*
X108508233Y-61160154D01*
X108503251Y-61162477D01*
X108398389Y-61235902D01*
X108320211Y-61290643D01*
X108320208Y-61290645D01*
X108315700Y-61293802D01*
X108153802Y-61455700D01*
X108022477Y-61643251D01*
X108020154Y-61648233D01*
X108020151Y-61648238D01*
X108006556Y-61677393D01*
X107925716Y-61850757D01*
X107924294Y-61856065D01*
X107924293Y-61856067D01*
X107897596Y-61955700D01*
X107866457Y-62071913D01*
X107846502Y-62300000D01*
X107866457Y-62528087D01*
X107867881Y-62533400D01*
X107867881Y-62533402D01*
X107879669Y-62577393D01*
X107925716Y-62749243D01*
X107928039Y-62754224D01*
X107928039Y-62754225D01*
X108020151Y-62951762D01*
X108020154Y-62951767D01*
X108022477Y-62956749D01*
X108095902Y-63061611D01*
X108146789Y-63134284D01*
X108153802Y-63144300D01*
X108315700Y-63306198D01*
X108320208Y-63309355D01*
X108320211Y-63309357D01*
X108475418Y-63418034D01*
X108519746Y-63473491D01*
X108527383Y-63509307D01*
X108527837Y-63509235D01*
X108529078Y-63517069D01*
X108529327Y-63524989D01*
X108532441Y-63535707D01*
X108534978Y-63544439D01*
X108538987Y-63563800D01*
X108541526Y-63583897D01*
X108544445Y-63591268D01*
X108544445Y-63591270D01*
X108557804Y-63625012D01*
X108561649Y-63636242D01*
X108563990Y-63644300D01*
X108573982Y-63678693D01*
X108578015Y-63685512D01*
X108578017Y-63685517D01*
X108584293Y-63696128D01*
X108592988Y-63713876D01*
X108600448Y-63732717D01*
X108605110Y-63739133D01*
X108605110Y-63739134D01*
X108626436Y-63768487D01*
X108632952Y-63778407D01*
X108649388Y-63806198D01*
X108655458Y-63816462D01*
X108669779Y-63830783D01*
X108682619Y-63845816D01*
X108694528Y-63862207D01*
X108700634Y-63867258D01*
X108728605Y-63890398D01*
X108737384Y-63898388D01*
X109545595Y-64706599D01*
X109579621Y-64768911D01*
X109582500Y-64795694D01*
X109582500Y-74923818D01*
X109562498Y-74991939D01*
X109508842Y-75038432D01*
X109438568Y-75048536D01*
X109423895Y-75045526D01*
X109278087Y-75006457D01*
X109050000Y-74986502D01*
X108821913Y-75006457D01*
X108816600Y-75007881D01*
X108816598Y-75007881D01*
X108606067Y-75064293D01*
X108606065Y-75064294D01*
X108600757Y-75065716D01*
X108595776Y-75068039D01*
X108595775Y-75068039D01*
X108398238Y-75160151D01*
X108398233Y-75160154D01*
X108393251Y-75162477D01*
X108336080Y-75202509D01*
X108210211Y-75290643D01*
X108210208Y-75290645D01*
X108205700Y-75293802D01*
X108043802Y-75455700D01*
X108040645Y-75460208D01*
X108040643Y-75460211D01*
X107977891Y-75549831D01*
X107912477Y-75643251D01*
X107910153Y-75648235D01*
X107908829Y-75650528D01*
X107857447Y-75699521D01*
X107787733Y-75712957D01*
X107721822Y-75686571D01*
X107690591Y-75650528D01*
X107683934Y-75638998D01*
X107647491Y-75586952D01*
X107637012Y-75578576D01*
X107623566Y-75585644D01*
X106922022Y-76287188D01*
X106914408Y-76301132D01*
X106914539Y-76302965D01*
X106918790Y-76309580D01*
X107624287Y-77015077D01*
X107636062Y-77021507D01*
X107648077Y-77012211D01*
X107683934Y-76961002D01*
X107690591Y-76949472D01*
X107741973Y-76900479D01*
X107811687Y-76887042D01*
X107877598Y-76913429D01*
X107908829Y-76949472D01*
X107910153Y-76951765D01*
X107912477Y-76956749D01*
X107938241Y-76993543D01*
X107984578Y-77059719D01*
X108043802Y-77144300D01*
X108205700Y-77306198D01*
X108210208Y-77309355D01*
X108210211Y-77309357D01*
X108288389Y-77364098D01*
X108393251Y-77437523D01*
X108398233Y-77439846D01*
X108398238Y-77439849D01*
X108523110Y-77498077D01*
X108600757Y-77534284D01*
X108606065Y-77535706D01*
X108606067Y-77535707D01*
X108816598Y-77592119D01*
X108816600Y-77592119D01*
X108821913Y-77593543D01*
X109050000Y-77613498D01*
X109278087Y-77593543D01*
X109423890Y-77554475D01*
X109494865Y-77556165D01*
X109553661Y-77595959D01*
X109581609Y-77661223D01*
X109582500Y-77676182D01*
X109582500Y-80542206D01*
X109562498Y-80610327D01*
X109545595Y-80631301D01*
X109098595Y-81078301D01*
X109036283Y-81112327D01*
X108965468Y-81107262D01*
X108908632Y-81064715D01*
X108883821Y-80998195D01*
X108883500Y-80989206D01*
X108883500Y-80476866D01*
X108876745Y-80414684D01*
X108825615Y-80278295D01*
X108738261Y-80161739D01*
X108621705Y-80074385D01*
X108485316Y-80023255D01*
X108423134Y-80016500D01*
X106626866Y-80016500D01*
X106564684Y-80023255D01*
X106428295Y-80074385D01*
X106311739Y-80161739D01*
X106224385Y-80278295D01*
X106173255Y-80414684D01*
X106166500Y-80476866D01*
X106166500Y-82273134D01*
X106173255Y-82335316D01*
X106224385Y-82471705D01*
X106311739Y-82588261D01*
X106428295Y-82675615D01*
X106436704Y-82678767D01*
X106436705Y-82678768D01*
X106545451Y-82719535D01*
X106602216Y-82762176D01*
X106626916Y-82828738D01*
X106611709Y-82898087D01*
X106592316Y-82924568D01*
X106465629Y-83057138D01*
X106339743Y-83241680D01*
X106245688Y-83444305D01*
X106185989Y-83659570D01*
X106162251Y-83881695D01*
X106162548Y-83886848D01*
X106162548Y-83886851D01*
X106172284Y-84055702D01*
X106175110Y-84104715D01*
X106176247Y-84109761D01*
X106176248Y-84109767D01*
X106196119Y-84197939D01*
X106224222Y-84322639D01*
X106308266Y-84529616D01*
X106310965Y-84534020D01*
X106408579Y-84693312D01*
X106424987Y-84720088D01*
X106571250Y-84888938D01*
X106743126Y-85031632D01*
X106813595Y-85072811D01*
X106816445Y-85074476D01*
X106865169Y-85126114D01*
X106878240Y-85195897D01*
X106851509Y-85261669D01*
X106811055Y-85295027D01*
X106798607Y-85301507D01*
X106794474Y-85304610D01*
X106794471Y-85304612D01*
X106770247Y-85322800D01*
X106619965Y-85435635D01*
X106465629Y-85597138D01*
X106339743Y-85781680D01*
X106245688Y-85984305D01*
X106185989Y-86199570D01*
X106162251Y-86421695D01*
X106162548Y-86426848D01*
X106162548Y-86426851D01*
X106168011Y-86521590D01*
X106175110Y-86644715D01*
X106176247Y-86649761D01*
X106176248Y-86649767D01*
X106190229Y-86711803D01*
X106224222Y-86862639D01*
X106262461Y-86956811D01*
X106295479Y-87038124D01*
X106308266Y-87069616D01*
X106330424Y-87105775D01*
X106408579Y-87233312D01*
X106424987Y-87260088D01*
X106571250Y-87428938D01*
X106743126Y-87571632D01*
X106936000Y-87684338D01*
X106940825Y-87686180D01*
X106940826Y-87686181D01*
X107007216Y-87711533D01*
X107144692Y-87764030D01*
X107149760Y-87765061D01*
X107149763Y-87765062D01*
X107236000Y-87782607D01*
X107363597Y-87808567D01*
X107368772Y-87808757D01*
X107368774Y-87808757D01*
X107581673Y-87816564D01*
X107581677Y-87816564D01*
X107586837Y-87816753D01*
X107591957Y-87816097D01*
X107591959Y-87816097D01*
X107803288Y-87789025D01*
X107803289Y-87789025D01*
X107808416Y-87788368D01*
X107813366Y-87786883D01*
X108017429Y-87725661D01*
X108017434Y-87725659D01*
X108022384Y-87724174D01*
X108222994Y-87625896D01*
X108404860Y-87496173D01*
X108563096Y-87338489D01*
X108622594Y-87255689D01*
X108690435Y-87161277D01*
X108693453Y-87157077D01*
X108713722Y-87116067D01*
X108790136Y-86961453D01*
X108790137Y-86961451D01*
X108792430Y-86956811D01*
X108857370Y-86743069D01*
X108886529Y-86521590D01*
X108888156Y-86455000D01*
X108869852Y-86232361D01*
X108815431Y-86015702D01*
X108726354Y-85810840D01*
X108636544Y-85672015D01*
X108607822Y-85627617D01*
X108607820Y-85627614D01*
X108605014Y-85623277D01*
X108454670Y-85458051D01*
X108450619Y-85454852D01*
X108450615Y-85454848D01*
X108283414Y-85322800D01*
X108283410Y-85322798D01*
X108279359Y-85319598D01*
X108238053Y-85296796D01*
X108188084Y-85246364D01*
X108173312Y-85176921D01*
X108198428Y-85110516D01*
X108225780Y-85083909D01*
X108269603Y-85052650D01*
X108404860Y-84956173D01*
X108446257Y-84914921D01*
X108559435Y-84802137D01*
X108563096Y-84798489D01*
X108622594Y-84715689D01*
X108690435Y-84621277D01*
X108693453Y-84617077D01*
X108792430Y-84416811D01*
X108857370Y-84203069D01*
X108886529Y-83981590D01*
X108886611Y-83978240D01*
X108888074Y-83918365D01*
X108888074Y-83918361D01*
X108888156Y-83915000D01*
X108869852Y-83692361D01*
X108815431Y-83475702D01*
X108753583Y-83333462D01*
X108744763Y-83263017D01*
X108772048Y-83202906D01*
X108798198Y-83171296D01*
X108806188Y-83162516D01*
X110580805Y-81387899D01*
X110643117Y-81353873D01*
X110713932Y-81358938D01*
X110770768Y-81401485D01*
X110795579Y-81468005D01*
X110795900Y-81476994D01*
X110795900Y-88355906D01*
X110775898Y-88424027D01*
X110758995Y-88445001D01*
X110175929Y-89028066D01*
X109607747Y-89596248D01*
X109599461Y-89603788D01*
X109592982Y-89607900D01*
X109587557Y-89613677D01*
X109546357Y-89657551D01*
X109543602Y-89660393D01*
X109523865Y-89680130D01*
X109521385Y-89683327D01*
X109513682Y-89692347D01*
X109483414Y-89724579D01*
X109479595Y-89731525D01*
X109479593Y-89731528D01*
X109473652Y-89742334D01*
X109462801Y-89758853D01*
X109450386Y-89774859D01*
X109447241Y-89782128D01*
X109447238Y-89782132D01*
X109432826Y-89815437D01*
X109427609Y-89826087D01*
X109413803Y-89851201D01*
X109363460Y-89901259D01*
X109303389Y-89916500D01*
X109101866Y-89916500D01*
X109039684Y-89923255D01*
X108903295Y-89974385D01*
X108786739Y-90061739D01*
X108699385Y-90178295D01*
X108648255Y-90314684D01*
X108641500Y-90376866D01*
X108641500Y-92173134D01*
X108648255Y-92235316D01*
X108699385Y-92371705D01*
X108786739Y-92488261D01*
X108903295Y-92575615D01*
X108911704Y-92578767D01*
X108911705Y-92578768D01*
X109020451Y-92619535D01*
X109077216Y-92662176D01*
X109101916Y-92728738D01*
X109086709Y-92798087D01*
X109067316Y-92824568D01*
X108940629Y-92957138D01*
X108814743Y-93141680D01*
X108720688Y-93344305D01*
X108660989Y-93559570D01*
X108637251Y-93781695D01*
X108637548Y-93786848D01*
X108637548Y-93786851D01*
X108643011Y-93881590D01*
X108650110Y-94004715D01*
X108651247Y-94009761D01*
X108651248Y-94009767D01*
X108671119Y-94097939D01*
X108699222Y-94222639D01*
X108783266Y-94429616D01*
X108785965Y-94434020D01*
X108888987Y-94602137D01*
X108899987Y-94620088D01*
X109046250Y-94788938D01*
X109192692Y-94910516D01*
X109211480Y-94926114D01*
X109218126Y-94931632D01*
X109239870Y-94944338D01*
X109291445Y-94974476D01*
X109340169Y-95026114D01*
X109353240Y-95095897D01*
X109326509Y-95161669D01*
X109286055Y-95195027D01*
X109273607Y-95201507D01*
X109269474Y-95204610D01*
X109269471Y-95204612D01*
X109099100Y-95332530D01*
X109094965Y-95335635D01*
X108940629Y-95497138D01*
X108814743Y-95681680D01*
X108799003Y-95715590D01*
X108723856Y-95877481D01*
X108720688Y-95884305D01*
X108660989Y-96099570D01*
X108637251Y-96321695D01*
X108637548Y-96326848D01*
X108637548Y-96326851D01*
X108643011Y-96421590D01*
X108650110Y-96544715D01*
X108651247Y-96549761D01*
X108651248Y-96549767D01*
X108652214Y-96554053D01*
X108699222Y-96762639D01*
X108737461Y-96856811D01*
X108771155Y-96939789D01*
X108783266Y-96969616D01*
X108785965Y-96974020D01*
X108888987Y-97142137D01*
X108899987Y-97160088D01*
X109046250Y-97328938D01*
X109218126Y-97471632D01*
X109222593Y-97474242D01*
X109304070Y-97521853D01*
X109352794Y-97573491D01*
X109366500Y-97630641D01*
X109366500Y-99455070D01*
X109346498Y-99523191D01*
X109292011Y-99568723D01*
X109292420Y-99569525D01*
X109288912Y-99571312D01*
X109288709Y-99571482D01*
X109288015Y-99571769D01*
X109288007Y-99571773D01*
X109283437Y-99573666D01*
X109072260Y-99703075D01*
X108883927Y-99863927D01*
X108723075Y-100052260D01*
X108593666Y-100263437D01*
X108591773Y-100268007D01*
X108591771Y-100268011D01*
X108511311Y-100462258D01*
X108498885Y-100492258D01*
X108497730Y-100497070D01*
X108442221Y-100728276D01*
X108442220Y-100728282D01*
X108441066Y-100733089D01*
X108421634Y-100980000D01*
X108441066Y-101226911D01*
X108442220Y-101231718D01*
X108442221Y-101231724D01*
X108447188Y-101252412D01*
X108498885Y-101467742D01*
X108500778Y-101472313D01*
X108500779Y-101472315D01*
X108582988Y-101670783D01*
X108593666Y-101696563D01*
X108723075Y-101907740D01*
X108883927Y-102096073D01*
X109072260Y-102256925D01*
X109283437Y-102386334D01*
X109288007Y-102388227D01*
X109288011Y-102388229D01*
X109442620Y-102452270D01*
X109512258Y-102481115D01*
X109597170Y-102501501D01*
X109748276Y-102537779D01*
X109748282Y-102537780D01*
X109753089Y-102538934D01*
X110000000Y-102558366D01*
X110246911Y-102538934D01*
X110251718Y-102537780D01*
X110251724Y-102537779D01*
X110402830Y-102501501D01*
X110487742Y-102481115D01*
X110557380Y-102452270D01*
X110711989Y-102388229D01*
X110711993Y-102388227D01*
X110716563Y-102386334D01*
X110927740Y-102256925D01*
X111116073Y-102096073D01*
X111276925Y-101907740D01*
X111406334Y-101696563D01*
X111417013Y-101670783D01*
X111499221Y-101472315D01*
X111499222Y-101472313D01*
X111501115Y-101467742D01*
X111552812Y-101252412D01*
X111557779Y-101231724D01*
X111557780Y-101231718D01*
X111558934Y-101226911D01*
X111578366Y-100980000D01*
X111558934Y-100733089D01*
X111557780Y-100728282D01*
X111557779Y-100728276D01*
X111502270Y-100497070D01*
X111501115Y-100492258D01*
X111488689Y-100462258D01*
X111408229Y-100268011D01*
X111408227Y-100268007D01*
X111406334Y-100263437D01*
X111276925Y-100052260D01*
X111116073Y-99863927D01*
X110927740Y-99703075D01*
X110716563Y-99573666D01*
X110711993Y-99571773D01*
X110711985Y-99571769D01*
X110711291Y-99571482D01*
X110711067Y-99571302D01*
X110707580Y-99569525D01*
X110707953Y-99568793D01*
X110656006Y-99526938D01*
X110633500Y-99455070D01*
X110633500Y-97635427D01*
X110653502Y-97567306D01*
X110694618Y-97527550D01*
X110697994Y-97525896D01*
X110879860Y-97396173D01*
X110907804Y-97368327D01*
X111034435Y-97242137D01*
X111038096Y-97238489D01*
X111042587Y-97232240D01*
X111165435Y-97061277D01*
X111168453Y-97057077D01*
X111172363Y-97049167D01*
X111265136Y-96861453D01*
X111265137Y-96861451D01*
X111267430Y-96856811D01*
X111332370Y-96643069D01*
X111361529Y-96421590D01*
X111363156Y-96355000D01*
X111344852Y-96132361D01*
X111338099Y-96105475D01*
X114387483Y-96105475D01*
X114406472Y-96322519D01*
X114408375Y-96333312D01*
X114464764Y-96543761D01*
X114468510Y-96554053D01*
X114560586Y-96751511D01*
X114566069Y-96761006D01*
X114602509Y-96813048D01*
X114612988Y-96821424D01*
X114626434Y-96814356D01*
X115327978Y-96112812D01*
X115335592Y-96098868D01*
X115335461Y-96097035D01*
X115331210Y-96090420D01*
X114625713Y-95384923D01*
X114613938Y-95378493D01*
X114601923Y-95387789D01*
X114566069Y-95438994D01*
X114560586Y-95448489D01*
X114468510Y-95645947D01*
X114464764Y-95656239D01*
X114408375Y-95866688D01*
X114406472Y-95877481D01*
X114387483Y-96094525D01*
X114387483Y-96105475D01*
X111338099Y-96105475D01*
X111290431Y-95915702D01*
X111201354Y-95710840D01*
X111117797Y-95581680D01*
X111082822Y-95527617D01*
X111082820Y-95527614D01*
X111080014Y-95523277D01*
X110929670Y-95358051D01*
X110925619Y-95354852D01*
X110925615Y-95354848D01*
X110758414Y-95222800D01*
X110758410Y-95222798D01*
X110754359Y-95219598D01*
X110713053Y-95196796D01*
X110663084Y-95146364D01*
X110648312Y-95076921D01*
X110673428Y-95010516D01*
X110700780Y-94983909D01*
X110744603Y-94952650D01*
X110879860Y-94856173D01*
X110884246Y-94851803D01*
X111034435Y-94702137D01*
X111038096Y-94698489D01*
X111042587Y-94692240D01*
X111165435Y-94521277D01*
X111168453Y-94517077D01*
X111220169Y-94412438D01*
X111265136Y-94321453D01*
X111265137Y-94321451D01*
X111267430Y-94316811D01*
X111332370Y-94103069D01*
X111361529Y-93881590D01*
X111363156Y-93815000D01*
X111344852Y-93592361D01*
X111290431Y-93375702D01*
X111201354Y-93170840D01*
X111117797Y-93041680D01*
X111082822Y-92987617D01*
X111082820Y-92987614D01*
X111080014Y-92983277D01*
X111076532Y-92979450D01*
X110932798Y-92821488D01*
X110901746Y-92757642D01*
X110910141Y-92687143D01*
X110955317Y-92632375D01*
X110981761Y-92618706D01*
X111088297Y-92578767D01*
X111096705Y-92575615D01*
X111213261Y-92488261D01*
X111300615Y-92371705D01*
X111351745Y-92235316D01*
X111358500Y-92173134D01*
X111358500Y-90376866D01*
X111351745Y-90314684D01*
X111300615Y-90178295D01*
X111213261Y-90061739D01*
X111169965Y-90029290D01*
X111127450Y-89972433D01*
X111122424Y-89901614D01*
X111156435Y-89839369D01*
X111821658Y-89174147D01*
X111829937Y-89166613D01*
X111836418Y-89162500D01*
X111883044Y-89112848D01*
X111885798Y-89110007D01*
X111905535Y-89090270D01*
X111908015Y-89087073D01*
X111915720Y-89078051D01*
X111940559Y-89051600D01*
X111945986Y-89045821D01*
X111949805Y-89038875D01*
X111949807Y-89038872D01*
X111955748Y-89028066D01*
X111966599Y-89011547D01*
X111974158Y-89001801D01*
X111979014Y-88995541D01*
X111982159Y-88988272D01*
X111982162Y-88988268D01*
X111996574Y-88954963D01*
X112001791Y-88944313D01*
X112023095Y-88905560D01*
X112028133Y-88885937D01*
X112034537Y-88867234D01*
X112039433Y-88855920D01*
X112039433Y-88855919D01*
X112042581Y-88848645D01*
X112043820Y-88840822D01*
X112043823Y-88840812D01*
X112049499Y-88804976D01*
X112051905Y-88793356D01*
X112060928Y-88758211D01*
X112060928Y-88758210D01*
X112062900Y-88750530D01*
X112062900Y-88730276D01*
X112064451Y-88710565D01*
X112066380Y-88698386D01*
X112067620Y-88690557D01*
X112063459Y-88646538D01*
X112062900Y-88634681D01*
X112062900Y-87884400D01*
X112082902Y-87816279D01*
X112136558Y-87769786D01*
X112206832Y-87759682D01*
X112221740Y-87762903D01*
X112224692Y-87764030D01*
X112229762Y-87765061D01*
X112229767Y-87765063D01*
X112362726Y-87792113D01*
X112443597Y-87808567D01*
X112448772Y-87808757D01*
X112448774Y-87808757D01*
X112661673Y-87816564D01*
X112661677Y-87816564D01*
X112666837Y-87816753D01*
X112671957Y-87816097D01*
X112671959Y-87816097D01*
X112883288Y-87789025D01*
X112883289Y-87789025D01*
X112888416Y-87788368D01*
X112893366Y-87786883D01*
X113097429Y-87725661D01*
X113097434Y-87725659D01*
X113102384Y-87724174D01*
X113302994Y-87625896D01*
X113484860Y-87496173D01*
X113643096Y-87338489D01*
X113702594Y-87255689D01*
X113770435Y-87161277D01*
X113773453Y-87157077D01*
X113793722Y-87116067D01*
X113870136Y-86961453D01*
X113870137Y-86961451D01*
X113872430Y-86956811D01*
X113937370Y-86743069D01*
X113966529Y-86521590D01*
X113968156Y-86455000D01*
X113949852Y-86232361D01*
X113895431Y-86015702D01*
X113806354Y-85810840D01*
X113716544Y-85672015D01*
X113687822Y-85627617D01*
X113687820Y-85627614D01*
X113685014Y-85623277D01*
X113534670Y-85458051D01*
X113530619Y-85454852D01*
X113530615Y-85454848D01*
X113363414Y-85322800D01*
X113363410Y-85322798D01*
X113359359Y-85319598D01*
X113318053Y-85296796D01*
X113268084Y-85246364D01*
X113253312Y-85176921D01*
X113278428Y-85110516D01*
X113305780Y-85083909D01*
X113349603Y-85052650D01*
X113484860Y-84956173D01*
X113526257Y-84914921D01*
X113639435Y-84802137D01*
X113643096Y-84798489D01*
X113702594Y-84715689D01*
X113770435Y-84621277D01*
X113773453Y-84617077D01*
X113872430Y-84416811D01*
X113937370Y-84203069D01*
X113966529Y-83981590D01*
X113966611Y-83978240D01*
X113968074Y-83918365D01*
X113968074Y-83918361D01*
X113968156Y-83915000D01*
X113949852Y-83692361D01*
X113895431Y-83475702D01*
X113806354Y-83270840D01*
X113716544Y-83132015D01*
X113687822Y-83087617D01*
X113687820Y-83087614D01*
X113685014Y-83083277D01*
X113534670Y-82918051D01*
X113530619Y-82914852D01*
X113530615Y-82914848D01*
X113392125Y-82805475D01*
X116987483Y-82805475D01*
X117006472Y-83022519D01*
X117008375Y-83033312D01*
X117064764Y-83243761D01*
X117068510Y-83254053D01*
X117160586Y-83451511D01*
X117166069Y-83461006D01*
X117202509Y-83513048D01*
X117212988Y-83521424D01*
X117226434Y-83514356D01*
X117927978Y-82812812D01*
X117935592Y-82798868D01*
X117935461Y-82797035D01*
X117931210Y-82790420D01*
X117225713Y-82084923D01*
X117213938Y-82078493D01*
X117201923Y-82087789D01*
X117166069Y-82138994D01*
X117160586Y-82148489D01*
X117068510Y-82345947D01*
X117064764Y-82356239D01*
X117008375Y-82566688D01*
X117006472Y-82577481D01*
X116987483Y-82794525D01*
X116987483Y-82805475D01*
X113392125Y-82805475D01*
X113363414Y-82782800D01*
X113363410Y-82782798D01*
X113359359Y-82779598D01*
X113317569Y-82756529D01*
X113267598Y-82706097D01*
X113252826Y-82636654D01*
X113277942Y-82570248D01*
X113305294Y-82543641D01*
X113480328Y-82418792D01*
X113488200Y-82412139D01*
X113639052Y-82261812D01*
X113645730Y-82253965D01*
X113770003Y-82081020D01*
X113775313Y-82072183D01*
X113869670Y-81881267D01*
X113873469Y-81871672D01*
X113935377Y-81667910D01*
X113937555Y-81657837D01*
X113938986Y-81646962D01*
X113936775Y-81632778D01*
X113923617Y-81629000D01*
X112477000Y-81629000D01*
X112408879Y-81608998D01*
X112362386Y-81555342D01*
X112351000Y-81503000D01*
X112351000Y-81102885D01*
X112859000Y-81102885D01*
X112863475Y-81118124D01*
X112864865Y-81119329D01*
X112872548Y-81121000D01*
X113923344Y-81121000D01*
X113936875Y-81117027D01*
X113938180Y-81107947D01*
X113896214Y-80940875D01*
X113892894Y-80931124D01*
X113807972Y-80735814D01*
X113803105Y-80726739D01*
X113687426Y-80547926D01*
X113681136Y-80539757D01*
X113537806Y-80382240D01*
X113530273Y-80375215D01*
X113363139Y-80243222D01*
X113354552Y-80237517D01*
X113168117Y-80134599D01*
X113158705Y-80130369D01*
X112957959Y-80059280D01*
X112947988Y-80056646D01*
X112876837Y-80043972D01*
X112863540Y-80045432D01*
X112859000Y-80059989D01*
X112859000Y-81102885D01*
X112351000Y-81102885D01*
X112351000Y-80058102D01*
X112347082Y-80044758D01*
X112332806Y-80042771D01*
X112294324Y-80048660D01*
X112284288Y-80051051D01*
X112228045Y-80069434D01*
X112157081Y-80071585D01*
X112096219Y-80035029D01*
X112064783Y-79971371D01*
X112062900Y-79949669D01*
X112062900Y-77486062D01*
X112878493Y-77486062D01*
X112887789Y-77498077D01*
X112938994Y-77533931D01*
X112948489Y-77539414D01*
X113145947Y-77631490D01*
X113156239Y-77635236D01*
X113366688Y-77691625D01*
X113377481Y-77693528D01*
X113594525Y-77712517D01*
X113605475Y-77712517D01*
X113822519Y-77693528D01*
X113833312Y-77691625D01*
X114043761Y-77635236D01*
X114054053Y-77631490D01*
X114251511Y-77539414D01*
X114261006Y-77533931D01*
X114313048Y-77497491D01*
X114321424Y-77487012D01*
X114314356Y-77473566D01*
X113612812Y-76772022D01*
X113598868Y-76764408D01*
X113597035Y-76764539D01*
X113590420Y-76768790D01*
X112884923Y-77474287D01*
X112878493Y-77486062D01*
X112062900Y-77486062D01*
X112062900Y-76674254D01*
X112082902Y-76606133D01*
X112136558Y-76559640D01*
X112206832Y-76549536D01*
X112271412Y-76579030D01*
X112310607Y-76641643D01*
X112364764Y-76843761D01*
X112368510Y-76854053D01*
X112460586Y-77051511D01*
X112466069Y-77061006D01*
X112502509Y-77113048D01*
X112512988Y-77121424D01*
X112526434Y-77114356D01*
X113227978Y-76412812D01*
X113235592Y-76398868D01*
X113235461Y-76397035D01*
X113231210Y-76390420D01*
X112525713Y-75684923D01*
X112513938Y-75678493D01*
X112501923Y-75687789D01*
X112466069Y-75738994D01*
X112460586Y-75748489D01*
X112368510Y-75945947D01*
X112364764Y-75956239D01*
X112310607Y-76158357D01*
X112273655Y-76218980D01*
X112209795Y-76250001D01*
X112139300Y-76241573D01*
X112084553Y-76196370D01*
X112062900Y-76125746D01*
X112062900Y-74136186D01*
X112082902Y-74068065D01*
X112136558Y-74021572D01*
X112206832Y-74011468D01*
X112271412Y-74040962D01*
X112310607Y-74103575D01*
X112359505Y-74286062D01*
X112365716Y-74309243D01*
X112368039Y-74314224D01*
X112368039Y-74314225D01*
X112460151Y-74511762D01*
X112460154Y-74511767D01*
X112462477Y-74516749D01*
X112593802Y-74704300D01*
X112755700Y-74866198D01*
X112760208Y-74869355D01*
X112760211Y-74869357D01*
X112917406Y-74979426D01*
X112961734Y-75034883D01*
X112970886Y-75074727D01*
X112971708Y-75087789D01*
X112972775Y-75104750D01*
X112975225Y-75112291D01*
X112975321Y-75112587D01*
X112980494Y-75135731D01*
X112980775Y-75137954D01*
X112980775Y-75137959D01*
X112981526Y-75143900D01*
X112980568Y-75144021D01*
X112978371Y-75208053D01*
X112937961Y-75266427D01*
X112931034Y-75271642D01*
X112886952Y-75302509D01*
X112878576Y-75312988D01*
X112885644Y-75326434D01*
X114674287Y-77115077D01*
X114686062Y-77121507D01*
X114698077Y-77112211D01*
X114733931Y-77061006D01*
X114739414Y-77051511D01*
X114831490Y-76854053D01*
X114835236Y-76843761D01*
X114891625Y-76633312D01*
X114893528Y-76622520D01*
X114904772Y-76494005D01*
X114930636Y-76427887D01*
X114988139Y-76386248D01*
X115059026Y-76382307D01*
X115119388Y-76415892D01*
X117668691Y-78965195D01*
X117702717Y-79027507D01*
X117697652Y-79098322D01*
X117655105Y-79155158D01*
X117645839Y-79161270D01*
X117643251Y-79162477D01*
X117638742Y-79165634D01*
X117638739Y-79165636D01*
X117460211Y-79290643D01*
X117460208Y-79290645D01*
X117455700Y-79293802D01*
X117293802Y-79455700D01*
X117290645Y-79460208D01*
X117290643Y-79460211D01*
X117286846Y-79465634D01*
X117162477Y-79643251D01*
X117160154Y-79648233D01*
X117160151Y-79648238D01*
X117068039Y-79845775D01*
X117065716Y-79850757D01*
X117064294Y-79856065D01*
X117064293Y-79856067D01*
X117013543Y-80045468D01*
X117006457Y-80071913D01*
X116986502Y-80300000D01*
X117006457Y-80528087D01*
X117007881Y-80533400D01*
X117007881Y-80533402D01*
X117024225Y-80594396D01*
X117065716Y-80749243D01*
X117068039Y-80754224D01*
X117068039Y-80754225D01*
X117160151Y-80951762D01*
X117160154Y-80951767D01*
X117162477Y-80956749D01*
X117165634Y-80961257D01*
X117274354Y-81116525D01*
X117293802Y-81144300D01*
X117455700Y-81306198D01*
X117460208Y-81309355D01*
X117460211Y-81309357D01*
X117531020Y-81358938D01*
X117643251Y-81437523D01*
X117648235Y-81439847D01*
X117650528Y-81441171D01*
X117699521Y-81492553D01*
X117712957Y-81562267D01*
X117686571Y-81628178D01*
X117650528Y-81659409D01*
X117638998Y-81666066D01*
X117586952Y-81702509D01*
X117578576Y-81712988D01*
X117585644Y-81726434D01*
X118570115Y-82710905D01*
X118604141Y-82773217D01*
X118599076Y-82844032D01*
X118570115Y-82889095D01*
X117584923Y-83874287D01*
X117578493Y-83886062D01*
X117587789Y-83898077D01*
X117638994Y-83933931D01*
X117648489Y-83939414D01*
X117845947Y-84031490D01*
X117856239Y-84035236D01*
X118066688Y-84091625D01*
X118077481Y-84093528D01*
X118294525Y-84112517D01*
X118305475Y-84112517D01*
X118522519Y-84093528D01*
X118533313Y-84091625D01*
X118673689Y-84054012D01*
X118744666Y-84055702D01*
X118803461Y-84095496D01*
X118831409Y-84160761D01*
X118832300Y-84175719D01*
X118832300Y-87019606D01*
X118812298Y-87087727D01*
X118795395Y-87108701D01*
X118226589Y-87677507D01*
X118164277Y-87711533D01*
X118093462Y-87706468D01*
X118036626Y-87663921D01*
X118011815Y-87597401D01*
X118011974Y-87577430D01*
X118013019Y-87565486D01*
X118013019Y-87565475D01*
X118013498Y-87560000D01*
X117993543Y-87331913D01*
X117992119Y-87326598D01*
X117935707Y-87116067D01*
X117935706Y-87116065D01*
X117934284Y-87110757D01*
X117923545Y-87087727D01*
X117839849Y-86908238D01*
X117839846Y-86908233D01*
X117837523Y-86903251D01*
X117706198Y-86715700D01*
X117544300Y-86553802D01*
X117539792Y-86550645D01*
X117539789Y-86550643D01*
X117408002Y-86458365D01*
X117356749Y-86422477D01*
X117351767Y-86420154D01*
X117351762Y-86420151D01*
X117154225Y-86328039D01*
X117154224Y-86328039D01*
X117149243Y-86325716D01*
X117143935Y-86324294D01*
X117143933Y-86324293D01*
X116933402Y-86267881D01*
X116933400Y-86267881D01*
X116928087Y-86266457D01*
X116700000Y-86246502D01*
X116471913Y-86266457D01*
X116466600Y-86267881D01*
X116466598Y-86267881D01*
X116256067Y-86324293D01*
X116256065Y-86324294D01*
X116250757Y-86325716D01*
X116245776Y-86328039D01*
X116245775Y-86328039D01*
X116048238Y-86420151D01*
X116048233Y-86420154D01*
X116043251Y-86422477D01*
X115991998Y-86458365D01*
X115860211Y-86550643D01*
X115860208Y-86550645D01*
X115855700Y-86553802D01*
X115693802Y-86715700D01*
X115562477Y-86903251D01*
X115560154Y-86908233D01*
X115560151Y-86908238D01*
X115476455Y-87087727D01*
X115465716Y-87110757D01*
X115464294Y-87116065D01*
X115464293Y-87116067D01*
X115407881Y-87326598D01*
X115406457Y-87331913D01*
X115386502Y-87560000D01*
X115406457Y-87788087D01*
X115407881Y-87793400D01*
X115407881Y-87793402D01*
X115438763Y-87908652D01*
X115465716Y-88009243D01*
X115468039Y-88014224D01*
X115468039Y-88014225D01*
X115560151Y-88211762D01*
X115560154Y-88211767D01*
X115562477Y-88216749D01*
X115613064Y-88288994D01*
X115689027Y-88397480D01*
X115693802Y-88404300D01*
X115855700Y-88566198D01*
X115860208Y-88569355D01*
X115860211Y-88569357D01*
X115938389Y-88624098D01*
X116043251Y-88697523D01*
X116048233Y-88699846D01*
X116048238Y-88699849D01*
X116082457Y-88715805D01*
X116135742Y-88762722D01*
X116155203Y-88830999D01*
X116134661Y-88898959D01*
X116082457Y-88944195D01*
X116048238Y-88960151D01*
X116048233Y-88960154D01*
X116043251Y-88962477D01*
X115938389Y-89035902D01*
X115860211Y-89090643D01*
X115860208Y-89090645D01*
X115855700Y-89093802D01*
X115693802Y-89255700D01*
X115562477Y-89443251D01*
X115560154Y-89448233D01*
X115560151Y-89448238D01*
X115468039Y-89645775D01*
X115465716Y-89650757D01*
X115464294Y-89656065D01*
X115464293Y-89656067D01*
X115413048Y-89847316D01*
X115406457Y-89871913D01*
X115386502Y-90100000D01*
X115406457Y-90328087D01*
X115407881Y-90333400D01*
X115407881Y-90333402D01*
X115436617Y-90440643D01*
X115465716Y-90549243D01*
X115468039Y-90554224D01*
X115468039Y-90554225D01*
X115560151Y-90751762D01*
X115560154Y-90751767D01*
X115562477Y-90756749D01*
X115565634Y-90761257D01*
X115660191Y-90896298D01*
X115693802Y-90944300D01*
X115855700Y-91106198D01*
X115860208Y-91109355D01*
X115860211Y-91109357D01*
X115866224Y-91113567D01*
X116043251Y-91237523D01*
X116048233Y-91239846D01*
X116048238Y-91239849D01*
X116181250Y-91301873D01*
X116234535Y-91348790D01*
X116254000Y-91416068D01*
X116254000Y-94730096D01*
X116233998Y-94798217D01*
X116180342Y-94844710D01*
X116110068Y-94854814D01*
X116095389Y-94851803D01*
X115933312Y-94808375D01*
X115922519Y-94806472D01*
X115705475Y-94787483D01*
X115694525Y-94787483D01*
X115477481Y-94806472D01*
X115466688Y-94808375D01*
X115256239Y-94864764D01*
X115245947Y-94868510D01*
X115048489Y-94960586D01*
X115038994Y-94966069D01*
X114986952Y-95002509D01*
X114978576Y-95012988D01*
X114985644Y-95026434D01*
X115970115Y-96010905D01*
X116004141Y-96073217D01*
X115999076Y-96144032D01*
X115970115Y-96189095D01*
X114984923Y-97174287D01*
X114978493Y-97186062D01*
X114987789Y-97198077D01*
X115038994Y-97233931D01*
X115048489Y-97239414D01*
X115245947Y-97331490D01*
X115256239Y-97335236D01*
X115466688Y-97391625D01*
X115477481Y-97393528D01*
X115694525Y-97412517D01*
X115705475Y-97412517D01*
X115922519Y-97393528D01*
X115933312Y-97391625D01*
X116095389Y-97348197D01*
X116166365Y-97349887D01*
X116225161Y-97389681D01*
X116253109Y-97454945D01*
X116254000Y-97469904D01*
X116254000Y-100187206D01*
X116233998Y-100255327D01*
X116217095Y-100276301D01*
X114621147Y-101872248D01*
X114612861Y-101879788D01*
X114606382Y-101883900D01*
X114600957Y-101889677D01*
X114559757Y-101933551D01*
X114557002Y-101936393D01*
X114537265Y-101956130D01*
X114534785Y-101959327D01*
X114527082Y-101968347D01*
X114496814Y-102000579D01*
X114492995Y-102007525D01*
X114492993Y-102007528D01*
X114487052Y-102018334D01*
X114476201Y-102034853D01*
X114463786Y-102050859D01*
X114460641Y-102058128D01*
X114460638Y-102058132D01*
X114446226Y-102091437D01*
X114441009Y-102102087D01*
X114419705Y-102140840D01*
X114417734Y-102148515D01*
X114417734Y-102148516D01*
X114414667Y-102160462D01*
X114408263Y-102179166D01*
X114400219Y-102197755D01*
X114398980Y-102205578D01*
X114398977Y-102205588D01*
X114393301Y-102241424D01*
X114390895Y-102253044D01*
X114379900Y-102295870D01*
X114379900Y-102316124D01*
X114378349Y-102335834D01*
X114375180Y-102355843D01*
X114375926Y-102363735D01*
X114379341Y-102399861D01*
X114379900Y-102411719D01*
X114379900Y-125136906D01*
X114359898Y-125205027D01*
X114342995Y-125226001D01*
X109847747Y-129721248D01*
X109839461Y-129728788D01*
X109832982Y-129732900D01*
X109827557Y-129738677D01*
X109786357Y-129782551D01*
X109783602Y-129785393D01*
X109763865Y-129805130D01*
X109761385Y-129808327D01*
X109753682Y-129817347D01*
X109723414Y-129849579D01*
X109719595Y-129856525D01*
X109719593Y-129856528D01*
X109713652Y-129867334D01*
X109702801Y-129883853D01*
X109690386Y-129899859D01*
X109687241Y-129907128D01*
X109687238Y-129907132D01*
X109672826Y-129940437D01*
X109667609Y-129951087D01*
X109646305Y-129989840D01*
X109644334Y-129997515D01*
X109644334Y-129997516D01*
X109641267Y-130009462D01*
X109634863Y-130028166D01*
X109626819Y-130046755D01*
X109625580Y-130054578D01*
X109625577Y-130054588D01*
X109619901Y-130090424D01*
X109617495Y-130102044D01*
X109606606Y-130144456D01*
X109606500Y-130144869D01*
X109604888Y-130144455D01*
X109580260Y-130200926D01*
X109541817Y-130231822D01*
X109513607Y-130246507D01*
X109509465Y-130249617D01*
X109368333Y-130355582D01*
X109334965Y-130380635D01*
X109331393Y-130384373D01*
X109253898Y-130465466D01*
X109192374Y-130500895D01*
X109121462Y-130497438D01*
X109063676Y-130456192D01*
X109044823Y-130422644D01*
X109003324Y-130311946D01*
X108994786Y-130296351D01*
X108918285Y-130194276D01*
X108905724Y-130181715D01*
X108803649Y-130105214D01*
X108788054Y-130096676D01*
X108667606Y-130051522D01*
X108652351Y-130047895D01*
X108601486Y-130042369D01*
X108594672Y-130042000D01*
X107972115Y-130042000D01*
X107956876Y-130046475D01*
X107955671Y-130047865D01*
X107954000Y-130055548D01*
X107954000Y-132739884D01*
X107958475Y-132755123D01*
X107959865Y-132756328D01*
X107967548Y-132757999D01*
X108594669Y-132757999D01*
X108601490Y-132757629D01*
X108652352Y-132752105D01*
X108667604Y-132748479D01*
X108788054Y-132703324D01*
X108803649Y-132694786D01*
X108905724Y-132618285D01*
X108918285Y-132605724D01*
X108994786Y-132503649D01*
X109003324Y-132488054D01*
X109044225Y-132378952D01*
X109086867Y-132322188D01*
X109153428Y-132297488D01*
X109222777Y-132312696D01*
X109257444Y-132340684D01*
X109282865Y-132370031D01*
X109282869Y-132370035D01*
X109286250Y-132373938D01*
X109458126Y-132516632D01*
X109651000Y-132629338D01*
X109859692Y-132709030D01*
X109864760Y-132710061D01*
X109864763Y-132710062D01*
X109972017Y-132731883D01*
X110078597Y-132753567D01*
X110083772Y-132753757D01*
X110083774Y-132753757D01*
X110296673Y-132761564D01*
X110296677Y-132761564D01*
X110301837Y-132761753D01*
X110306957Y-132761097D01*
X110306959Y-132761097D01*
X110518288Y-132734025D01*
X110518289Y-132734025D01*
X110523416Y-132733368D01*
X110528366Y-132731883D01*
X110732429Y-132670661D01*
X110732434Y-132670659D01*
X110737384Y-132669174D01*
X110937994Y-132570896D01*
X111119860Y-132441173D01*
X111278096Y-132283489D01*
X111408453Y-132102077D01*
X111409776Y-132103028D01*
X111456645Y-132059857D01*
X111526580Y-132047625D01*
X111592026Y-132075144D01*
X111619875Y-132106994D01*
X111679987Y-132205088D01*
X111826250Y-132373938D01*
X111998126Y-132516632D01*
X112191000Y-132629338D01*
X112399692Y-132709030D01*
X112404760Y-132710061D01*
X112404763Y-132710062D01*
X112512017Y-132731883D01*
X112618597Y-132753567D01*
X112623772Y-132753757D01*
X112623774Y-132753757D01*
X112836673Y-132761564D01*
X112836677Y-132761564D01*
X112841837Y-132761753D01*
X112846957Y-132761097D01*
X112846959Y-132761097D01*
X113058288Y-132734025D01*
X113058289Y-132734025D01*
X113063416Y-132733368D01*
X113068366Y-132731883D01*
X113272429Y-132670661D01*
X113272434Y-132670659D01*
X113277384Y-132669174D01*
X113477994Y-132570896D01*
X113659860Y-132441173D01*
X113818096Y-132283489D01*
X113948453Y-132102077D01*
X113949776Y-132103028D01*
X113996645Y-132059857D01*
X114066580Y-132047625D01*
X114132026Y-132075144D01*
X114159875Y-132106994D01*
X114219987Y-132205088D01*
X114366250Y-132373938D01*
X114538126Y-132516632D01*
X114542593Y-132519242D01*
X114624070Y-132566853D01*
X114672794Y-132618491D01*
X114686500Y-132675641D01*
X114686500Y-133950305D01*
X114666498Y-134018426D01*
X114649595Y-134039401D01*
X114427292Y-134261703D01*
X114217742Y-134471253D01*
X114209463Y-134478787D01*
X114202982Y-134482900D01*
X114156357Y-134532551D01*
X114153602Y-134535393D01*
X114133865Y-134555130D01*
X114131385Y-134558327D01*
X114123682Y-134567347D01*
X114093414Y-134599579D01*
X114089595Y-134606525D01*
X114089593Y-134606528D01*
X114083652Y-134617334D01*
X114072801Y-134633853D01*
X114060386Y-134649859D01*
X114057241Y-134657128D01*
X114057238Y-134657132D01*
X114042826Y-134690437D01*
X114037609Y-134701087D01*
X114016305Y-134739840D01*
X114014334Y-134747515D01*
X114014334Y-134747516D01*
X114011267Y-134759462D01*
X114004863Y-134778166D01*
X113996819Y-134796755D01*
X113995580Y-134804578D01*
X113995577Y-134804588D01*
X113989901Y-134840424D01*
X113987496Y-134852039D01*
X113984543Y-134863543D01*
X113948232Y-134924551D01*
X113910718Y-134948624D01*
X113882072Y-134960489D01*
X113882068Y-134960491D01*
X113877498Y-134962384D01*
X113661624Y-135094672D01*
X113469102Y-135259102D01*
X113304672Y-135451624D01*
X113172384Y-135667498D01*
X113170491Y-135672068D01*
X113170489Y-135672072D01*
X113095794Y-135852403D01*
X113075495Y-135901409D01*
X113074340Y-135906221D01*
X113018162Y-136140221D01*
X113016391Y-136147597D01*
X112996526Y-136400000D01*
X113016391Y-136652403D01*
X113017545Y-136657210D01*
X113017546Y-136657216D01*
X113038407Y-136744106D01*
X113075495Y-136898591D01*
X113077388Y-136903162D01*
X113077389Y-136903164D01*
X113095089Y-136945894D01*
X113172384Y-137132502D01*
X113304672Y-137348376D01*
X113469102Y-137540898D01*
X113661624Y-137705328D01*
X113877498Y-137837616D01*
X113882068Y-137839509D01*
X113882072Y-137839511D01*
X113952401Y-137868642D01*
X114111409Y-137934505D01*
X114178513Y-137950615D01*
X114352784Y-137992454D01*
X114352790Y-137992455D01*
X114357597Y-137993609D01*
X114610000Y-138013474D01*
X114862403Y-137993609D01*
X114867210Y-137992455D01*
X114867216Y-137992454D01*
X115041487Y-137950615D01*
X115108591Y-137934505D01*
X115267599Y-137868642D01*
X115337928Y-137839511D01*
X115337932Y-137839509D01*
X115342502Y-137837616D01*
X115558376Y-137705328D01*
X115750898Y-137540898D01*
X115915328Y-137348376D01*
X116047616Y-137132502D01*
X116124912Y-136945894D01*
X116142611Y-136903164D01*
X116142612Y-136903162D01*
X116144505Y-136898591D01*
X116180626Y-136748134D01*
X119091500Y-136748134D01*
X119098255Y-136810316D01*
X119149385Y-136946705D01*
X119236739Y-137063261D01*
X119353295Y-137150615D01*
X119489684Y-137201745D01*
X119551866Y-137208500D01*
X121848134Y-137208500D01*
X121910316Y-137201745D01*
X122046705Y-137150615D01*
X122163261Y-137063261D01*
X122250615Y-136946705D01*
X122301745Y-136810316D01*
X122308500Y-136748134D01*
X122308500Y-135600000D01*
X126706526Y-135600000D01*
X126726391Y-135852403D01*
X126785495Y-136098591D01*
X126787388Y-136103162D01*
X126787389Y-136103164D01*
X126875556Y-136316017D01*
X126882384Y-136332502D01*
X127014672Y-136548376D01*
X127179102Y-136740898D01*
X127371624Y-136905328D01*
X127587498Y-137037616D01*
X127592068Y-137039509D01*
X127592072Y-137039511D01*
X127816573Y-137132502D01*
X127821409Y-137134505D01*
X127868615Y-137145838D01*
X128062784Y-137192454D01*
X128062790Y-137192455D01*
X128067597Y-137193609D01*
X128320000Y-137213474D01*
X128572403Y-137193609D01*
X128577210Y-137192455D01*
X128577216Y-137192454D01*
X128771385Y-137145838D01*
X128818591Y-137134505D01*
X128823427Y-137132502D01*
X129047928Y-137039511D01*
X129047932Y-137039509D01*
X129052502Y-137037616D01*
X129268376Y-136905328D01*
X129460898Y-136740898D01*
X129625328Y-136548376D01*
X129757616Y-136332502D01*
X129764445Y-136316017D01*
X129852611Y-136103164D01*
X129852612Y-136103162D01*
X129854505Y-136098591D01*
X129913609Y-135852403D01*
X129933474Y-135600000D01*
X129913609Y-135347597D01*
X129892364Y-135259102D01*
X129855660Y-135106221D01*
X129854505Y-135101409D01*
X129852611Y-135096836D01*
X129759511Y-134872072D01*
X129759509Y-134872068D01*
X129757616Y-134867498D01*
X129625328Y-134651624D01*
X129460898Y-134459102D01*
X129268376Y-134294672D01*
X129052502Y-134162384D01*
X129047932Y-134160491D01*
X129047928Y-134160489D01*
X128823164Y-134067389D01*
X128823162Y-134067388D01*
X128818591Y-134065495D01*
X128709901Y-134039401D01*
X128577216Y-134007546D01*
X128577210Y-134007545D01*
X128572403Y-134006391D01*
X128320000Y-133986526D01*
X128067597Y-134006391D01*
X128062790Y-134007545D01*
X128062784Y-134007546D01*
X127930099Y-134039401D01*
X127821409Y-134065495D01*
X127816838Y-134067388D01*
X127816836Y-134067389D01*
X127592072Y-134160489D01*
X127592068Y-134160491D01*
X127587498Y-134162384D01*
X127371624Y-134294672D01*
X127179102Y-134459102D01*
X127014672Y-134651624D01*
X126882384Y-134867498D01*
X126880491Y-134872068D01*
X126880489Y-134872072D01*
X126787389Y-135096836D01*
X126785495Y-135101409D01*
X126784340Y-135106221D01*
X126747637Y-135259102D01*
X126726391Y-135347597D01*
X126706526Y-135600000D01*
X122308500Y-135600000D01*
X122308500Y-134451866D01*
X122301745Y-134389684D01*
X122250615Y-134253295D01*
X122163261Y-134136739D01*
X122046705Y-134049385D01*
X121910316Y-133998255D01*
X121848134Y-133991500D01*
X119551866Y-133991500D01*
X119489684Y-133998255D01*
X119353295Y-134049385D01*
X119236739Y-134136739D01*
X119149385Y-134253295D01*
X119098255Y-134389684D01*
X119091500Y-134451866D01*
X119091500Y-136748134D01*
X116180626Y-136748134D01*
X116181593Y-136744106D01*
X116202454Y-136657216D01*
X116202455Y-136657210D01*
X116203609Y-136652403D01*
X116223474Y-136400000D01*
X116203609Y-136147597D01*
X116201839Y-136140221D01*
X116145660Y-135906221D01*
X116144505Y-135901409D01*
X116124206Y-135852403D01*
X116049511Y-135672072D01*
X116049509Y-135672068D01*
X116047616Y-135667498D01*
X115915328Y-135451624D01*
X115750898Y-135259102D01*
X115569123Y-135103851D01*
X115530314Y-135044400D01*
X115529808Y-134973406D01*
X115561859Y-134918945D01*
X115712247Y-134768557D01*
X115720537Y-134761013D01*
X115727018Y-134756900D01*
X115773659Y-134707232D01*
X115776413Y-134704391D01*
X115796135Y-134684669D01*
X115798612Y-134681476D01*
X115806317Y-134672455D01*
X115825878Y-134651624D01*
X115836586Y-134640221D01*
X115840407Y-134633271D01*
X115846346Y-134622468D01*
X115857202Y-134605941D01*
X115864757Y-134596202D01*
X115864758Y-134596200D01*
X115869614Y-134589940D01*
X115887174Y-134549360D01*
X115892391Y-134538712D01*
X115909875Y-134506909D01*
X115909876Y-134506907D01*
X115913695Y-134499960D01*
X115918733Y-134480337D01*
X115925137Y-134461634D01*
X115930033Y-134450320D01*
X115930033Y-134450319D01*
X115933181Y-134443045D01*
X115934420Y-134435222D01*
X115934423Y-134435212D01*
X115940099Y-134399376D01*
X115942505Y-134387756D01*
X115951528Y-134352611D01*
X115951528Y-134352610D01*
X115953500Y-134344930D01*
X115953500Y-134324676D01*
X115955051Y-134304965D01*
X115956980Y-134292786D01*
X115958220Y-134284957D01*
X115954059Y-134240938D01*
X115953500Y-134229081D01*
X115953500Y-132680427D01*
X115973502Y-132612306D01*
X116014618Y-132572550D01*
X116017994Y-132570896D01*
X116199860Y-132441173D01*
X116358096Y-132283489D01*
X116488453Y-132102077D01*
X116489776Y-132103028D01*
X116536645Y-132059857D01*
X116606580Y-132047625D01*
X116672026Y-132075144D01*
X116699875Y-132106994D01*
X116759987Y-132205088D01*
X116906250Y-132373938D01*
X117078126Y-132516632D01*
X117271000Y-132629338D01*
X117479692Y-132709030D01*
X117484760Y-132710061D01*
X117484763Y-132710062D01*
X117592017Y-132731883D01*
X117698597Y-132753567D01*
X117703772Y-132753757D01*
X117703774Y-132753757D01*
X117916673Y-132761564D01*
X117916677Y-132761564D01*
X117921837Y-132761753D01*
X117926957Y-132761097D01*
X117926959Y-132761097D01*
X118138288Y-132734025D01*
X118138289Y-132734025D01*
X118143416Y-132733368D01*
X118148366Y-132731883D01*
X118352429Y-132670661D01*
X118352434Y-132670659D01*
X118357384Y-132669174D01*
X118557994Y-132570896D01*
X118739860Y-132441173D01*
X118898096Y-132283489D01*
X119028453Y-132102077D01*
X119029776Y-132103028D01*
X119076645Y-132059857D01*
X119146580Y-132047625D01*
X119212026Y-132075144D01*
X119239875Y-132106994D01*
X119299987Y-132205088D01*
X119446250Y-132373938D01*
X119618126Y-132516632D01*
X119811000Y-132629338D01*
X120019692Y-132709030D01*
X120024760Y-132710061D01*
X120024763Y-132710062D01*
X120132017Y-132731883D01*
X120238597Y-132753567D01*
X120243772Y-132753757D01*
X120243774Y-132753757D01*
X120456673Y-132761564D01*
X120456677Y-132761564D01*
X120461837Y-132761753D01*
X120466957Y-132761097D01*
X120466959Y-132761097D01*
X120678288Y-132734025D01*
X120678289Y-132734025D01*
X120683416Y-132733368D01*
X120688366Y-132731883D01*
X120892429Y-132670661D01*
X120892434Y-132670659D01*
X120897384Y-132669174D01*
X121097994Y-132570896D01*
X121279860Y-132441173D01*
X121438096Y-132283489D01*
X121568453Y-132102077D01*
X121569776Y-132103028D01*
X121616645Y-132059857D01*
X121686580Y-132047625D01*
X121752026Y-132075144D01*
X121779875Y-132106994D01*
X121839987Y-132205088D01*
X121986250Y-132373938D01*
X122158126Y-132516632D01*
X122351000Y-132629338D01*
X122559692Y-132709030D01*
X122564760Y-132710061D01*
X122564763Y-132710062D01*
X122672017Y-132731883D01*
X122778597Y-132753567D01*
X122783772Y-132753757D01*
X122783774Y-132753757D01*
X122996673Y-132761564D01*
X122996677Y-132761564D01*
X123001837Y-132761753D01*
X123006957Y-132761097D01*
X123006959Y-132761097D01*
X123218288Y-132734025D01*
X123218289Y-132734025D01*
X123223416Y-132733368D01*
X123228366Y-132731883D01*
X123432429Y-132670661D01*
X123432434Y-132670659D01*
X123437384Y-132669174D01*
X123637994Y-132570896D01*
X123819860Y-132441173D01*
X123978096Y-132283489D01*
X124108453Y-132102077D01*
X124109776Y-132103028D01*
X124156645Y-132059857D01*
X124226580Y-132047625D01*
X124292026Y-132075144D01*
X124319875Y-132106994D01*
X124379987Y-132205088D01*
X124526250Y-132373938D01*
X124698126Y-132516632D01*
X124891000Y-132629338D01*
X125099692Y-132709030D01*
X125104760Y-132710061D01*
X125104763Y-132710062D01*
X125212017Y-132731883D01*
X125318597Y-132753567D01*
X125323772Y-132753757D01*
X125323774Y-132753757D01*
X125536673Y-132761564D01*
X125536677Y-132761564D01*
X125541837Y-132761753D01*
X125546957Y-132761097D01*
X125546959Y-132761097D01*
X125758288Y-132734025D01*
X125758289Y-132734025D01*
X125763416Y-132733368D01*
X125768366Y-132731883D01*
X125972429Y-132670661D01*
X125972434Y-132670659D01*
X125977384Y-132669174D01*
X126177994Y-132570896D01*
X126359860Y-132441173D01*
X126518096Y-132283489D01*
X126648453Y-132102077D01*
X126649776Y-132103028D01*
X126696645Y-132059857D01*
X126766580Y-132047625D01*
X126832026Y-132075144D01*
X126859875Y-132106994D01*
X126919987Y-132205088D01*
X127066250Y-132373938D01*
X127238126Y-132516632D01*
X127431000Y-132629338D01*
X127639692Y-132709030D01*
X127644760Y-132710061D01*
X127644763Y-132710062D01*
X127752017Y-132731883D01*
X127858597Y-132753567D01*
X127863772Y-132753757D01*
X127863774Y-132753757D01*
X128076673Y-132761564D01*
X128076677Y-132761564D01*
X128081837Y-132761753D01*
X128086957Y-132761097D01*
X128086959Y-132761097D01*
X128298288Y-132734025D01*
X128298289Y-132734025D01*
X128303416Y-132733368D01*
X128308366Y-132731883D01*
X128512429Y-132670661D01*
X128512434Y-132670659D01*
X128517384Y-132669174D01*
X128717994Y-132570896D01*
X128899860Y-132441173D01*
X129058096Y-132283489D01*
X129188453Y-132102077D01*
X129189776Y-132103028D01*
X129236645Y-132059857D01*
X129306580Y-132047625D01*
X129372026Y-132075144D01*
X129399875Y-132106994D01*
X129459987Y-132205088D01*
X129606250Y-132373938D01*
X129778126Y-132516632D01*
X129971000Y-132629338D01*
X130179692Y-132709030D01*
X130184760Y-132710061D01*
X130184763Y-132710062D01*
X130292017Y-132731883D01*
X130398597Y-132753567D01*
X130403772Y-132753757D01*
X130403774Y-132753757D01*
X130616673Y-132761564D01*
X130616677Y-132761564D01*
X130621837Y-132761753D01*
X130626957Y-132761097D01*
X130626959Y-132761097D01*
X130838288Y-132734025D01*
X130838289Y-132734025D01*
X130843416Y-132733368D01*
X130848366Y-132731883D01*
X131052429Y-132670661D01*
X131052434Y-132670659D01*
X131057384Y-132669174D01*
X131257994Y-132570896D01*
X131439860Y-132441173D01*
X131598096Y-132283489D01*
X131728453Y-132102077D01*
X131729776Y-132103028D01*
X131776645Y-132059857D01*
X131846580Y-132047625D01*
X131912026Y-132075144D01*
X131939875Y-132106994D01*
X131999987Y-132205088D01*
X132146250Y-132373938D01*
X132318126Y-132516632D01*
X132322593Y-132519242D01*
X132404070Y-132566853D01*
X132452794Y-132618491D01*
X132466500Y-132675641D01*
X132466500Y-135450305D01*
X132446498Y-135518426D01*
X132429595Y-135539400D01*
X131807747Y-136161248D01*
X131799461Y-136168788D01*
X131792982Y-136172900D01*
X131787557Y-136178677D01*
X131746357Y-136222551D01*
X131743602Y-136225393D01*
X131723865Y-136245130D01*
X131721385Y-136248327D01*
X131713682Y-136257347D01*
X131683414Y-136289579D01*
X131679595Y-136296525D01*
X131679593Y-136296528D01*
X131673652Y-136307334D01*
X131662801Y-136323853D01*
X131650386Y-136339859D01*
X131647241Y-136347128D01*
X131647238Y-136347132D01*
X131632826Y-136380437D01*
X131627609Y-136391087D01*
X131606305Y-136429840D01*
X131604334Y-136437515D01*
X131604334Y-136437516D01*
X131601267Y-136449462D01*
X131594863Y-136468166D01*
X131586819Y-136486755D01*
X131585580Y-136494578D01*
X131585577Y-136494588D01*
X131579901Y-136530424D01*
X131577496Y-136542039D01*
X131574543Y-136553543D01*
X131538232Y-136614551D01*
X131500718Y-136638624D01*
X131472072Y-136650489D01*
X131472068Y-136650491D01*
X131467498Y-136652384D01*
X131251624Y-136784672D01*
X131059102Y-136949102D01*
X130894672Y-137141624D01*
X130762384Y-137357498D01*
X130760491Y-137362068D01*
X130760489Y-137362072D01*
X130684835Y-137544717D01*
X130665495Y-137591409D01*
X130606391Y-137837597D01*
X130586526Y-138090000D01*
X130606391Y-138342403D01*
X130665495Y-138588591D01*
X130762384Y-138822502D01*
X130894672Y-139038376D01*
X131059102Y-139230898D01*
X131251624Y-139395328D01*
X131467498Y-139527616D01*
X131472068Y-139529509D01*
X131472072Y-139529511D01*
X131696836Y-139622611D01*
X131701409Y-139624505D01*
X131786032Y-139644821D01*
X131942784Y-139682454D01*
X131942790Y-139682455D01*
X131947597Y-139683609D01*
X132200000Y-139703474D01*
X132452403Y-139683609D01*
X132457210Y-139682455D01*
X132457216Y-139682454D01*
X132613968Y-139644821D01*
X132698591Y-139624505D01*
X132703164Y-139622611D01*
X132927928Y-139529511D01*
X132927932Y-139529509D01*
X132932502Y-139527616D01*
X133148376Y-139395328D01*
X133340898Y-139230898D01*
X133505328Y-139038376D01*
X133637616Y-138822502D01*
X133734505Y-138588591D01*
X133793609Y-138342403D01*
X133813474Y-138090000D01*
X133793609Y-137837597D01*
X133734505Y-137591409D01*
X133715165Y-137544717D01*
X133639511Y-137362072D01*
X133639509Y-137362068D01*
X133637616Y-137357498D01*
X133505328Y-137141624D01*
X133340898Y-136949102D01*
X133159123Y-136793851D01*
X133120314Y-136734400D01*
X133119808Y-136663406D01*
X133151859Y-136608945D01*
X133492247Y-136268557D01*
X133500537Y-136261013D01*
X133507018Y-136256900D01*
X133553659Y-136207232D01*
X133556413Y-136204391D01*
X133576134Y-136184670D01*
X133578612Y-136181475D01*
X133586318Y-136172453D01*
X133611158Y-136146001D01*
X133616586Y-136140221D01*
X133626346Y-136122468D01*
X133637199Y-136105945D01*
X133644753Y-136096206D01*
X133649613Y-136089941D01*
X133667176Y-136049357D01*
X133672383Y-136038727D01*
X133693695Y-135999960D01*
X133695666Y-135992283D01*
X133695668Y-135992278D01*
X133698732Y-135980342D01*
X133705138Y-135961630D01*
X133710033Y-135950319D01*
X133713181Y-135943045D01*
X133714421Y-135935217D01*
X133714423Y-135935210D01*
X133720099Y-135899376D01*
X133722505Y-135887756D01*
X133731528Y-135852611D01*
X133731528Y-135852610D01*
X133733500Y-135844930D01*
X133733500Y-135824676D01*
X133735051Y-135804965D01*
X133736980Y-135792786D01*
X133738220Y-135784957D01*
X133734059Y-135740938D01*
X133733500Y-135729081D01*
X133733500Y-132680427D01*
X133753502Y-132612306D01*
X133794618Y-132572550D01*
X133797994Y-132570896D01*
X133979860Y-132441173D01*
X134138096Y-132283489D01*
X134263178Y-132109419D01*
X134319172Y-132065771D01*
X134389875Y-132059325D01*
X134452839Y-132092128D01*
X134488074Y-132153764D01*
X134491500Y-132182945D01*
X134491500Y-159615500D01*
X134471498Y-159683621D01*
X134417842Y-159730114D01*
X134365500Y-159741500D01*
X133670226Y-159741500D01*
X133602105Y-159721498D01*
X133555612Y-159667842D01*
X133545508Y-159597568D01*
X133575002Y-159532988D01*
X133594661Y-159514674D01*
X133656080Y-159468643D01*
X133656081Y-159468642D01*
X133663261Y-159463261D01*
X133750615Y-159346705D01*
X133801745Y-159210316D01*
X133808500Y-159148134D01*
X133808500Y-156851866D01*
X133801745Y-156789684D01*
X133750615Y-156653295D01*
X133663261Y-156536739D01*
X133546705Y-156449385D01*
X133410316Y-156398255D01*
X133348134Y-156391500D01*
X131051866Y-156391500D01*
X130989684Y-156398255D01*
X130853295Y-156449385D01*
X130736739Y-156536739D01*
X130649385Y-156653295D01*
X130598255Y-156789684D01*
X130591500Y-156851866D01*
X130591500Y-159148134D01*
X130598255Y-159210316D01*
X130649385Y-159346705D01*
X130736739Y-159463261D01*
X130743919Y-159468642D01*
X130743920Y-159468643D01*
X130805339Y-159514674D01*
X130847854Y-159571533D01*
X130852880Y-159642352D01*
X130818820Y-159704645D01*
X130756489Y-159738635D01*
X130729774Y-159741500D01*
X105234500Y-159741500D01*
X105166379Y-159721498D01*
X105119886Y-159667842D01*
X105108500Y-159615500D01*
X105108500Y-148895000D01*
X110846654Y-148895000D01*
X110846924Y-148899119D01*
X110858641Y-149077883D01*
X110866017Y-149190426D01*
X110866819Y-149194459D01*
X110866820Y-149194465D01*
X110914833Y-149435838D01*
X110923776Y-149480797D01*
X111018941Y-149761145D01*
X111149885Y-150026673D01*
X111314367Y-150272838D01*
X111317081Y-150275932D01*
X111317085Y-150275938D01*
X111404022Y-150375070D01*
X111509573Y-150495427D01*
X111512662Y-150498136D01*
X111729062Y-150687915D01*
X111729068Y-150687919D01*
X111732162Y-150690633D01*
X111735588Y-150692922D01*
X111735593Y-150692926D01*
X111919405Y-150815744D01*
X111978327Y-150855115D01*
X111982026Y-150856939D01*
X111982031Y-150856942D01*
X112118313Y-150924148D01*
X112243855Y-150986059D01*
X112247760Y-150987384D01*
X112247761Y-150987385D01*
X112520290Y-151079896D01*
X112520294Y-151079897D01*
X112524203Y-151081224D01*
X112528247Y-151082028D01*
X112528253Y-151082030D01*
X112810535Y-151138180D01*
X112810541Y-151138181D01*
X112814574Y-151138983D01*
X112818679Y-151139252D01*
X112818686Y-151139253D01*
X113105881Y-151158076D01*
X113110000Y-151158346D01*
X113114119Y-151158076D01*
X113401314Y-151139253D01*
X113401321Y-151139252D01*
X113405426Y-151138983D01*
X113409459Y-151138181D01*
X113409465Y-151138180D01*
X113691747Y-151082030D01*
X113691753Y-151082028D01*
X113695797Y-151081224D01*
X113699706Y-151079897D01*
X113699710Y-151079896D01*
X113972239Y-150987385D01*
X113972240Y-150987384D01*
X113976145Y-150986059D01*
X114101687Y-150924148D01*
X114237969Y-150856942D01*
X114237974Y-150856939D01*
X114241673Y-150855115D01*
X114300595Y-150815744D01*
X114484407Y-150692926D01*
X114484412Y-150692922D01*
X114487838Y-150690633D01*
X114490932Y-150687919D01*
X114490938Y-150687915D01*
X114707338Y-150498136D01*
X114710427Y-150495427D01*
X114815978Y-150375070D01*
X114902915Y-150275938D01*
X114902919Y-150275932D01*
X114905633Y-150272838D01*
X115070115Y-150026673D01*
X115201059Y-149761145D01*
X115296224Y-149480797D01*
X115305167Y-149435838D01*
X115353180Y-149194465D01*
X115353181Y-149194459D01*
X115353983Y-149190426D01*
X115361360Y-149077883D01*
X115373076Y-148899119D01*
X115373346Y-148895000D01*
X123986654Y-148895000D01*
X123986924Y-148899119D01*
X123998641Y-149077883D01*
X124006017Y-149190426D01*
X124006819Y-149194459D01*
X124006820Y-149194465D01*
X124054833Y-149435838D01*
X124063776Y-149480797D01*
X124158941Y-149761145D01*
X124289885Y-150026673D01*
X124454367Y-150272838D01*
X124457081Y-150275932D01*
X124457085Y-150275938D01*
X124544022Y-150375070D01*
X124649573Y-150495427D01*
X124652662Y-150498136D01*
X124869062Y-150687915D01*
X124869068Y-150687919D01*
X124872162Y-150690633D01*
X124875588Y-150692922D01*
X124875593Y-150692926D01*
X125059405Y-150815744D01*
X125118327Y-150855115D01*
X125122026Y-150856939D01*
X125122031Y-150856942D01*
X125258313Y-150924148D01*
X125383855Y-150986059D01*
X125387760Y-150987384D01*
X125387761Y-150987385D01*
X125660290Y-151079896D01*
X125660294Y-151079897D01*
X125664203Y-151081224D01*
X125668247Y-151082028D01*
X125668253Y-151082030D01*
X125950535Y-151138180D01*
X125950541Y-151138181D01*
X125954574Y-151138983D01*
X125958679Y-151139252D01*
X125958686Y-151139253D01*
X126245881Y-151158076D01*
X126250000Y-151158346D01*
X126254119Y-151158076D01*
X126541314Y-151139253D01*
X126541321Y-151139252D01*
X126545426Y-151138983D01*
X126549459Y-151138181D01*
X126549465Y-151138180D01*
X126831747Y-151082030D01*
X126831753Y-151082028D01*
X126835797Y-151081224D01*
X126839706Y-151079897D01*
X126839710Y-151079896D01*
X127112239Y-150987385D01*
X127112240Y-150987384D01*
X127116145Y-150986059D01*
X127241687Y-150924148D01*
X127377969Y-150856942D01*
X127377974Y-150856939D01*
X127381673Y-150855115D01*
X127440595Y-150815744D01*
X127624407Y-150692926D01*
X127624412Y-150692922D01*
X127627838Y-150690633D01*
X127630932Y-150687919D01*
X127630938Y-150687915D01*
X127847338Y-150498136D01*
X127850427Y-150495427D01*
X127951654Y-150380000D01*
X130586526Y-150380000D01*
X130606391Y-150632403D01*
X130607545Y-150637210D01*
X130607546Y-150637216D01*
X130620921Y-150692926D01*
X130665495Y-150878591D01*
X130667388Y-150883162D01*
X130667389Y-150883164D01*
X130710010Y-150986059D01*
X130762384Y-151112502D01*
X130894672Y-151328376D01*
X131059102Y-151520898D01*
X131251624Y-151685328D01*
X131467498Y-151817616D01*
X131472068Y-151819509D01*
X131472072Y-151819511D01*
X131696836Y-151912611D01*
X131701409Y-151914505D01*
X131786032Y-151934821D01*
X131942784Y-151972454D01*
X131942790Y-151972455D01*
X131947597Y-151973609D01*
X132200000Y-151993474D01*
X132452403Y-151973609D01*
X132457210Y-151972455D01*
X132457216Y-151972454D01*
X132613968Y-151934821D01*
X132698591Y-151914505D01*
X132703164Y-151912611D01*
X132927928Y-151819511D01*
X132927932Y-151819509D01*
X132932502Y-151817616D01*
X133148376Y-151685328D01*
X133340898Y-151520898D01*
X133505328Y-151328376D01*
X133637616Y-151112502D01*
X133689991Y-150986059D01*
X133732611Y-150883164D01*
X133732612Y-150883162D01*
X133734505Y-150878591D01*
X133779079Y-150692926D01*
X133792454Y-150637216D01*
X133792455Y-150637210D01*
X133793609Y-150632403D01*
X133813474Y-150380000D01*
X133793609Y-150127597D01*
X133734505Y-149881409D01*
X133637616Y-149647498D01*
X133505328Y-149431624D01*
X133340898Y-149239102D01*
X133148376Y-149074672D01*
X132932502Y-148942384D01*
X132927932Y-148940491D01*
X132927928Y-148940489D01*
X132703164Y-148847389D01*
X132703162Y-148847388D01*
X132698591Y-148845495D01*
X132613968Y-148825179D01*
X132457216Y-148787546D01*
X132457210Y-148787545D01*
X132452403Y-148786391D01*
X132200000Y-148766526D01*
X131947597Y-148786391D01*
X131942790Y-148787545D01*
X131942784Y-148787546D01*
X131786032Y-148825179D01*
X131701409Y-148845495D01*
X131696838Y-148847388D01*
X131696836Y-148847389D01*
X131472072Y-148940489D01*
X131472068Y-148940491D01*
X131467498Y-148942384D01*
X131251624Y-149074672D01*
X131059102Y-149239102D01*
X130894672Y-149431624D01*
X130762384Y-149647498D01*
X130665495Y-149881409D01*
X130606391Y-150127597D01*
X130586526Y-150380000D01*
X127951654Y-150380000D01*
X127955978Y-150375070D01*
X128042915Y-150275938D01*
X128042919Y-150275932D01*
X128045633Y-150272838D01*
X128210115Y-150026673D01*
X128341059Y-149761145D01*
X128436224Y-149480797D01*
X128445167Y-149435838D01*
X128493180Y-149194465D01*
X128493181Y-149194459D01*
X128493983Y-149190426D01*
X128501360Y-149077883D01*
X128513076Y-148899119D01*
X128513346Y-148895000D01*
X128506303Y-148787546D01*
X128494253Y-148603686D01*
X128494252Y-148603679D01*
X128493983Y-148599574D01*
X128436224Y-148309203D01*
X128341059Y-148028855D01*
X128210115Y-147763327D01*
X128045633Y-147517162D01*
X128042919Y-147514068D01*
X128042915Y-147514062D01*
X127853136Y-147297662D01*
X127850427Y-147294573D01*
X127815300Y-147263767D01*
X127630938Y-147102085D01*
X127630932Y-147102081D01*
X127627838Y-147099367D01*
X127624412Y-147097078D01*
X127624407Y-147097074D01*
X127389498Y-146940113D01*
X127343970Y-146885636D01*
X127338244Y-146858134D01*
X130591500Y-146858134D01*
X130598255Y-146920316D01*
X130649385Y-147056705D01*
X130736739Y-147173261D01*
X130853295Y-147260615D01*
X130989684Y-147311745D01*
X131051866Y-147318500D01*
X133348134Y-147318500D01*
X133410316Y-147311745D01*
X133546705Y-147260615D01*
X133663261Y-147173261D01*
X133750615Y-147056705D01*
X133801745Y-146920316D01*
X133808500Y-146858134D01*
X133808500Y-144561866D01*
X133801745Y-144499684D01*
X133750615Y-144363295D01*
X133663261Y-144246739D01*
X133546705Y-144159385D01*
X133410316Y-144108255D01*
X133348134Y-144101500D01*
X131051866Y-144101500D01*
X130989684Y-144108255D01*
X130853295Y-144159385D01*
X130736739Y-144246739D01*
X130649385Y-144363295D01*
X130598255Y-144499684D01*
X130591500Y-144561866D01*
X130591500Y-146858134D01*
X127338244Y-146858134D01*
X127333500Y-146835348D01*
X127333500Y-143384500D01*
X127353502Y-143316379D01*
X127407158Y-143269886D01*
X127459500Y-143258500D01*
X127598134Y-143258500D01*
X127660316Y-143251745D01*
X127796705Y-143200615D01*
X127913261Y-143113261D01*
X128000615Y-142996705D01*
X128051745Y-142860316D01*
X128058500Y-142798134D01*
X128058500Y-141001866D01*
X128051745Y-140939684D01*
X128000615Y-140803295D01*
X127913261Y-140686739D01*
X127796705Y-140599385D01*
X127660316Y-140548255D01*
X127598134Y-140541500D01*
X125801866Y-140541500D01*
X125739684Y-140548255D01*
X125603295Y-140599385D01*
X125486739Y-140686739D01*
X125399385Y-140803295D01*
X125348255Y-140939684D01*
X125341500Y-141001866D01*
X125341500Y-142798134D01*
X125348255Y-142860316D01*
X125399385Y-142996705D01*
X125486739Y-143113261D01*
X125603295Y-143200615D01*
X125739684Y-143251745D01*
X125801866Y-143258500D01*
X125940500Y-143258500D01*
X126008621Y-143278502D01*
X126055114Y-143332158D01*
X126066500Y-143384500D01*
X126066500Y-146526055D01*
X126046498Y-146594176D01*
X125992842Y-146640669D01*
X125957466Y-146650827D01*
X125954574Y-146651017D01*
X125856674Y-146670491D01*
X125668253Y-146707970D01*
X125668247Y-146707972D01*
X125664203Y-146708776D01*
X125660294Y-146710103D01*
X125660290Y-146710104D01*
X125387761Y-146802615D01*
X125383855Y-146803941D01*
X125336721Y-146827185D01*
X125122031Y-146933058D01*
X125122026Y-146933061D01*
X125118327Y-146934885D01*
X125114894Y-146937179D01*
X124875593Y-147097074D01*
X124875588Y-147097078D01*
X124872162Y-147099367D01*
X124869068Y-147102081D01*
X124869062Y-147102085D01*
X124684700Y-147263767D01*
X124649573Y-147294573D01*
X124646864Y-147297662D01*
X124457085Y-147514062D01*
X124457081Y-147514068D01*
X124454367Y-147517162D01*
X124289885Y-147763327D01*
X124158941Y-148028855D01*
X124063776Y-148309203D01*
X124006017Y-148599574D01*
X124005748Y-148603679D01*
X124005747Y-148603686D01*
X123993697Y-148787546D01*
X123986654Y-148895000D01*
X115373346Y-148895000D01*
X115366303Y-148787546D01*
X115354253Y-148603686D01*
X115354252Y-148603679D01*
X115353983Y-148599574D01*
X115296224Y-148309203D01*
X115201059Y-148028855D01*
X115070115Y-147763327D01*
X114905633Y-147517162D01*
X114902913Y-147514060D01*
X114902908Y-147514054D01*
X114887427Y-147496401D01*
X114870784Y-147460524D01*
X114854183Y-147454343D01*
X114834904Y-147436511D01*
X114713136Y-147297662D01*
X114710427Y-147294573D01*
X114675300Y-147263767D01*
X114490938Y-147102085D01*
X114490932Y-147102081D01*
X114487838Y-147099367D01*
X114484412Y-147097078D01*
X114484407Y-147097074D01*
X114331842Y-146995134D01*
X114909500Y-146995134D01*
X114916255Y-147057316D01*
X114967385Y-147193705D01*
X115019894Y-147263767D01*
X115030462Y-147277868D01*
X115040316Y-147304243D01*
X115049648Y-147306923D01*
X115057722Y-147312496D01*
X115171295Y-147397615D01*
X115307684Y-147448745D01*
X115369866Y-147455500D01*
X116990134Y-147455500D01*
X117052316Y-147448745D01*
X117188705Y-147397615D01*
X117305261Y-147310261D01*
X117392615Y-147193705D01*
X117443745Y-147057316D01*
X117447306Y-147024538D01*
X117474549Y-146958976D01*
X117532912Y-146918550D01*
X117603866Y-146916096D01*
X117664884Y-146952392D01*
X117675777Y-146965869D01*
X117703023Y-147004781D01*
X117860219Y-147161977D01*
X117864727Y-147165134D01*
X117864730Y-147165136D01*
X117866080Y-147166081D01*
X118042323Y-147289488D01*
X118047305Y-147291811D01*
X118047310Y-147291814D01*
X118238822Y-147381117D01*
X118243804Y-147383440D01*
X118249112Y-147384862D01*
X118249114Y-147384863D01*
X118296705Y-147397615D01*
X118458537Y-147440978D01*
X118680000Y-147460353D01*
X118901463Y-147440978D01*
X119063295Y-147397615D01*
X119110886Y-147384863D01*
X119110888Y-147384862D01*
X119116196Y-147383440D01*
X119121178Y-147381117D01*
X119312690Y-147291814D01*
X119312695Y-147291811D01*
X119317677Y-147289488D01*
X119493920Y-147166081D01*
X119495270Y-147165136D01*
X119495273Y-147165134D01*
X119499781Y-147161977D01*
X119590905Y-147070853D01*
X119653217Y-147036827D01*
X119724032Y-147041892D01*
X119769095Y-147070853D01*
X119860219Y-147161977D01*
X119864727Y-147165134D01*
X119864730Y-147165136D01*
X119866080Y-147166081D01*
X120042323Y-147289488D01*
X120047305Y-147291811D01*
X120047310Y-147291814D01*
X120238822Y-147381117D01*
X120243804Y-147383440D01*
X120249112Y-147384862D01*
X120249114Y-147384863D01*
X120296705Y-147397615D01*
X120458537Y-147440978D01*
X120680000Y-147460353D01*
X120901463Y-147440978D01*
X121063295Y-147397615D01*
X121110886Y-147384863D01*
X121110888Y-147384862D01*
X121116196Y-147383440D01*
X121121178Y-147381117D01*
X121312690Y-147291814D01*
X121312695Y-147291811D01*
X121317677Y-147289488D01*
X121493920Y-147166081D01*
X121495270Y-147165136D01*
X121495273Y-147165134D01*
X121499781Y-147161977D01*
X121656977Y-147004781D01*
X121661354Y-146998531D01*
X121781331Y-146827185D01*
X121781332Y-146827183D01*
X121784488Y-146822676D01*
X121786811Y-146817694D01*
X121786814Y-146817689D01*
X121815805Y-146755517D01*
X121862723Y-146702232D01*
X121931000Y-146682771D01*
X121998960Y-146703313D01*
X122044195Y-146755517D01*
X122073186Y-146817689D01*
X122073189Y-146817694D01*
X122075512Y-146822676D01*
X122078668Y-146827183D01*
X122078669Y-146827185D01*
X122198647Y-146998531D01*
X122203023Y-147004781D01*
X122360219Y-147161977D01*
X122364727Y-147165134D01*
X122364730Y-147165136D01*
X122366080Y-147166081D01*
X122542323Y-147289488D01*
X122547305Y-147291811D01*
X122547310Y-147291814D01*
X122738822Y-147381117D01*
X122743804Y-147383440D01*
X122749112Y-147384862D01*
X122749114Y-147384863D01*
X122796705Y-147397615D01*
X122958537Y-147440978D01*
X123180000Y-147460353D01*
X123401463Y-147440978D01*
X123563295Y-147397615D01*
X123610886Y-147384863D01*
X123610888Y-147384862D01*
X123616196Y-147383440D01*
X123621178Y-147381117D01*
X123812690Y-147291814D01*
X123812695Y-147291811D01*
X123817677Y-147289488D01*
X123993920Y-147166081D01*
X123995270Y-147165136D01*
X123995273Y-147165134D01*
X123999781Y-147161977D01*
X124156977Y-147004781D01*
X124161354Y-146998531D01*
X124281331Y-146827185D01*
X124281332Y-146827183D01*
X124284488Y-146822676D01*
X124286811Y-146817694D01*
X124286814Y-146817689D01*
X124376117Y-146626178D01*
X124376118Y-146626177D01*
X124378440Y-146621196D01*
X124435978Y-146406463D01*
X124455353Y-146185000D01*
X124435978Y-145963537D01*
X124378440Y-145748804D01*
X124315805Y-145614483D01*
X124286814Y-145552311D01*
X124286811Y-145552306D01*
X124284488Y-145547324D01*
X124220376Y-145455762D01*
X124160136Y-145369730D01*
X124160134Y-145369727D01*
X124156977Y-145365219D01*
X123999781Y-145208023D01*
X123995273Y-145204866D01*
X123995270Y-145204864D01*
X123919505Y-145151813D01*
X123817677Y-145080512D01*
X123812695Y-145078189D01*
X123812690Y-145078186D01*
X123621178Y-144988883D01*
X123621177Y-144988882D01*
X123616196Y-144986560D01*
X123610888Y-144985138D01*
X123610886Y-144985137D01*
X123545051Y-144967497D01*
X123401463Y-144929022D01*
X123180000Y-144909647D01*
X122958537Y-144929022D01*
X122814949Y-144967497D01*
X122749114Y-144985137D01*
X122749112Y-144985138D01*
X122743804Y-144986560D01*
X122738823Y-144988882D01*
X122738822Y-144988883D01*
X122547311Y-145078186D01*
X122547306Y-145078189D01*
X122542324Y-145080512D01*
X122537817Y-145083668D01*
X122537815Y-145083669D01*
X122364730Y-145204864D01*
X122364727Y-145204866D01*
X122360219Y-145208023D01*
X122203023Y-145365219D01*
X122199866Y-145369727D01*
X122199864Y-145369730D01*
X122139624Y-145455762D01*
X122075512Y-145547324D01*
X122073189Y-145552306D01*
X122073186Y-145552311D01*
X122044195Y-145614483D01*
X121997277Y-145667768D01*
X121929000Y-145687229D01*
X121861040Y-145666687D01*
X121815805Y-145614483D01*
X121786814Y-145552311D01*
X121786811Y-145552306D01*
X121784488Y-145547324D01*
X121720376Y-145455762D01*
X121660136Y-145369730D01*
X121660134Y-145369727D01*
X121656977Y-145365219D01*
X121499781Y-145208023D01*
X121495273Y-145204866D01*
X121495270Y-145204864D01*
X121419505Y-145151813D01*
X121317677Y-145080512D01*
X121312695Y-145078189D01*
X121312690Y-145078186D01*
X121121178Y-144988883D01*
X121121177Y-144988882D01*
X121116196Y-144986560D01*
X121110888Y-144985138D01*
X121110886Y-144985137D01*
X121045051Y-144967497D01*
X120901463Y-144929022D01*
X120680000Y-144909647D01*
X120458537Y-144929022D01*
X120314949Y-144967497D01*
X120249114Y-144985137D01*
X120249112Y-144985138D01*
X120243804Y-144986560D01*
X120238823Y-144988882D01*
X120238822Y-144988883D01*
X120047311Y-145078186D01*
X120047306Y-145078189D01*
X120042324Y-145080512D01*
X120037817Y-145083668D01*
X120037815Y-145083669D01*
X119864730Y-145204864D01*
X119864727Y-145204866D01*
X119860219Y-145208023D01*
X119769095Y-145299147D01*
X119706783Y-145333173D01*
X119635968Y-145328108D01*
X119590905Y-145299147D01*
X119499781Y-145208023D01*
X119495273Y-145204866D01*
X119495270Y-145204864D01*
X119419505Y-145151813D01*
X119317677Y-145080512D01*
X119312695Y-145078189D01*
X119312690Y-145078186D01*
X119121178Y-144988883D01*
X119121177Y-144988882D01*
X119116196Y-144986560D01*
X119110888Y-144985138D01*
X119110886Y-144985137D01*
X119045051Y-144967497D01*
X118901463Y-144929022D01*
X118680000Y-144909647D01*
X118458537Y-144929022D01*
X118314949Y-144967497D01*
X118249114Y-144985137D01*
X118249112Y-144985138D01*
X118243804Y-144986560D01*
X118238823Y-144988882D01*
X118238822Y-144988883D01*
X118047311Y-145078186D01*
X118047306Y-145078189D01*
X118042324Y-145080512D01*
X118037817Y-145083668D01*
X118037815Y-145083669D01*
X117864730Y-145204864D01*
X117864727Y-145204866D01*
X117860219Y-145208023D01*
X117703023Y-145365219D01*
X117675781Y-145404124D01*
X117620326Y-145448452D01*
X117549707Y-145455762D01*
X117486346Y-145423731D01*
X117450361Y-145362530D01*
X117447306Y-145345462D01*
X117445971Y-145333173D01*
X117443745Y-145312684D01*
X117392615Y-145176295D01*
X117305261Y-145059739D01*
X117188705Y-144972385D01*
X117052316Y-144921255D01*
X116990134Y-144914500D01*
X115369866Y-144914500D01*
X115307684Y-144921255D01*
X115171295Y-144972385D01*
X115054739Y-145059739D01*
X114967385Y-145176295D01*
X114916255Y-145312684D01*
X114909500Y-145374866D01*
X114909500Y-146995134D01*
X114331842Y-146995134D01*
X114245106Y-146937179D01*
X114241673Y-146934885D01*
X114237974Y-146933061D01*
X114237969Y-146933058D01*
X114023279Y-146827185D01*
X113976145Y-146803941D01*
X113972239Y-146802615D01*
X113699710Y-146710104D01*
X113699706Y-146710103D01*
X113695797Y-146708776D01*
X113691753Y-146707972D01*
X113691747Y-146707970D01*
X113409465Y-146651820D01*
X113409459Y-146651819D01*
X113405426Y-146651017D01*
X113401321Y-146650748D01*
X113401314Y-146650747D01*
X113114119Y-146631924D01*
X113110000Y-146631654D01*
X113105881Y-146631924D01*
X112818686Y-146650747D01*
X112818679Y-146650748D01*
X112814574Y-146651017D01*
X112810541Y-146651819D01*
X112810535Y-146651820D01*
X112528253Y-146707970D01*
X112528247Y-146707972D01*
X112524203Y-146708776D01*
X112520294Y-146710103D01*
X112520290Y-146710104D01*
X112247761Y-146802615D01*
X112243855Y-146803941D01*
X112196721Y-146827185D01*
X111982031Y-146933058D01*
X111982026Y-146933061D01*
X111978327Y-146934885D01*
X111974894Y-146937179D01*
X111735593Y-147097074D01*
X111735588Y-147097078D01*
X111732162Y-147099367D01*
X111729068Y-147102081D01*
X111729062Y-147102085D01*
X111544700Y-147263767D01*
X111509573Y-147294573D01*
X111506864Y-147297662D01*
X111317085Y-147514062D01*
X111317081Y-147514068D01*
X111314367Y-147517162D01*
X111149885Y-147763327D01*
X111018941Y-148028855D01*
X110923776Y-148309203D01*
X110866017Y-148599574D01*
X110865748Y-148603679D01*
X110865747Y-148603686D01*
X110853697Y-148787546D01*
X110846654Y-148895000D01*
X105108500Y-148895000D01*
X105108500Y-142798134D01*
X111141500Y-142798134D01*
X111148255Y-142860316D01*
X111199385Y-142996705D01*
X111286739Y-143113261D01*
X111403295Y-143200615D01*
X111539684Y-143251745D01*
X111601866Y-143258500D01*
X113398134Y-143258500D01*
X113460316Y-143251745D01*
X113596705Y-143200615D01*
X113713261Y-143113261D01*
X113800615Y-142996705D01*
X113851745Y-142860316D01*
X113858500Y-142798134D01*
X115874800Y-142798134D01*
X115881555Y-142860316D01*
X115932685Y-142996705D01*
X116020039Y-143113261D01*
X116136595Y-143200615D01*
X116272984Y-143251745D01*
X116335166Y-143258500D01*
X118131434Y-143258500D01*
X118193616Y-143251745D01*
X118330005Y-143200615D01*
X118446561Y-143113261D01*
X118533915Y-142996705D01*
X118585045Y-142860316D01*
X118591800Y-142798134D01*
X120608200Y-142798134D01*
X120614955Y-142860316D01*
X120666085Y-142996705D01*
X120753439Y-143113261D01*
X120869995Y-143200615D01*
X121006384Y-143251745D01*
X121068566Y-143258500D01*
X122864834Y-143258500D01*
X122927016Y-143251745D01*
X123063405Y-143200615D01*
X123179961Y-143113261D01*
X123267315Y-142996705D01*
X123318445Y-142860316D01*
X123325200Y-142798134D01*
X123325200Y-141001866D01*
X123318445Y-140939684D01*
X123267315Y-140803295D01*
X123179961Y-140686739D01*
X123063405Y-140599385D01*
X122927016Y-140548255D01*
X122864834Y-140541500D01*
X121068566Y-140541500D01*
X121006384Y-140548255D01*
X120869995Y-140599385D01*
X120753439Y-140686739D01*
X120666085Y-140803295D01*
X120614955Y-140939684D01*
X120608200Y-141001866D01*
X120608200Y-142798134D01*
X118591800Y-142798134D01*
X118591800Y-141001866D01*
X118585045Y-140939684D01*
X118533915Y-140803295D01*
X118446561Y-140686739D01*
X118330005Y-140599385D01*
X118193616Y-140548255D01*
X118131434Y-140541500D01*
X116335166Y-140541500D01*
X116272984Y-140548255D01*
X116136595Y-140599385D01*
X116020039Y-140686739D01*
X115932685Y-140803295D01*
X115881555Y-140939684D01*
X115874800Y-141001866D01*
X115874800Y-142798134D01*
X113858500Y-142798134D01*
X113858500Y-141001866D01*
X113851745Y-140939684D01*
X113800615Y-140803295D01*
X113713261Y-140686739D01*
X113596705Y-140599385D01*
X113460316Y-140548255D01*
X113398134Y-140541500D01*
X111601866Y-140541500D01*
X111539684Y-140548255D01*
X111403295Y-140599385D01*
X111286739Y-140686739D01*
X111199385Y-140803295D01*
X111148255Y-140939684D01*
X111141500Y-141001866D01*
X111141500Y-142798134D01*
X105108500Y-142798134D01*
X105108500Y-137548134D01*
X105381500Y-137548134D01*
X105388255Y-137610316D01*
X105439385Y-137746705D01*
X105526739Y-137863261D01*
X105643295Y-137950615D01*
X105779684Y-138001745D01*
X105841866Y-138008500D01*
X108138134Y-138008500D01*
X108200316Y-138001745D01*
X108336705Y-137950615D01*
X108453261Y-137863261D01*
X108540615Y-137746705D01*
X108591745Y-137610316D01*
X108598500Y-137548134D01*
X108598500Y-135251866D01*
X108591745Y-135189684D01*
X108540615Y-135053295D01*
X108453261Y-134936739D01*
X108336705Y-134849385D01*
X108200316Y-134798255D01*
X108138134Y-134791500D01*
X105841866Y-134791500D01*
X105779684Y-134798255D01*
X105643295Y-134849385D01*
X105526739Y-134936739D01*
X105439385Y-135053295D01*
X105388255Y-135189684D01*
X105381500Y-135251866D01*
X105381500Y-137548134D01*
X105108500Y-137548134D01*
X105108500Y-132294669D01*
X106342001Y-132294669D01*
X106342371Y-132301490D01*
X106347895Y-132352352D01*
X106351521Y-132367604D01*
X106396676Y-132488054D01*
X106405214Y-132503649D01*
X106481715Y-132605724D01*
X106494276Y-132618285D01*
X106596351Y-132694786D01*
X106611946Y-132703324D01*
X106732394Y-132748478D01*
X106747649Y-132752105D01*
X106798514Y-132757631D01*
X106805328Y-132758000D01*
X107427885Y-132758000D01*
X107443124Y-132753525D01*
X107444329Y-132752135D01*
X107446000Y-132744452D01*
X107446000Y-131672115D01*
X107441525Y-131656876D01*
X107440135Y-131655671D01*
X107432452Y-131654000D01*
X106360116Y-131654000D01*
X106344877Y-131658475D01*
X106343672Y-131659865D01*
X106342001Y-131667548D01*
X106342001Y-132294669D01*
X105108500Y-132294669D01*
X105108500Y-131127885D01*
X106342000Y-131127885D01*
X106346475Y-131143124D01*
X106347865Y-131144329D01*
X106355548Y-131146000D01*
X107427885Y-131146000D01*
X107443124Y-131141525D01*
X107444329Y-131140135D01*
X107446000Y-131132452D01*
X107446000Y-130060116D01*
X107441525Y-130044877D01*
X107440135Y-130043672D01*
X107432452Y-130042001D01*
X106805331Y-130042001D01*
X106798510Y-130042371D01*
X106747648Y-130047895D01*
X106732396Y-130051521D01*
X106611946Y-130096676D01*
X106596351Y-130105214D01*
X106494276Y-130181715D01*
X106481715Y-130194276D01*
X106405214Y-130296351D01*
X106396676Y-130311946D01*
X106351522Y-130432394D01*
X106347895Y-130447649D01*
X106342369Y-130498514D01*
X106342000Y-130505328D01*
X106342000Y-131127885D01*
X105108500Y-131127885D01*
X105108500Y-126720000D01*
X108421634Y-126720000D01*
X108441066Y-126966911D01*
X108442220Y-126971718D01*
X108442221Y-126971724D01*
X108478499Y-127122830D01*
X108498885Y-127207742D01*
X108500778Y-127212313D01*
X108500779Y-127212315D01*
X108580344Y-127404400D01*
X108593666Y-127436563D01*
X108723075Y-127647740D01*
X108883927Y-127836073D01*
X109072260Y-127996925D01*
X109283437Y-128126334D01*
X109288007Y-128128227D01*
X109288011Y-128128229D01*
X109507685Y-128219221D01*
X109512258Y-128221115D01*
X109584046Y-128238350D01*
X109748276Y-128277779D01*
X109748282Y-128277780D01*
X109753089Y-128278934D01*
X110000000Y-128298366D01*
X110246911Y-128278934D01*
X110251718Y-128277780D01*
X110251724Y-128277779D01*
X110415954Y-128238350D01*
X110487742Y-128221115D01*
X110492315Y-128219221D01*
X110711989Y-128128229D01*
X110711993Y-128128227D01*
X110716563Y-128126334D01*
X110927740Y-127996925D01*
X111116073Y-127836073D01*
X111276925Y-127647740D01*
X111406334Y-127436563D01*
X111419657Y-127404400D01*
X111499221Y-127212315D01*
X111499222Y-127212313D01*
X111501115Y-127207742D01*
X111521501Y-127122830D01*
X111557779Y-126971724D01*
X111557780Y-126971718D01*
X111558934Y-126966911D01*
X111578366Y-126720000D01*
X111558934Y-126473089D01*
X111557780Y-126468282D01*
X111557779Y-126468276D01*
X111502270Y-126237070D01*
X111501115Y-126232258D01*
X111432591Y-126066827D01*
X111408229Y-126008011D01*
X111408227Y-126008007D01*
X111406334Y-126003437D01*
X111276925Y-125792260D01*
X111116073Y-125603927D01*
X110927740Y-125443075D01*
X110716563Y-125313666D01*
X110711993Y-125311773D01*
X110711989Y-125311771D01*
X110492315Y-125220779D01*
X110492313Y-125220778D01*
X110487742Y-125218885D01*
X110402830Y-125198499D01*
X110251724Y-125162221D01*
X110251718Y-125162220D01*
X110246911Y-125161066D01*
X110000000Y-125141634D01*
X109753089Y-125161066D01*
X109748282Y-125162220D01*
X109748276Y-125162221D01*
X109597170Y-125198499D01*
X109512258Y-125218885D01*
X109507687Y-125220778D01*
X109507685Y-125220779D01*
X109288011Y-125311771D01*
X109288007Y-125311773D01*
X109283437Y-125313666D01*
X109072260Y-125443075D01*
X108883927Y-125603927D01*
X108723075Y-125792260D01*
X108593666Y-126003437D01*
X108591773Y-126008007D01*
X108591771Y-126008011D01*
X108567409Y-126066827D01*
X108498885Y-126232258D01*
X108497730Y-126237070D01*
X108442221Y-126468276D01*
X108442220Y-126468282D01*
X108441066Y-126473089D01*
X108421634Y-126720000D01*
X105108500Y-126720000D01*
X105108500Y-121763226D01*
X108495308Y-121763226D01*
X108495605Y-121768378D01*
X108495605Y-121768382D01*
X108507255Y-121970414D01*
X108509507Y-122009475D01*
X108510644Y-122014521D01*
X108510645Y-122014527D01*
X108532825Y-122112945D01*
X108563734Y-122250099D01*
X108565676Y-122254881D01*
X108565677Y-122254885D01*
X108607840Y-122358720D01*
X108656532Y-122478634D01*
X108785411Y-122688945D01*
X108946908Y-122875382D01*
X109136687Y-123032939D01*
X109141139Y-123035541D01*
X109141144Y-123035544D01*
X109345192Y-123154780D01*
X109349650Y-123157385D01*
X109580079Y-123245377D01*
X109585147Y-123246408D01*
X109585150Y-123246409D01*
X109700760Y-123269930D01*
X109821785Y-123294553D01*
X109826960Y-123294743D01*
X109826962Y-123294743D01*
X110063114Y-123303403D01*
X110063118Y-123303403D01*
X110068278Y-123303592D01*
X110073398Y-123302936D01*
X110073400Y-123302936D01*
X110151986Y-123292869D01*
X110312936Y-123272250D01*
X110317887Y-123270765D01*
X110317890Y-123270764D01*
X110544248Y-123202853D01*
X110549191Y-123201370D01*
X110770697Y-123092856D01*
X110851046Y-123035544D01*
X110967302Y-122952619D01*
X110971505Y-122949621D01*
X110993709Y-122927495D01*
X111142562Y-122779160D01*
X111146223Y-122775512D01*
X111290158Y-122575205D01*
X111399445Y-122354079D01*
X111432569Y-122245057D01*
X111469645Y-122123026D01*
X111469646Y-122123020D01*
X111471149Y-122118074D01*
X111503344Y-121873526D01*
X111505141Y-121800000D01*
X111497161Y-121702940D01*
X111485354Y-121559322D01*
X111485353Y-121559316D01*
X111484930Y-121554171D01*
X111424841Y-121314945D01*
X111411934Y-121285261D01*
X111328546Y-121093481D01*
X111328544Y-121093478D01*
X111326486Y-121088744D01*
X111192508Y-120881645D01*
X111166247Y-120852784D01*
X111029982Y-120703032D01*
X111029980Y-120703031D01*
X111026504Y-120699210D01*
X111022453Y-120696011D01*
X111022449Y-120696007D01*
X110836987Y-120549538D01*
X110836983Y-120549536D01*
X110832932Y-120546336D01*
X110796746Y-120526360D01*
X110776113Y-120514970D01*
X110616992Y-120427131D01*
X110612123Y-120425407D01*
X110612119Y-120425405D01*
X110389357Y-120346520D01*
X110389353Y-120346519D01*
X110384482Y-120344794D01*
X110379389Y-120343887D01*
X110379386Y-120343886D01*
X110275844Y-120325443D01*
X110141646Y-120301539D01*
X110048783Y-120300404D01*
X109900177Y-120298588D01*
X109900175Y-120298588D01*
X109895007Y-120298525D01*
X109651187Y-120335835D01*
X109416734Y-120412466D01*
X109197946Y-120526360D01*
X109193813Y-120529463D01*
X109193810Y-120529465D01*
X109004832Y-120671353D01*
X109000697Y-120674458D01*
X108830286Y-120852784D01*
X108691288Y-121056548D01*
X108587436Y-121280278D01*
X108521519Y-121517965D01*
X108495308Y-121763226D01*
X105108500Y-121763226D01*
X105108500Y-118420000D01*
X108421634Y-118420000D01*
X108441066Y-118666911D01*
X108442220Y-118671718D01*
X108442221Y-118671724D01*
X108462237Y-118755095D01*
X108498885Y-118907742D01*
X108593666Y-119136563D01*
X108723075Y-119347740D01*
X108883927Y-119536073D01*
X109072260Y-119696925D01*
X109283437Y-119826334D01*
X109288007Y-119828227D01*
X109288011Y-119828229D01*
X109507685Y-119919221D01*
X109512258Y-119921115D01*
X109597170Y-119941501D01*
X109748276Y-119977779D01*
X109748282Y-119977780D01*
X109753089Y-119978934D01*
X110000000Y-119998366D01*
X110246911Y-119978934D01*
X110251718Y-119977780D01*
X110251724Y-119977779D01*
X110402830Y-119941501D01*
X110487742Y-119921115D01*
X110492315Y-119919221D01*
X110711989Y-119828229D01*
X110711993Y-119828227D01*
X110716563Y-119826334D01*
X110927740Y-119696925D01*
X111116073Y-119536073D01*
X111276925Y-119347740D01*
X111406334Y-119136563D01*
X111501115Y-118907742D01*
X111537763Y-118755095D01*
X111557779Y-118671724D01*
X111557780Y-118671718D01*
X111558934Y-118666911D01*
X111578366Y-118420000D01*
X111558934Y-118173089D01*
X111557780Y-118168282D01*
X111557779Y-118168276D01*
X111502270Y-117937070D01*
X111501115Y-117932258D01*
X111406334Y-117703437D01*
X111276925Y-117492260D01*
X111116073Y-117303927D01*
X110927740Y-117143075D01*
X110716563Y-117013666D01*
X110648342Y-116985408D01*
X110593062Y-116940859D01*
X110570641Y-116873496D01*
X110588199Y-116804705D01*
X110640162Y-116756326D01*
X110696561Y-116742999D01*
X111009669Y-116742999D01*
X111016490Y-116742629D01*
X111067352Y-116737105D01*
X111082604Y-116733479D01*
X111203054Y-116688324D01*
X111218649Y-116679786D01*
X111320724Y-116603285D01*
X111333285Y-116590724D01*
X111409786Y-116488649D01*
X111418324Y-116473054D01*
X111463478Y-116352606D01*
X111467105Y-116337351D01*
X111472631Y-116286486D01*
X111473000Y-116279672D01*
X111473000Y-115592115D01*
X111468525Y-115576876D01*
X111467135Y-115575671D01*
X111459452Y-115574000D01*
X108545116Y-115574000D01*
X108529877Y-115578475D01*
X108528672Y-115579865D01*
X108527001Y-115587548D01*
X108527001Y-116279669D01*
X108527371Y-116286490D01*
X108532895Y-116337352D01*
X108536521Y-116352604D01*
X108581676Y-116473054D01*
X108590214Y-116488649D01*
X108666715Y-116590724D01*
X108679276Y-116603285D01*
X108781351Y-116679786D01*
X108796946Y-116688324D01*
X108917394Y-116733478D01*
X108932649Y-116737105D01*
X108983514Y-116742631D01*
X108990328Y-116743000D01*
X109303438Y-116743000D01*
X109371559Y-116763002D01*
X109418052Y-116816658D01*
X109428156Y-116886932D01*
X109398662Y-116951512D01*
X109351657Y-116985408D01*
X109323360Y-116997129D01*
X109288011Y-117011771D01*
X109288007Y-117011773D01*
X109283437Y-117013666D01*
X109072260Y-117143075D01*
X108883927Y-117303927D01*
X108723075Y-117492260D01*
X108593666Y-117703437D01*
X108498885Y-117932258D01*
X108497730Y-117937070D01*
X108442221Y-118168276D01*
X108442220Y-118168282D01*
X108441066Y-118173089D01*
X108421634Y-118420000D01*
X105108500Y-118420000D01*
X105108500Y-115047885D01*
X108527000Y-115047885D01*
X108531475Y-115063124D01*
X108532865Y-115064329D01*
X108540548Y-115066000D01*
X111454884Y-115066000D01*
X111470123Y-115061525D01*
X111471328Y-115060135D01*
X111472999Y-115052452D01*
X111472999Y-114360331D01*
X111472629Y-114353510D01*
X111467105Y-114302648D01*
X111463479Y-114287396D01*
X111418324Y-114166946D01*
X111409786Y-114151351D01*
X111333285Y-114049276D01*
X111320724Y-114036715D01*
X111211462Y-113954828D01*
X111212349Y-113953645D01*
X111169063Y-113910264D01*
X111154048Y-113840873D01*
X111178932Y-113774380D01*
X111211926Y-113745791D01*
X111211462Y-113745172D01*
X111320724Y-113663285D01*
X111333285Y-113650724D01*
X111409786Y-113548649D01*
X111418324Y-113533054D01*
X111463478Y-113412606D01*
X111467105Y-113397351D01*
X111472631Y-113346486D01*
X111473000Y-113339672D01*
X111473000Y-112652115D01*
X111468525Y-112636876D01*
X111467135Y-112635671D01*
X111459452Y-112634000D01*
X108545116Y-112634000D01*
X108529877Y-112638475D01*
X108528672Y-112639865D01*
X108527001Y-112647548D01*
X108527001Y-113339669D01*
X108527371Y-113346490D01*
X108532895Y-113397352D01*
X108536521Y-113412604D01*
X108581676Y-113533054D01*
X108590214Y-113548649D01*
X108666715Y-113650724D01*
X108679276Y-113663285D01*
X108788538Y-113745172D01*
X108787651Y-113746355D01*
X108830937Y-113789736D01*
X108845952Y-113859127D01*
X108821068Y-113925620D01*
X108788074Y-113954209D01*
X108788538Y-113954828D01*
X108679276Y-114036715D01*
X108666715Y-114049276D01*
X108590214Y-114151351D01*
X108581676Y-114166946D01*
X108536522Y-114287394D01*
X108532895Y-114302649D01*
X108527369Y-114353514D01*
X108527000Y-114360328D01*
X108527000Y-115047885D01*
X105108500Y-115047885D01*
X105108500Y-109280000D01*
X108421634Y-109280000D01*
X108441066Y-109526911D01*
X108442220Y-109531718D01*
X108442221Y-109531724D01*
X108447188Y-109552412D01*
X108498885Y-109767742D01*
X108500778Y-109772313D01*
X108500779Y-109772315D01*
X108582988Y-109970783D01*
X108593666Y-109996563D01*
X108723075Y-110207740D01*
X108883927Y-110396073D01*
X109072260Y-110556925D01*
X109283437Y-110686334D01*
X109351656Y-110714591D01*
X109351658Y-110714592D01*
X109406938Y-110759141D01*
X109429359Y-110826504D01*
X109411801Y-110895295D01*
X109359838Y-110943674D01*
X109303439Y-110957001D01*
X108990331Y-110957001D01*
X108983510Y-110957371D01*
X108932648Y-110962895D01*
X108917396Y-110966521D01*
X108796946Y-111011676D01*
X108781351Y-111020214D01*
X108679276Y-111096715D01*
X108666715Y-111109276D01*
X108590214Y-111211351D01*
X108581676Y-111226946D01*
X108536522Y-111347394D01*
X108532895Y-111362649D01*
X108527369Y-111413514D01*
X108527000Y-111420328D01*
X108527000Y-112107885D01*
X108531475Y-112123124D01*
X108532865Y-112124329D01*
X108540548Y-112126000D01*
X111454884Y-112126000D01*
X111470123Y-112121525D01*
X111471328Y-112120135D01*
X111472999Y-112112452D01*
X111472999Y-111420331D01*
X111472629Y-111413510D01*
X111467105Y-111362648D01*
X111463479Y-111347396D01*
X111418324Y-111226946D01*
X111409786Y-111211351D01*
X111333285Y-111109276D01*
X111320724Y-111096715D01*
X111218649Y-111020214D01*
X111203054Y-111011676D01*
X111082606Y-110966522D01*
X111067351Y-110962895D01*
X111016486Y-110957369D01*
X111009672Y-110957000D01*
X110696562Y-110957000D01*
X110628441Y-110936998D01*
X110581948Y-110883342D01*
X110571844Y-110813068D01*
X110601338Y-110748488D01*
X110648343Y-110714592D01*
X110676640Y-110702871D01*
X110711989Y-110688229D01*
X110711993Y-110688227D01*
X110716563Y-110686334D01*
X110927740Y-110556925D01*
X111116073Y-110396073D01*
X111276925Y-110207740D01*
X111406334Y-109996563D01*
X111417013Y-109970783D01*
X111499221Y-109772315D01*
X111499222Y-109772313D01*
X111501115Y-109767742D01*
X111552812Y-109552412D01*
X111557779Y-109531724D01*
X111557780Y-109531718D01*
X111558934Y-109526911D01*
X111578366Y-109280000D01*
X111558934Y-109033089D01*
X111557780Y-109028282D01*
X111557779Y-109028276D01*
X111502270Y-108797070D01*
X111501115Y-108792258D01*
X111488689Y-108762258D01*
X111408229Y-108568011D01*
X111408227Y-108568007D01*
X111406334Y-108563437D01*
X111276925Y-108352260D01*
X111116073Y-108163927D01*
X110927740Y-108003075D01*
X110716563Y-107873666D01*
X110711993Y-107871773D01*
X110711989Y-107871771D01*
X110492315Y-107780779D01*
X110492313Y-107780778D01*
X110487742Y-107778885D01*
X110402830Y-107758499D01*
X110251724Y-107722221D01*
X110251718Y-107722220D01*
X110246911Y-107721066D01*
X110000000Y-107701634D01*
X109753089Y-107721066D01*
X109748282Y-107722220D01*
X109748276Y-107722221D01*
X109597170Y-107758499D01*
X109512258Y-107778885D01*
X109507687Y-107780778D01*
X109507685Y-107780779D01*
X109288011Y-107871771D01*
X109288007Y-107871773D01*
X109283437Y-107873666D01*
X109072260Y-108003075D01*
X108883927Y-108163927D01*
X108723075Y-108352260D01*
X108593666Y-108563437D01*
X108591773Y-108568007D01*
X108591771Y-108568011D01*
X108511311Y-108762258D01*
X108498885Y-108792258D01*
X108497730Y-108797070D01*
X108442221Y-109028276D01*
X108442220Y-109028282D01*
X108441066Y-109033089D01*
X108421634Y-109280000D01*
X105108500Y-109280000D01*
X105108500Y-105900000D01*
X108494859Y-105900000D01*
X108502839Y-105997060D01*
X108514646Y-106140678D01*
X108514647Y-106140684D01*
X108515070Y-106145829D01*
X108522874Y-106176898D01*
X108567624Y-106355055D01*
X108575159Y-106385055D01*
X108577217Y-106389788D01*
X108577218Y-106389791D01*
X108660470Y-106581256D01*
X108673514Y-106611256D01*
X108807492Y-106818355D01*
X108810971Y-106822178D01*
X108810973Y-106822181D01*
X108970018Y-106996968D01*
X108973496Y-107000790D01*
X108977547Y-107003989D01*
X108977551Y-107003993D01*
X109163013Y-107150462D01*
X109163017Y-107150464D01*
X109167068Y-107153664D01*
X109171589Y-107156160D01*
X109171591Y-107156161D01*
X109207582Y-107176029D01*
X109383008Y-107272869D01*
X109387877Y-107274593D01*
X109387881Y-107274595D01*
X109610643Y-107353480D01*
X109610647Y-107353481D01*
X109615518Y-107355206D01*
X109620611Y-107356113D01*
X109620614Y-107356114D01*
X109702457Y-107370692D01*
X109858354Y-107398461D01*
X109951217Y-107399596D01*
X110099823Y-107401412D01*
X110099825Y-107401412D01*
X110104993Y-107401475D01*
X110348813Y-107364165D01*
X110583266Y-107287534D01*
X110802054Y-107173640D01*
X110806187Y-107170537D01*
X110806190Y-107170535D01*
X110995168Y-107028647D01*
X110995171Y-107028645D01*
X110999303Y-107025542D01*
X111169714Y-106847216D01*
X111193094Y-106812943D01*
X111305795Y-106647728D01*
X111308712Y-106643452D01*
X111412564Y-106419722D01*
X111429185Y-106359791D01*
X111477099Y-106187018D01*
X111478481Y-106182035D01*
X111504692Y-105936774D01*
X111498141Y-105823152D01*
X111490791Y-105695694D01*
X111490493Y-105690525D01*
X111489356Y-105685479D01*
X111489355Y-105685473D01*
X111437402Y-105454943D01*
X111436266Y-105449901D01*
X111424085Y-105419901D01*
X111345412Y-105226153D01*
X111345411Y-105226151D01*
X111343468Y-105221366D01*
X111214589Y-105011055D01*
X111053092Y-104824618D01*
X110863313Y-104667061D01*
X110858861Y-104664459D01*
X110858856Y-104664456D01*
X110654808Y-104545220D01*
X110654807Y-104545220D01*
X110650350Y-104542615D01*
X110419921Y-104454623D01*
X110414853Y-104453592D01*
X110414850Y-104453591D01*
X110267395Y-104423591D01*
X110178215Y-104405447D01*
X110173040Y-104405257D01*
X110173038Y-104405257D01*
X109936886Y-104396597D01*
X109936882Y-104396597D01*
X109931722Y-104396408D01*
X109926602Y-104397064D01*
X109926600Y-104397064D01*
X109862646Y-104405257D01*
X109687064Y-104427750D01*
X109682113Y-104429235D01*
X109682110Y-104429236D01*
X109494737Y-104485451D01*
X109450809Y-104498630D01*
X109446177Y-104500899D01*
X109446175Y-104500900D01*
X109406679Y-104520249D01*
X109229303Y-104607144D01*
X109225098Y-104610143D01*
X109225097Y-104610144D01*
X109065442Y-104724025D01*
X109028495Y-104750379D01*
X109024838Y-104754024D01*
X109024836Y-104754025D01*
X108979514Y-104799189D01*
X108853777Y-104924488D01*
X108709842Y-105124795D01*
X108600555Y-105345921D01*
X108599050Y-105350875D01*
X108530355Y-105576974D01*
X108530354Y-105576980D01*
X108528851Y-105581926D01*
X108518503Y-105660525D01*
X108500606Y-105796474D01*
X108496656Y-105826474D01*
X108494859Y-105900000D01*
X105108500Y-105900000D01*
X105108500Y-77386062D01*
X105828493Y-77386062D01*
X105837789Y-77398077D01*
X105888994Y-77433931D01*
X105898489Y-77439414D01*
X106095947Y-77531490D01*
X106106239Y-77535236D01*
X106316688Y-77591625D01*
X106327481Y-77593528D01*
X106544525Y-77612517D01*
X106555475Y-77612517D01*
X106772519Y-77593528D01*
X106783312Y-77591625D01*
X106993761Y-77535236D01*
X107004053Y-77531490D01*
X107201511Y-77439414D01*
X107211006Y-77433931D01*
X107263048Y-77397491D01*
X107271424Y-77387012D01*
X107264356Y-77373566D01*
X106562812Y-76672022D01*
X106548868Y-76664408D01*
X106547035Y-76664539D01*
X106540420Y-76668790D01*
X105834923Y-77374287D01*
X105828493Y-77386062D01*
X105108500Y-77386062D01*
X105108500Y-76872034D01*
X105128502Y-76803913D01*
X105182158Y-76757420D01*
X105252432Y-76747316D01*
X105317012Y-76776810D01*
X105348695Y-76818784D01*
X105410586Y-76951511D01*
X105416069Y-76961006D01*
X105452509Y-77013048D01*
X105462988Y-77021424D01*
X105476434Y-77014356D01*
X106177978Y-76312812D01*
X106185592Y-76298868D01*
X106185461Y-76297035D01*
X106181210Y-76290420D01*
X105475713Y-75584923D01*
X105463938Y-75578493D01*
X105451923Y-75587789D01*
X105416069Y-75638994D01*
X105410586Y-75648489D01*
X105348695Y-75781216D01*
X105301778Y-75834501D01*
X105233500Y-75853962D01*
X105165541Y-75833420D01*
X105119475Y-75779397D01*
X105108500Y-75727966D01*
X105108500Y-75212988D01*
X105828576Y-75212988D01*
X105835644Y-75226434D01*
X106537188Y-75927978D01*
X106551132Y-75935592D01*
X106552965Y-75935461D01*
X106559580Y-75931210D01*
X107265077Y-75225713D01*
X107271507Y-75213938D01*
X107262211Y-75201923D01*
X107211006Y-75166069D01*
X107201511Y-75160586D01*
X107004053Y-75068510D01*
X106993761Y-75064764D01*
X106783312Y-75008375D01*
X106772519Y-75006472D01*
X106555475Y-74987483D01*
X106544525Y-74987483D01*
X106327481Y-75006472D01*
X106316688Y-75008375D01*
X106106239Y-75064764D01*
X106095947Y-75068510D01*
X105898489Y-75160586D01*
X105888994Y-75166069D01*
X105836952Y-75202509D01*
X105828576Y-75212988D01*
X105108500Y-75212988D01*
X105108500Y-69186798D01*
X105128502Y-69118677D01*
X105182158Y-69072184D01*
X105252432Y-69062080D01*
X105317012Y-69091574D01*
X105330311Y-69104968D01*
X105331301Y-69106127D01*
X105385230Y-69169270D01*
X105582540Y-69337788D01*
X105803783Y-69473366D01*
X105808353Y-69475259D01*
X105808357Y-69475261D01*
X106038937Y-69570770D01*
X106043510Y-69572664D01*
X106130702Y-69593597D01*
X106291007Y-69632083D01*
X106291013Y-69632084D01*
X106295820Y-69633238D01*
X106554500Y-69653597D01*
X106813180Y-69633238D01*
X106817987Y-69632084D01*
X106817993Y-69632083D01*
X106978298Y-69593597D01*
X107065490Y-69572664D01*
X107070063Y-69570770D01*
X107300643Y-69475261D01*
X107300647Y-69475259D01*
X107305217Y-69473366D01*
X107526460Y-69337788D01*
X107723770Y-69169270D01*
X107892288Y-68971960D01*
X108027866Y-68750717D01*
X108053953Y-68687739D01*
X108125270Y-68515563D01*
X108125271Y-68515561D01*
X108127164Y-68510990D01*
X108148097Y-68423798D01*
X108186583Y-68263493D01*
X108186584Y-68263487D01*
X108187738Y-68258680D01*
X108208097Y-68000000D01*
X108187738Y-67741320D01*
X108127164Y-67489010D01*
X108087819Y-67394022D01*
X108029761Y-67253857D01*
X108029759Y-67253853D01*
X108027866Y-67249283D01*
X107892288Y-67028040D01*
X107723770Y-66830730D01*
X107526460Y-66662212D01*
X107305217Y-66526634D01*
X107300647Y-66524741D01*
X107300643Y-66524739D01*
X107070063Y-66429230D01*
X107070061Y-66429229D01*
X107065490Y-66427336D01*
X106924911Y-66393586D01*
X106817993Y-66367917D01*
X106817987Y-66367916D01*
X106813180Y-66366762D01*
X106554500Y-66346403D01*
X106295820Y-66366762D01*
X106291013Y-66367916D01*
X106291007Y-66367917D01*
X106184089Y-66393586D01*
X106043510Y-66427336D01*
X106038939Y-66429229D01*
X106038937Y-66429230D01*
X105808357Y-66524739D01*
X105808353Y-66524741D01*
X105803783Y-66526634D01*
X105582540Y-66662212D01*
X105385230Y-66830730D01*
X105382017Y-66834492D01*
X105330311Y-66895032D01*
X105270861Y-66933842D01*
X105199866Y-66934349D01*
X105139867Y-66896392D01*
X105109914Y-66832024D01*
X105108500Y-66813202D01*
X105108500Y-60884500D01*
X105128502Y-60816379D01*
X105182158Y-60769886D01*
X105234500Y-60758500D01*
X108900720Y-60758500D01*
X108968841Y-60778502D01*
G37*
%TD.AperFunction*%
%TA.AperFunction,Conductor*%
G36*
X130720707Y-87009163D02*
G01*
X130777543Y-87051710D01*
X130787541Y-87067831D01*
X130788266Y-87069616D01*
X130790963Y-87074017D01*
X130888579Y-87233312D01*
X130904987Y-87260088D01*
X131051250Y-87428938D01*
X131223126Y-87571632D01*
X131267225Y-87597401D01*
X131309070Y-87621853D01*
X131357794Y-87673491D01*
X131371500Y-87730641D01*
X131371500Y-100523922D01*
X131351498Y-100592043D01*
X131297842Y-100638536D01*
X131227568Y-100648640D01*
X131162988Y-100619146D01*
X131122981Y-100553336D01*
X131115919Y-100523922D01*
X131101115Y-100462258D01*
X131020655Y-100268011D01*
X131008229Y-100238011D01*
X131008227Y-100238007D01*
X131006334Y-100233437D01*
X130876925Y-100022260D01*
X130716073Y-99833927D01*
X130527740Y-99673075D01*
X130316563Y-99543666D01*
X130311993Y-99541773D01*
X130311989Y-99541771D01*
X130211282Y-99500057D01*
X130156001Y-99455508D01*
X130133500Y-99383648D01*
X130133500Y-97535427D01*
X130153502Y-97467306D01*
X130194618Y-97427550D01*
X130197994Y-97425896D01*
X130379860Y-97296173D01*
X130538096Y-97138489D01*
X130597594Y-97055689D01*
X130665435Y-96961277D01*
X130668453Y-96957077D01*
X130735497Y-96821424D01*
X130765136Y-96761453D01*
X130765137Y-96761451D01*
X130767430Y-96756811D01*
X130832370Y-96543069D01*
X130861529Y-96321590D01*
X130863156Y-96255000D01*
X130844852Y-96032361D01*
X130790431Y-95815702D01*
X130701354Y-95610840D01*
X130625379Y-95493401D01*
X130582822Y-95427617D01*
X130582820Y-95427614D01*
X130580014Y-95423277D01*
X130429670Y-95258051D01*
X130425619Y-95254852D01*
X130425615Y-95254848D01*
X130258414Y-95122800D01*
X130258410Y-95122798D01*
X130254359Y-95119598D01*
X130213053Y-95096796D01*
X130163084Y-95046364D01*
X130148312Y-94976921D01*
X130173428Y-94910516D01*
X130200780Y-94883909D01*
X130255735Y-94844710D01*
X130379860Y-94756173D01*
X130538096Y-94598489D01*
X130597594Y-94515689D01*
X130665435Y-94421277D01*
X130668453Y-94417077D01*
X130767430Y-94216811D01*
X130832370Y-94003069D01*
X130861529Y-93781590D01*
X130863156Y-93715000D01*
X130844852Y-93492361D01*
X130790431Y-93275702D01*
X130701354Y-93070840D01*
X130580014Y-92883277D01*
X130576532Y-92879450D01*
X130432798Y-92721488D01*
X130401746Y-92657642D01*
X130410141Y-92587143D01*
X130455317Y-92532375D01*
X130481761Y-92518706D01*
X130588297Y-92478767D01*
X130596705Y-92475615D01*
X130713261Y-92388261D01*
X130800615Y-92271705D01*
X130851745Y-92135316D01*
X130858500Y-92073134D01*
X130858500Y-90276866D01*
X130851745Y-90214684D01*
X130800615Y-90078295D01*
X130713261Y-89961739D01*
X130596705Y-89874385D01*
X130460316Y-89823255D01*
X130398134Y-89816500D01*
X128601866Y-89816500D01*
X128539684Y-89823255D01*
X128403295Y-89874385D01*
X128286739Y-89961739D01*
X128199385Y-90078295D01*
X128148255Y-90214684D01*
X128141500Y-90276866D01*
X128141500Y-92073134D01*
X128148255Y-92135316D01*
X128199385Y-92271705D01*
X128286739Y-92388261D01*
X128403295Y-92475615D01*
X128411704Y-92478767D01*
X128411705Y-92478768D01*
X128520451Y-92519535D01*
X128577216Y-92562176D01*
X128601916Y-92628738D01*
X128586709Y-92698087D01*
X128567316Y-92724568D01*
X128497060Y-92798087D01*
X128440629Y-92857138D01*
X128314743Y-93041680D01*
X128220688Y-93244305D01*
X128160989Y-93459570D01*
X128137251Y-93681695D01*
X128137548Y-93686848D01*
X128137548Y-93686851D01*
X128143011Y-93781590D01*
X128150110Y-93904715D01*
X128151247Y-93909761D01*
X128151248Y-93909767D01*
X128171119Y-93997939D01*
X128199222Y-94122639D01*
X128283266Y-94329616D01*
X128399987Y-94520088D01*
X128546250Y-94688938D01*
X128718126Y-94831632D01*
X128760123Y-94856173D01*
X128791445Y-94874476D01*
X128840169Y-94926114D01*
X128853240Y-94995897D01*
X128826509Y-95061669D01*
X128786055Y-95095027D01*
X128773607Y-95101507D01*
X128769474Y-95104610D01*
X128769471Y-95104612D01*
X128599100Y-95232530D01*
X128594965Y-95235635D01*
X128573544Y-95258051D01*
X128458447Y-95378493D01*
X128440629Y-95397138D01*
X128314743Y-95581680D01*
X128220688Y-95784305D01*
X128160989Y-95999570D01*
X128137251Y-96221695D01*
X128137548Y-96226848D01*
X128137548Y-96226851D01*
X128143011Y-96321590D01*
X128150110Y-96444715D01*
X128151247Y-96449761D01*
X128151248Y-96449767D01*
X128171119Y-96537939D01*
X128199222Y-96662639D01*
X128283266Y-96869616D01*
X128285965Y-96874020D01*
X128393295Y-97049167D01*
X128399987Y-97060088D01*
X128546250Y-97228938D01*
X128718126Y-97371632D01*
X128765254Y-97399171D01*
X128804070Y-97421853D01*
X128852794Y-97473491D01*
X128866500Y-97530641D01*
X128866500Y-99483481D01*
X128846498Y-99551602D01*
X128806335Y-99590914D01*
X128672260Y-99673075D01*
X128483927Y-99833927D01*
X128323075Y-100022260D01*
X128193666Y-100233437D01*
X128191773Y-100238007D01*
X128191771Y-100238011D01*
X128179345Y-100268011D01*
X128098885Y-100462258D01*
X128091683Y-100492258D01*
X128042221Y-100698276D01*
X128042220Y-100698282D01*
X128041066Y-100703089D01*
X128021634Y-100950000D01*
X128041066Y-101196911D01*
X128042220Y-101201718D01*
X128042221Y-101201724D01*
X128062237Y-101285095D01*
X128098885Y-101437742D01*
X128100778Y-101442313D01*
X128100779Y-101442315D01*
X128113206Y-101472315D01*
X128193666Y-101666563D01*
X128323075Y-101877740D01*
X128483927Y-102066073D01*
X128672260Y-102226925D01*
X128883437Y-102356334D01*
X128888007Y-102358227D01*
X128888011Y-102358229D01*
X129107685Y-102449221D01*
X129112258Y-102451115D01*
X129197170Y-102471501D01*
X129348276Y-102507779D01*
X129348282Y-102507780D01*
X129353089Y-102508934D01*
X129600000Y-102528366D01*
X129846911Y-102508934D01*
X129851718Y-102507780D01*
X129851724Y-102507779D01*
X130002830Y-102471501D01*
X130087742Y-102451115D01*
X130092315Y-102449221D01*
X130311989Y-102358229D01*
X130311993Y-102358227D01*
X130316563Y-102356334D01*
X130527740Y-102226925D01*
X130716073Y-102066073D01*
X130876925Y-101877740D01*
X131006334Y-101666563D01*
X131086795Y-101472315D01*
X131099221Y-101442315D01*
X131099222Y-101442313D01*
X131101115Y-101437742D01*
X131122981Y-101346664D01*
X131158333Y-101285095D01*
X131221360Y-101252412D01*
X131292051Y-101258993D01*
X131347962Y-101302747D01*
X131371500Y-101376078D01*
X131371500Y-108823922D01*
X131351498Y-108892043D01*
X131297842Y-108938536D01*
X131227568Y-108948640D01*
X131162988Y-108919146D01*
X131122981Y-108853336D01*
X131115919Y-108823922D01*
X131101115Y-108762258D01*
X131020655Y-108568011D01*
X131008229Y-108538011D01*
X131008227Y-108538007D01*
X131006334Y-108533437D01*
X130876925Y-108322260D01*
X130716073Y-108133927D01*
X130527740Y-107973075D01*
X130316563Y-107843666D01*
X130311993Y-107841773D01*
X130311989Y-107841771D01*
X130092315Y-107750779D01*
X130092313Y-107750778D01*
X130087742Y-107748885D01*
X129970253Y-107720678D01*
X129851724Y-107692221D01*
X129851718Y-107692220D01*
X129846911Y-107691066D01*
X129600000Y-107671634D01*
X129353089Y-107691066D01*
X129348282Y-107692220D01*
X129348276Y-107692221D01*
X129229747Y-107720678D01*
X129112258Y-107748885D01*
X129107687Y-107750778D01*
X129107685Y-107750779D01*
X128888011Y-107841771D01*
X128888007Y-107841773D01*
X128883437Y-107843666D01*
X128672260Y-107973075D01*
X128483927Y-108133927D01*
X128323075Y-108322260D01*
X128193666Y-108533437D01*
X128191773Y-108538007D01*
X128191771Y-108538011D01*
X128179345Y-108568011D01*
X128098885Y-108762258D01*
X128091683Y-108792258D01*
X128042221Y-108998276D01*
X128042220Y-108998282D01*
X128041066Y-109003089D01*
X128021634Y-109250000D01*
X128041066Y-109496911D01*
X128042220Y-109501718D01*
X128042221Y-109501724D01*
X128062237Y-109585095D01*
X128098885Y-109737742D01*
X128100778Y-109742313D01*
X128100779Y-109742315D01*
X128113206Y-109772315D01*
X128193666Y-109966563D01*
X128323075Y-110177740D01*
X128483927Y-110366073D01*
X128672260Y-110526925D01*
X128883437Y-110656334D01*
X128951656Y-110684591D01*
X128951658Y-110684592D01*
X129006938Y-110729141D01*
X129029359Y-110796504D01*
X129011801Y-110865295D01*
X128959838Y-110913674D01*
X128903439Y-110927001D01*
X128590331Y-110927001D01*
X128583510Y-110927371D01*
X128532648Y-110932895D01*
X128517396Y-110936521D01*
X128396946Y-110981676D01*
X128381351Y-110990214D01*
X128279276Y-111066715D01*
X128266715Y-111079276D01*
X128190214Y-111181351D01*
X128181676Y-111196946D01*
X128136522Y-111317394D01*
X128132895Y-111332649D01*
X128127369Y-111383514D01*
X128127000Y-111390328D01*
X128127000Y-112077885D01*
X128131475Y-112093124D01*
X128132865Y-112094329D01*
X128140548Y-112096000D01*
X131054884Y-112096000D01*
X131070123Y-112091525D01*
X131071328Y-112090135D01*
X131072999Y-112082452D01*
X131072999Y-111390331D01*
X131072629Y-111383510D01*
X131067105Y-111332648D01*
X131063479Y-111317396D01*
X131018324Y-111196946D01*
X131009786Y-111181351D01*
X130933285Y-111079276D01*
X130920724Y-111066715D01*
X130818649Y-110990214D01*
X130803054Y-110981676D01*
X130682606Y-110936522D01*
X130667351Y-110932895D01*
X130616486Y-110927369D01*
X130609672Y-110927000D01*
X130296562Y-110927000D01*
X130228441Y-110906998D01*
X130181948Y-110853342D01*
X130171844Y-110783068D01*
X130201338Y-110718488D01*
X130248343Y-110684592D01*
X130276640Y-110672871D01*
X130311989Y-110658229D01*
X130311993Y-110658227D01*
X130316563Y-110656334D01*
X130527740Y-110526925D01*
X130716073Y-110366073D01*
X130876925Y-110177740D01*
X131006334Y-109966563D01*
X131086795Y-109772315D01*
X131099221Y-109742315D01*
X131099222Y-109742313D01*
X131101115Y-109737742D01*
X131122981Y-109646664D01*
X131158333Y-109585095D01*
X131221360Y-109552412D01*
X131292051Y-109558993D01*
X131347962Y-109602747D01*
X131371500Y-109676078D01*
X131371500Y-117993922D01*
X131351498Y-118062043D01*
X131297842Y-118108536D01*
X131227568Y-118118640D01*
X131162988Y-118089146D01*
X131122981Y-118023336D01*
X131102270Y-117937070D01*
X131101115Y-117932258D01*
X131006334Y-117703437D01*
X130876925Y-117492260D01*
X130716073Y-117303927D01*
X130527740Y-117143075D01*
X130316563Y-117013666D01*
X130248342Y-116985408D01*
X130193062Y-116940859D01*
X130170641Y-116873496D01*
X130188199Y-116804705D01*
X130240162Y-116756326D01*
X130296561Y-116742999D01*
X130609669Y-116742999D01*
X130616490Y-116742629D01*
X130667352Y-116737105D01*
X130682604Y-116733479D01*
X130803054Y-116688324D01*
X130818649Y-116679786D01*
X130920724Y-116603285D01*
X130933285Y-116590724D01*
X131009786Y-116488649D01*
X131018324Y-116473054D01*
X131063478Y-116352606D01*
X131067105Y-116337351D01*
X131072631Y-116286486D01*
X131073000Y-116279672D01*
X131073000Y-115592115D01*
X131068525Y-115576876D01*
X131067135Y-115575671D01*
X131059452Y-115574000D01*
X128145116Y-115574000D01*
X128129877Y-115578475D01*
X128128672Y-115579865D01*
X128127001Y-115587548D01*
X128127001Y-116279669D01*
X128127371Y-116286490D01*
X128132895Y-116337352D01*
X128136521Y-116352604D01*
X128181676Y-116473054D01*
X128190214Y-116488649D01*
X128266715Y-116590724D01*
X128279276Y-116603285D01*
X128381351Y-116679786D01*
X128396946Y-116688324D01*
X128517394Y-116733478D01*
X128532649Y-116737105D01*
X128583514Y-116742631D01*
X128590328Y-116743000D01*
X128903438Y-116743000D01*
X128971559Y-116763002D01*
X129018052Y-116816658D01*
X129028156Y-116886932D01*
X128998662Y-116951512D01*
X128951657Y-116985408D01*
X128923360Y-116997129D01*
X128888011Y-117011771D01*
X128888007Y-117011773D01*
X128883437Y-117013666D01*
X128672260Y-117143075D01*
X128483927Y-117303927D01*
X128323075Y-117492260D01*
X128193666Y-117703437D01*
X128098885Y-117932258D01*
X128097730Y-117937070D01*
X128042221Y-118168276D01*
X128042220Y-118168282D01*
X128041066Y-118173089D01*
X128021634Y-118420000D01*
X128041066Y-118666911D01*
X128042220Y-118671718D01*
X128042221Y-118671724D01*
X128062237Y-118755095D01*
X128098885Y-118907742D01*
X128193666Y-119136563D01*
X128323075Y-119347740D01*
X128483927Y-119536073D01*
X128672260Y-119696925D01*
X128883437Y-119826334D01*
X128888007Y-119828227D01*
X128888011Y-119828229D01*
X129107685Y-119919221D01*
X129112258Y-119921115D01*
X129197170Y-119941501D01*
X129348276Y-119977779D01*
X129348282Y-119977780D01*
X129353089Y-119978934D01*
X129600000Y-119998366D01*
X129846911Y-119978934D01*
X129851718Y-119977780D01*
X129851724Y-119977779D01*
X130002830Y-119941501D01*
X130087742Y-119921115D01*
X130092315Y-119919221D01*
X130311989Y-119828229D01*
X130311993Y-119828227D01*
X130316563Y-119826334D01*
X130527740Y-119696925D01*
X130716073Y-119536073D01*
X130876925Y-119347740D01*
X131006334Y-119136563D01*
X131101115Y-118907742D01*
X131122981Y-118816664D01*
X131158333Y-118755095D01*
X131221360Y-118722412D01*
X131292051Y-118728993D01*
X131347962Y-118772747D01*
X131371500Y-118846078D01*
X131371500Y-125998706D01*
X131351498Y-126066827D01*
X131334595Y-126087801D01*
X131260530Y-126161866D01*
X131198218Y-126195892D01*
X131127403Y-126190827D01*
X131070567Y-126148280D01*
X131055026Y-126120989D01*
X131008229Y-126008011D01*
X131008227Y-126008007D01*
X131006334Y-126003437D01*
X130876925Y-125792260D01*
X130716073Y-125603927D01*
X130527740Y-125443075D01*
X130316563Y-125313666D01*
X130311993Y-125311773D01*
X130311989Y-125311771D01*
X130092315Y-125220779D01*
X130092313Y-125220778D01*
X130087742Y-125218885D01*
X130002830Y-125198499D01*
X129851724Y-125162221D01*
X129851718Y-125162220D01*
X129846911Y-125161066D01*
X129600000Y-125141634D01*
X129353089Y-125161066D01*
X129348282Y-125162220D01*
X129348276Y-125162221D01*
X129197170Y-125198499D01*
X129112258Y-125218885D01*
X129107687Y-125220778D01*
X129107685Y-125220779D01*
X128888011Y-125311771D01*
X128888007Y-125311773D01*
X128883437Y-125313666D01*
X128672260Y-125443075D01*
X128483927Y-125603927D01*
X128323075Y-125792260D01*
X128193666Y-126003437D01*
X128191773Y-126008007D01*
X128191771Y-126008011D01*
X128167409Y-126066827D01*
X128098885Y-126232258D01*
X128097730Y-126237070D01*
X128042221Y-126468276D01*
X128042220Y-126468282D01*
X128041066Y-126473089D01*
X128021634Y-126720000D01*
X128041066Y-126966911D01*
X128042220Y-126971718D01*
X128042221Y-126971724D01*
X128078499Y-127122830D01*
X128098885Y-127207742D01*
X128100778Y-127212313D01*
X128100779Y-127212315D01*
X128180344Y-127404400D01*
X128193666Y-127436563D01*
X128323075Y-127647740D01*
X128483927Y-127836073D01*
X128672260Y-127996925D01*
X128883437Y-128126334D01*
X128888007Y-128128227D01*
X128888011Y-128128229D01*
X129000989Y-128175026D01*
X129056270Y-128219575D01*
X129078691Y-128286938D01*
X129061133Y-128355729D01*
X129041866Y-128380530D01*
X127809710Y-129612685D01*
X127759552Y-129643423D01*
X127748125Y-129647136D01*
X127741432Y-129651384D01*
X127741429Y-129651385D01*
X127741169Y-129651550D01*
X127720042Y-129662315D01*
X127719754Y-129662429D01*
X127719749Y-129662432D01*
X127712383Y-129665348D01*
X127705975Y-129670004D01*
X127705969Y-129670007D01*
X127666948Y-129698358D01*
X127660411Y-129702801D01*
X127612982Y-129732900D01*
X127607557Y-129738677D01*
X127607555Y-129738679D01*
X127607341Y-129738907D01*
X127589554Y-129754588D01*
X127589309Y-129754766D01*
X127589307Y-129754768D01*
X127582893Y-129759428D01*
X127577839Y-129765537D01*
X127577838Y-129765538D01*
X127547097Y-129802696D01*
X127541866Y-129808630D01*
X127508842Y-129843798D01*
X127508841Y-129843800D01*
X127503414Y-129849579D01*
X127499594Y-129856528D01*
X127499445Y-129856799D01*
X127486119Y-129876406D01*
X127485920Y-129876646D01*
X127485916Y-129876653D01*
X127480867Y-129882756D01*
X127469397Y-129907132D01*
X127456953Y-129933576D01*
X127453371Y-129940608D01*
X127426305Y-129989840D01*
X127424335Y-129997515D01*
X127424332Y-129997521D01*
X127424256Y-129997819D01*
X127416224Y-130020128D01*
X127416094Y-130020403D01*
X127416091Y-130020411D01*
X127412717Y-130027582D01*
X127402195Y-130082743D01*
X127400471Y-130090458D01*
X127386500Y-130144870D01*
X127384887Y-130144456D01*
X127360263Y-130200923D01*
X127321815Y-130231823D01*
X127293607Y-130246507D01*
X127289472Y-130249612D01*
X127289469Y-130249614D01*
X127148333Y-130355582D01*
X127114965Y-130380635D01*
X126960629Y-130542138D01*
X126853201Y-130699621D01*
X126798293Y-130744621D01*
X126727768Y-130752792D01*
X126664021Y-130721538D01*
X126643324Y-130697054D01*
X126562822Y-130572617D01*
X126562820Y-130572614D01*
X126560014Y-130568277D01*
X126409670Y-130403051D01*
X126405619Y-130399851D01*
X126405615Y-130399848D01*
X126402434Y-130397336D01*
X126361376Y-130339416D01*
X126358150Y-130268493D01*
X126391439Y-130209365D01*
X127047347Y-129553457D01*
X127055637Y-129545913D01*
X127062118Y-129541800D01*
X127108759Y-129492132D01*
X127111513Y-129489291D01*
X127131234Y-129469570D01*
X127133712Y-129466375D01*
X127141418Y-129457353D01*
X127166258Y-129430901D01*
X127171686Y-129425121D01*
X127181446Y-129407368D01*
X127192299Y-129390845D01*
X127199853Y-129381106D01*
X127204713Y-129374841D01*
X127222276Y-129334257D01*
X127227483Y-129323627D01*
X127248795Y-129284860D01*
X127250766Y-129277183D01*
X127250768Y-129277178D01*
X127253832Y-129265242D01*
X127260238Y-129246530D01*
X127265134Y-129235217D01*
X127268281Y-129227945D01*
X127275197Y-129184281D01*
X127277604Y-129172660D01*
X127286628Y-129137511D01*
X127286628Y-129137510D01*
X127288600Y-129129830D01*
X127288600Y-129109569D01*
X127290151Y-129089858D01*
X127292079Y-129077685D01*
X127293319Y-129069857D01*
X127289159Y-129025846D01*
X127288600Y-129013989D01*
X127288600Y-121763226D01*
X128095308Y-121763226D01*
X128095605Y-121768378D01*
X128095605Y-121768382D01*
X128107255Y-121970414D01*
X128109507Y-122009475D01*
X128110644Y-122014521D01*
X128110645Y-122014527D01*
X128132825Y-122112945D01*
X128163734Y-122250099D01*
X128165676Y-122254881D01*
X128165677Y-122254885D01*
X128207840Y-122358720D01*
X128256532Y-122478634D01*
X128385411Y-122688945D01*
X128546908Y-122875382D01*
X128736687Y-123032939D01*
X128741139Y-123035541D01*
X128741144Y-123035544D01*
X128945192Y-123154780D01*
X128949650Y-123157385D01*
X129180079Y-123245377D01*
X129185147Y-123246408D01*
X129185150Y-123246409D01*
X129300760Y-123269930D01*
X129421785Y-123294553D01*
X129426960Y-123294743D01*
X129426962Y-123294743D01*
X129663114Y-123303403D01*
X129663118Y-123303403D01*
X129668278Y-123303592D01*
X129673398Y-123302936D01*
X129673400Y-123302936D01*
X129751986Y-123292869D01*
X129912936Y-123272250D01*
X129917887Y-123270765D01*
X129917890Y-123270764D01*
X130144248Y-123202853D01*
X130149191Y-123201370D01*
X130370697Y-123092856D01*
X130451046Y-123035544D01*
X130567302Y-122952619D01*
X130571505Y-122949621D01*
X130593709Y-122927495D01*
X130742562Y-122779160D01*
X130746223Y-122775512D01*
X130890158Y-122575205D01*
X130999445Y-122354079D01*
X131032569Y-122245057D01*
X131069645Y-122123026D01*
X131069646Y-122123020D01*
X131071149Y-122118074D01*
X131103344Y-121873526D01*
X131105141Y-121800000D01*
X131097161Y-121702940D01*
X131085354Y-121559322D01*
X131085353Y-121559316D01*
X131084930Y-121554171D01*
X131024841Y-121314945D01*
X131011934Y-121285261D01*
X130928546Y-121093481D01*
X130928544Y-121093478D01*
X130926486Y-121088744D01*
X130792508Y-120881645D01*
X130766247Y-120852784D01*
X130629982Y-120703032D01*
X130629980Y-120703031D01*
X130626504Y-120699210D01*
X130622453Y-120696011D01*
X130622449Y-120696007D01*
X130436987Y-120549538D01*
X130436983Y-120549536D01*
X130432932Y-120546336D01*
X130396746Y-120526360D01*
X130376113Y-120514970D01*
X130216992Y-120427131D01*
X130212123Y-120425407D01*
X130212119Y-120425405D01*
X129989357Y-120346520D01*
X129989353Y-120346519D01*
X129984482Y-120344794D01*
X129979389Y-120343887D01*
X129979386Y-120343886D01*
X129875844Y-120325443D01*
X129741646Y-120301539D01*
X129648783Y-120300404D01*
X129500177Y-120298588D01*
X129500175Y-120298588D01*
X129495007Y-120298525D01*
X129251187Y-120335835D01*
X129016734Y-120412466D01*
X128797946Y-120526360D01*
X128793813Y-120529463D01*
X128793810Y-120529465D01*
X128604832Y-120671353D01*
X128600697Y-120674458D01*
X128430286Y-120852784D01*
X128291288Y-121056548D01*
X128187436Y-121280278D01*
X128121519Y-121517965D01*
X128095308Y-121763226D01*
X127288600Y-121763226D01*
X127288600Y-115047885D01*
X128127000Y-115047885D01*
X128131475Y-115063124D01*
X128132865Y-115064329D01*
X128140548Y-115066000D01*
X131054884Y-115066000D01*
X131070123Y-115061525D01*
X131071328Y-115060135D01*
X131072999Y-115052452D01*
X131072999Y-114360331D01*
X131072629Y-114353510D01*
X131067105Y-114302648D01*
X131063479Y-114287396D01*
X131018324Y-114166946D01*
X131009786Y-114151351D01*
X130933285Y-114049276D01*
X130920724Y-114036715D01*
X130818649Y-113960214D01*
X130795182Y-113947366D01*
X130796313Y-113945300D01*
X130749773Y-113910339D01*
X130725074Y-113843777D01*
X130740282Y-113774429D01*
X130790569Y-113724311D01*
X130799911Y-113720045D01*
X130818649Y-113709786D01*
X130920724Y-113633285D01*
X130933285Y-113620724D01*
X131009786Y-113518649D01*
X131018324Y-113503054D01*
X131063478Y-113382606D01*
X131067105Y-113367351D01*
X131072631Y-113316486D01*
X131073000Y-113309672D01*
X131073000Y-112622115D01*
X131068525Y-112606876D01*
X131067135Y-112605671D01*
X131059452Y-112604000D01*
X128145116Y-112604000D01*
X128129877Y-112608475D01*
X128128672Y-112609865D01*
X128127001Y-112617548D01*
X128127001Y-113309669D01*
X128127371Y-113316490D01*
X128132895Y-113367352D01*
X128136521Y-113382604D01*
X128181676Y-113503054D01*
X128190214Y-113518649D01*
X128266715Y-113620724D01*
X128279276Y-113633285D01*
X128381351Y-113709786D01*
X128404818Y-113722634D01*
X128403687Y-113724700D01*
X128450227Y-113759661D01*
X128474926Y-113826223D01*
X128459718Y-113895571D01*
X128409431Y-113945689D01*
X128400089Y-113949955D01*
X128381351Y-113960214D01*
X128279276Y-114036715D01*
X128266715Y-114049276D01*
X128190214Y-114151351D01*
X128181676Y-114166946D01*
X128136522Y-114287394D01*
X128132895Y-114302649D01*
X128127369Y-114353514D01*
X128127000Y-114360328D01*
X128127000Y-115047885D01*
X127288600Y-115047885D01*
X127288600Y-105870000D01*
X128094859Y-105870000D01*
X128099925Y-105931618D01*
X128114646Y-106110678D01*
X128114647Y-106110684D01*
X128115070Y-106115829D01*
X128175159Y-106355055D01*
X128177217Y-106359788D01*
X128177218Y-106359791D01*
X128192270Y-106394407D01*
X128273514Y-106581256D01*
X128407492Y-106788355D01*
X128410971Y-106792178D01*
X128410973Y-106792181D01*
X128464452Y-106850953D01*
X128573496Y-106970790D01*
X128577547Y-106973989D01*
X128577551Y-106973993D01*
X128763013Y-107120462D01*
X128763017Y-107120464D01*
X128767068Y-107123664D01*
X128771589Y-107126160D01*
X128771591Y-107126161D01*
X128807582Y-107146029D01*
X128983008Y-107242869D01*
X128987877Y-107244593D01*
X128987881Y-107244595D01*
X129210643Y-107323480D01*
X129210647Y-107323481D01*
X129215518Y-107325206D01*
X129220611Y-107326113D01*
X129220614Y-107326114D01*
X129324156Y-107344557D01*
X129458354Y-107368461D01*
X129551217Y-107369596D01*
X129699823Y-107371412D01*
X129699825Y-107371412D01*
X129704993Y-107371475D01*
X129948813Y-107334165D01*
X130183266Y-107257534D01*
X130269617Y-107212582D01*
X130397465Y-107146029D01*
X130397466Y-107146028D01*
X130402054Y-107143640D01*
X130406187Y-107140537D01*
X130406190Y-107140535D01*
X130595168Y-106998647D01*
X130595171Y-106998645D01*
X130599303Y-106995542D01*
X130769714Y-106817216D01*
X130908712Y-106613452D01*
X131012564Y-106389722D01*
X131078481Y-106152035D01*
X131104692Y-105906774D01*
X131104302Y-105900000D01*
X131090791Y-105665694D01*
X131090493Y-105660525D01*
X131089356Y-105655479D01*
X131089355Y-105655473D01*
X131037402Y-105424943D01*
X131036266Y-105419901D01*
X131004342Y-105341280D01*
X130945412Y-105196153D01*
X130945411Y-105196151D01*
X130943468Y-105191366D01*
X130814589Y-104981055D01*
X130799486Y-104963619D01*
X130751084Y-104907743D01*
X130653092Y-104794618D01*
X130483714Y-104653998D01*
X130467288Y-104640361D01*
X130467287Y-104640360D01*
X130463313Y-104637061D01*
X130458861Y-104634459D01*
X130458856Y-104634456D01*
X130254808Y-104515220D01*
X130254807Y-104515220D01*
X130250350Y-104512615D01*
X130019921Y-104424623D01*
X130014853Y-104423592D01*
X130014850Y-104423591D01*
X129881241Y-104396408D01*
X129778215Y-104375447D01*
X129773040Y-104375257D01*
X129773038Y-104375257D01*
X129536886Y-104366597D01*
X129536882Y-104366597D01*
X129531722Y-104366408D01*
X129526602Y-104367064D01*
X129526600Y-104367064D01*
X129462646Y-104375257D01*
X129287064Y-104397750D01*
X129282113Y-104399235D01*
X129282110Y-104399236D01*
X129091347Y-104456468D01*
X129050809Y-104468630D01*
X129046177Y-104470899D01*
X129046175Y-104470900D01*
X128945441Y-104520249D01*
X128829303Y-104577144D01*
X128825098Y-104580143D01*
X128825097Y-104580144D01*
X128745302Y-104637061D01*
X128628495Y-104720379D01*
X128624838Y-104724024D01*
X128624836Y-104724025D01*
X128566995Y-104781665D01*
X128453777Y-104894488D01*
X128309842Y-105094795D01*
X128307551Y-105099431D01*
X128307549Y-105099434D01*
X128280461Y-105154243D01*
X128200555Y-105315921D01*
X128199050Y-105320875D01*
X128130355Y-105546974D01*
X128130354Y-105546980D01*
X128128851Y-105551926D01*
X128096656Y-105796474D01*
X128094859Y-105870000D01*
X127288600Y-105870000D01*
X127288600Y-90389294D01*
X127308602Y-90321173D01*
X127325505Y-90300199D01*
X130587580Y-87038124D01*
X130649892Y-87004098D01*
X130720707Y-87009163D01*
G37*
%TD.AperFunction*%
%TA.AperFunction,Conductor*%
G36*
X128529984Y-68282742D02*
G01*
X128572528Y-68310732D01*
X132180383Y-71918587D01*
X132214409Y-71980899D01*
X132209344Y-72051714D01*
X132166797Y-72108550D01*
X132152747Y-72116964D01*
X132153000Y-72117402D01*
X132148236Y-72120152D01*
X132143251Y-72122477D01*
X132138747Y-72125631D01*
X131960211Y-72250643D01*
X131960208Y-72250645D01*
X131955700Y-72253802D01*
X131793802Y-72415700D01*
X131790645Y-72420208D01*
X131790643Y-72420211D01*
X131743911Y-72486952D01*
X131662477Y-72603251D01*
X131660154Y-72608233D01*
X131660151Y-72608238D01*
X131607966Y-72720151D01*
X131565716Y-72810757D01*
X131564294Y-72816065D01*
X131564293Y-72816067D01*
X131507881Y-73026598D01*
X131506457Y-73031913D01*
X131486502Y-73260000D01*
X131506457Y-73488087D01*
X131565716Y-73709243D01*
X131568039Y-73714224D01*
X131568039Y-73714225D01*
X131660151Y-73911762D01*
X131660154Y-73911767D01*
X131662477Y-73916749D01*
X131665809Y-73921507D01*
X131782450Y-74088087D01*
X131793802Y-74104300D01*
X131955700Y-74266198D01*
X131960208Y-74269355D01*
X131960211Y-74269357D01*
X131985425Y-74287012D01*
X132143251Y-74397523D01*
X132148233Y-74399846D01*
X132148238Y-74399849D01*
X132183049Y-74416081D01*
X132236334Y-74462998D01*
X132255795Y-74531275D01*
X132235253Y-74599235D01*
X132183049Y-74644471D01*
X132148489Y-74660586D01*
X132138994Y-74666069D01*
X132086952Y-74702509D01*
X132078576Y-74712988D01*
X132085644Y-74726434D01*
X133070115Y-75710905D01*
X133104141Y-75773217D01*
X133099076Y-75844032D01*
X133070115Y-75889095D01*
X132084923Y-76874287D01*
X132078493Y-76886062D01*
X132087789Y-76898077D01*
X132138994Y-76933931D01*
X132148489Y-76939414D01*
X132345947Y-77031490D01*
X132356239Y-77035236D01*
X132566688Y-77091625D01*
X132577481Y-77093528D01*
X132794525Y-77112517D01*
X132805475Y-77112517D01*
X133022519Y-77093528D01*
X133033312Y-77091625D01*
X133152389Y-77059719D01*
X133223365Y-77061409D01*
X133282161Y-77101203D01*
X133310109Y-77166468D01*
X133311000Y-77181426D01*
X133311000Y-80468119D01*
X133290998Y-80536240D01*
X133237342Y-80582733D01*
X133167068Y-80592837D01*
X133102488Y-80563343D01*
X133085173Y-80544999D01*
X133081138Y-80539759D01*
X132937806Y-80382240D01*
X132930273Y-80375215D01*
X132763139Y-80243222D01*
X132754552Y-80237517D01*
X132568117Y-80134599D01*
X132558705Y-80130369D01*
X132357959Y-80059280D01*
X132347988Y-80056646D01*
X132276837Y-80043972D01*
X132263540Y-80045432D01*
X132259000Y-80059989D01*
X132259000Y-81503000D01*
X132238998Y-81571121D01*
X132185342Y-81617614D01*
X132133000Y-81629000D01*
X130688225Y-81629000D01*
X130674694Y-81632973D01*
X130673257Y-81642966D01*
X130703565Y-81777446D01*
X130706645Y-81787275D01*
X130786770Y-81984603D01*
X130791413Y-81993794D01*
X130902694Y-82175388D01*
X130908777Y-82183699D01*
X131048213Y-82344667D01*
X131055580Y-82351883D01*
X131219434Y-82487916D01*
X131227881Y-82493831D01*
X131296969Y-82534203D01*
X131345693Y-82585842D01*
X131358764Y-82655625D01*
X131332033Y-82721396D01*
X131291584Y-82754752D01*
X131278607Y-82761507D01*
X131274474Y-82764610D01*
X131274471Y-82764612D01*
X131150567Y-82857642D01*
X131099965Y-82895635D01*
X130945629Y-83057138D01*
X130819743Y-83241680D01*
X130725688Y-83444305D01*
X130665989Y-83659570D01*
X130642251Y-83881695D01*
X130642548Y-83886848D01*
X130642548Y-83886851D01*
X130652284Y-84055702D01*
X130655110Y-84104715D01*
X130656247Y-84109761D01*
X130656248Y-84109767D01*
X130676119Y-84197939D01*
X130704222Y-84322639D01*
X130788266Y-84529616D01*
X130904987Y-84720088D01*
X130908367Y-84723990D01*
X130925120Y-84743331D01*
X130954601Y-84807917D01*
X130944484Y-84878189D01*
X130918975Y-84914921D01*
X128578206Y-87255689D01*
X126262847Y-89571048D01*
X126254561Y-89578588D01*
X126248082Y-89582700D01*
X126242657Y-89588477D01*
X126201457Y-89632351D01*
X126198702Y-89635193D01*
X126178965Y-89654930D01*
X126176485Y-89658127D01*
X126168782Y-89667147D01*
X126138514Y-89699379D01*
X126134695Y-89706325D01*
X126134693Y-89706328D01*
X126128752Y-89717134D01*
X126117901Y-89733653D01*
X126105486Y-89749659D01*
X126102341Y-89756928D01*
X126102338Y-89756932D01*
X126087926Y-89790237D01*
X126082709Y-89800887D01*
X126061405Y-89839640D01*
X126059434Y-89847315D01*
X126059434Y-89847316D01*
X126056367Y-89859262D01*
X126049963Y-89877966D01*
X126041919Y-89896555D01*
X126040680Y-89904378D01*
X126040677Y-89904388D01*
X126035001Y-89940224D01*
X126032595Y-89951844D01*
X126031436Y-89956358D01*
X126021600Y-89994670D01*
X126021600Y-90014924D01*
X126020049Y-90034634D01*
X126016880Y-90054643D01*
X126017626Y-90062535D01*
X126021041Y-90098661D01*
X126021600Y-90110519D01*
X126021600Y-95071912D01*
X126001598Y-95140033D01*
X125947942Y-95186526D01*
X125877668Y-95196630D01*
X125813088Y-95167136D01*
X125806505Y-95161007D01*
X125739300Y-95093802D01*
X125734792Y-95090645D01*
X125734789Y-95090643D01*
X125621958Y-95011638D01*
X125551749Y-94962477D01*
X125546767Y-94960154D01*
X125546762Y-94960151D01*
X125349225Y-94868039D01*
X125349224Y-94868039D01*
X125344243Y-94865716D01*
X125338935Y-94864294D01*
X125338933Y-94864293D01*
X125128402Y-94807881D01*
X125128400Y-94807881D01*
X125123087Y-94806457D01*
X124895000Y-94786502D01*
X124666913Y-94806457D01*
X124661600Y-94807881D01*
X124661598Y-94807881D01*
X124451067Y-94864293D01*
X124451065Y-94864294D01*
X124445757Y-94865716D01*
X124440775Y-94868039D01*
X124440770Y-94868041D01*
X124437753Y-94869448D01*
X124436296Y-94869669D01*
X124435602Y-94869922D01*
X124435551Y-94869782D01*
X124367562Y-94880111D01*
X124302748Y-94851133D01*
X124263890Y-94791715D01*
X124258500Y-94755255D01*
X124258500Y-86421695D01*
X125562251Y-86421695D01*
X125562548Y-86426848D01*
X125562548Y-86426851D01*
X125568011Y-86521590D01*
X125575110Y-86644715D01*
X125576247Y-86649761D01*
X125576248Y-86649767D01*
X125590229Y-86711803D01*
X125624222Y-86862639D01*
X125662461Y-86956811D01*
X125695479Y-87038124D01*
X125708266Y-87069616D01*
X125730424Y-87105775D01*
X125808579Y-87233312D01*
X125824987Y-87260088D01*
X125971250Y-87428938D01*
X126143126Y-87571632D01*
X126336000Y-87684338D01*
X126340825Y-87686180D01*
X126340826Y-87686181D01*
X126407216Y-87711533D01*
X126544692Y-87764030D01*
X126549760Y-87765061D01*
X126549763Y-87765062D01*
X126636000Y-87782607D01*
X126763597Y-87808567D01*
X126768772Y-87808757D01*
X126768774Y-87808757D01*
X126981673Y-87816564D01*
X126981677Y-87816564D01*
X126986837Y-87816753D01*
X126991957Y-87816097D01*
X126991959Y-87816097D01*
X127203288Y-87789025D01*
X127203289Y-87789025D01*
X127208416Y-87788368D01*
X127213366Y-87786883D01*
X127417429Y-87725661D01*
X127417434Y-87725659D01*
X127422384Y-87724174D01*
X127622994Y-87625896D01*
X127804860Y-87496173D01*
X127963096Y-87338489D01*
X128022594Y-87255689D01*
X128090435Y-87161277D01*
X128093453Y-87157077D01*
X128113722Y-87116067D01*
X128190136Y-86961453D01*
X128190137Y-86961451D01*
X128192430Y-86956811D01*
X128257370Y-86743069D01*
X128286529Y-86521590D01*
X128288156Y-86455000D01*
X128269852Y-86232361D01*
X128215431Y-86015702D01*
X128126354Y-85810840D01*
X128036544Y-85672015D01*
X128007822Y-85627617D01*
X128007820Y-85627614D01*
X128005014Y-85623277D01*
X127854670Y-85458051D01*
X127850619Y-85454852D01*
X127850615Y-85454848D01*
X127683414Y-85322800D01*
X127683410Y-85322798D01*
X127679359Y-85319598D01*
X127638053Y-85296796D01*
X127588084Y-85246364D01*
X127573312Y-85176921D01*
X127598428Y-85110516D01*
X127625780Y-85083909D01*
X127669603Y-85052650D01*
X127804860Y-84956173D01*
X127846257Y-84914921D01*
X127959435Y-84802137D01*
X127963096Y-84798489D01*
X128022594Y-84715689D01*
X128090435Y-84621277D01*
X128093453Y-84617077D01*
X128192430Y-84416811D01*
X128257370Y-84203069D01*
X128286529Y-83981590D01*
X128286611Y-83978240D01*
X128288074Y-83918365D01*
X128288074Y-83918361D01*
X128288156Y-83915000D01*
X128269852Y-83692361D01*
X128215431Y-83475702D01*
X128126354Y-83270840D01*
X128036544Y-83132015D01*
X128007822Y-83087617D01*
X128007820Y-83087614D01*
X128005014Y-83083277D01*
X127997863Y-83075418D01*
X127857798Y-82921488D01*
X127826746Y-82857642D01*
X127835141Y-82787143D01*
X127880317Y-82732375D01*
X127906761Y-82718706D01*
X128013297Y-82678767D01*
X128021705Y-82675615D01*
X128138261Y-82588261D01*
X128225615Y-82471705D01*
X128276745Y-82335316D01*
X128283500Y-82273134D01*
X128283500Y-81109183D01*
X130669389Y-81109183D01*
X130670912Y-81117607D01*
X130683292Y-81121000D01*
X131732885Y-81121000D01*
X131748124Y-81116525D01*
X131749329Y-81115135D01*
X131751000Y-81107452D01*
X131751000Y-80058102D01*
X131747082Y-80044758D01*
X131732806Y-80042771D01*
X131694324Y-80048660D01*
X131684288Y-80051051D01*
X131481868Y-80117212D01*
X131472359Y-80121209D01*
X131283463Y-80219542D01*
X131274738Y-80225036D01*
X131104433Y-80352905D01*
X131096726Y-80359748D01*
X130949590Y-80513717D01*
X130943104Y-80521727D01*
X130823098Y-80697649D01*
X130818000Y-80706623D01*
X130728338Y-80899783D01*
X130724775Y-80909470D01*
X130669389Y-81109183D01*
X128283500Y-81109183D01*
X128283500Y-80476866D01*
X128276745Y-80414684D01*
X128225615Y-80278295D01*
X128138261Y-80161739D01*
X128021705Y-80074385D01*
X127885316Y-80023255D01*
X127823134Y-80016500D01*
X126026866Y-80016500D01*
X125964684Y-80023255D01*
X125828295Y-80074385D01*
X125711739Y-80161739D01*
X125624385Y-80278295D01*
X125573255Y-80414684D01*
X125566500Y-80476866D01*
X125566500Y-82273134D01*
X125573255Y-82335316D01*
X125624385Y-82471705D01*
X125711739Y-82588261D01*
X125828295Y-82675615D01*
X125836704Y-82678767D01*
X125836705Y-82678768D01*
X125945451Y-82719535D01*
X126002216Y-82762176D01*
X126026916Y-82828738D01*
X126011709Y-82898087D01*
X125992316Y-82924568D01*
X125865629Y-83057138D01*
X125739743Y-83241680D01*
X125645688Y-83444305D01*
X125585989Y-83659570D01*
X125562251Y-83881695D01*
X125562548Y-83886848D01*
X125562548Y-83886851D01*
X125572284Y-84055702D01*
X125575110Y-84104715D01*
X125576247Y-84109761D01*
X125576248Y-84109767D01*
X125596119Y-84197939D01*
X125624222Y-84322639D01*
X125708266Y-84529616D01*
X125710965Y-84534020D01*
X125808579Y-84693312D01*
X125824987Y-84720088D01*
X125971250Y-84888938D01*
X126143126Y-85031632D01*
X126213595Y-85072811D01*
X126216445Y-85074476D01*
X126265169Y-85126114D01*
X126278240Y-85195897D01*
X126251509Y-85261669D01*
X126211055Y-85295027D01*
X126198607Y-85301507D01*
X126194474Y-85304610D01*
X126194471Y-85304612D01*
X126170247Y-85322800D01*
X126019965Y-85435635D01*
X125865629Y-85597138D01*
X125739743Y-85781680D01*
X125645688Y-85984305D01*
X125585989Y-86199570D01*
X125562251Y-86421695D01*
X124258500Y-86421695D01*
X124258500Y-75700000D01*
X125686502Y-75700000D01*
X125706457Y-75928087D01*
X125707881Y-75933400D01*
X125707881Y-75933402D01*
X125711243Y-75945947D01*
X125765716Y-76149243D01*
X125768039Y-76154224D01*
X125768039Y-76154225D01*
X125860151Y-76351762D01*
X125860154Y-76351767D01*
X125862477Y-76356749D01*
X125912289Y-76427887D01*
X125982450Y-76528087D01*
X125993802Y-76544300D01*
X126155700Y-76706198D01*
X126160208Y-76709355D01*
X126160211Y-76709357D01*
X126205261Y-76740901D01*
X126343251Y-76837523D01*
X126348233Y-76839846D01*
X126348238Y-76839849D01*
X126532207Y-76925634D01*
X126550757Y-76934284D01*
X126556065Y-76935706D01*
X126556067Y-76935707D01*
X126766598Y-76992119D01*
X126766600Y-76992119D01*
X126771913Y-76993543D01*
X127000000Y-77013498D01*
X127228087Y-76993543D01*
X127233400Y-76992119D01*
X127233402Y-76992119D01*
X127443933Y-76935707D01*
X127443935Y-76935706D01*
X127449243Y-76934284D01*
X127467793Y-76925634D01*
X127651762Y-76839849D01*
X127651767Y-76839846D01*
X127656749Y-76837523D01*
X127794739Y-76740901D01*
X127839789Y-76709357D01*
X127839792Y-76709355D01*
X127844300Y-76706198D01*
X128006198Y-76544300D01*
X128017551Y-76528087D01*
X128087711Y-76427887D01*
X128137523Y-76356749D01*
X128139846Y-76351767D01*
X128139849Y-76351762D01*
X128231961Y-76154225D01*
X128231961Y-76154224D01*
X128234284Y-76149243D01*
X128288758Y-75945947D01*
X128292119Y-75933402D01*
X128292119Y-75933400D01*
X128293543Y-75928087D01*
X128304270Y-75805475D01*
X131487483Y-75805475D01*
X131506472Y-76022519D01*
X131508375Y-76033312D01*
X131564764Y-76243761D01*
X131568510Y-76254053D01*
X131660586Y-76451511D01*
X131666069Y-76461006D01*
X131702509Y-76513048D01*
X131712988Y-76521424D01*
X131726434Y-76514356D01*
X132427978Y-75812812D01*
X132435592Y-75798868D01*
X132435461Y-75797035D01*
X132431210Y-75790420D01*
X131725713Y-75084923D01*
X131713938Y-75078493D01*
X131701923Y-75087789D01*
X131666069Y-75138994D01*
X131660586Y-75148489D01*
X131568510Y-75345947D01*
X131564764Y-75356239D01*
X131508375Y-75566688D01*
X131506472Y-75577481D01*
X131487483Y-75794525D01*
X131487483Y-75805475D01*
X128304270Y-75805475D01*
X128313498Y-75700000D01*
X128293543Y-75471913D01*
X128290492Y-75460527D01*
X128235707Y-75256067D01*
X128235706Y-75256065D01*
X128234284Y-75250757D01*
X128211786Y-75202509D01*
X128139849Y-75048238D01*
X128139846Y-75048233D01*
X128137523Y-75043251D01*
X128006198Y-74855700D01*
X127844300Y-74693802D01*
X127839792Y-74690645D01*
X127839789Y-74690643D01*
X127679035Y-74578082D01*
X127656749Y-74562477D01*
X127651765Y-74560153D01*
X127649472Y-74558829D01*
X127600479Y-74507447D01*
X127587043Y-74437733D01*
X127613429Y-74371822D01*
X127649472Y-74340591D01*
X127661002Y-74333934D01*
X127713048Y-74297491D01*
X127721424Y-74287012D01*
X127714356Y-74273566D01*
X127012812Y-73572022D01*
X126998868Y-73564408D01*
X126997035Y-73564539D01*
X126990420Y-73568790D01*
X126284923Y-74274287D01*
X126278493Y-74286062D01*
X126287789Y-74298077D01*
X126338998Y-74333934D01*
X126350528Y-74340591D01*
X126399521Y-74391973D01*
X126412958Y-74461687D01*
X126386571Y-74527598D01*
X126350528Y-74558829D01*
X126348235Y-74560153D01*
X126343251Y-74562477D01*
X126320965Y-74578082D01*
X126160211Y-74690643D01*
X126160208Y-74690645D01*
X126155700Y-74693802D01*
X125993802Y-74855700D01*
X125862477Y-75043251D01*
X125860154Y-75048233D01*
X125860151Y-75048238D01*
X125788214Y-75202509D01*
X125765716Y-75250757D01*
X125764294Y-75256065D01*
X125764293Y-75256067D01*
X125709508Y-75460527D01*
X125706457Y-75471913D01*
X125686502Y-75700000D01*
X124258500Y-75700000D01*
X124258500Y-73205475D01*
X125687483Y-73205475D01*
X125706472Y-73422519D01*
X125708375Y-73433312D01*
X125764764Y-73643761D01*
X125768510Y-73654053D01*
X125860586Y-73851511D01*
X125866069Y-73861006D01*
X125902509Y-73913048D01*
X125912988Y-73921424D01*
X125926434Y-73914356D01*
X126627978Y-73212812D01*
X126634356Y-73201132D01*
X127364408Y-73201132D01*
X127364539Y-73202965D01*
X127368790Y-73209580D01*
X128074287Y-73915077D01*
X128086062Y-73921507D01*
X128098077Y-73912211D01*
X128133931Y-73861006D01*
X128139414Y-73851511D01*
X128231490Y-73654053D01*
X128235236Y-73643761D01*
X128291625Y-73433312D01*
X128293528Y-73422519D01*
X128312517Y-73205475D01*
X128312517Y-73194525D01*
X128293528Y-72977481D01*
X128291625Y-72966688D01*
X128235236Y-72756239D01*
X128231490Y-72745947D01*
X128139414Y-72548489D01*
X128133931Y-72538994D01*
X128097491Y-72486952D01*
X128087012Y-72478576D01*
X128073566Y-72485644D01*
X127372022Y-73187188D01*
X127364408Y-73201132D01*
X126634356Y-73201132D01*
X126635592Y-73198868D01*
X126635461Y-73197035D01*
X126631210Y-73190420D01*
X125925713Y-72484923D01*
X125913938Y-72478493D01*
X125901923Y-72487789D01*
X125866069Y-72538994D01*
X125860586Y-72548489D01*
X125768510Y-72745947D01*
X125764764Y-72756239D01*
X125708375Y-72966688D01*
X125706472Y-72977481D01*
X125687483Y-73194525D01*
X125687483Y-73205475D01*
X124258500Y-73205475D01*
X124258500Y-72112988D01*
X126278576Y-72112988D01*
X126285644Y-72126434D01*
X126987188Y-72827978D01*
X127001132Y-72835592D01*
X127002965Y-72835461D01*
X127009580Y-72831210D01*
X127715077Y-72125713D01*
X127721507Y-72113938D01*
X127712211Y-72101923D01*
X127661006Y-72066069D01*
X127651511Y-72060586D01*
X127454053Y-71968510D01*
X127443761Y-71964764D01*
X127233312Y-71908375D01*
X127222519Y-71906472D01*
X127005475Y-71887483D01*
X126994525Y-71887483D01*
X126777481Y-71906472D01*
X126766688Y-71908375D01*
X126556239Y-71964764D01*
X126545947Y-71968510D01*
X126348489Y-72060586D01*
X126338994Y-72066069D01*
X126286952Y-72102509D01*
X126278576Y-72112988D01*
X124258500Y-72112988D01*
X124258500Y-71444094D01*
X124278502Y-71375973D01*
X124295405Y-71354999D01*
X126066761Y-69583643D01*
X126129073Y-69549617D01*
X126204074Y-69556329D01*
X126211754Y-69559510D01*
X126243510Y-69572664D01*
X126330702Y-69593597D01*
X126491007Y-69632083D01*
X126491013Y-69632084D01*
X126495820Y-69633238D01*
X126754500Y-69653597D01*
X127013180Y-69633238D01*
X127017987Y-69632084D01*
X127017993Y-69632083D01*
X127178298Y-69593597D01*
X127265490Y-69572664D01*
X127270063Y-69570770D01*
X127500643Y-69475261D01*
X127500647Y-69475259D01*
X127505217Y-69473366D01*
X127726460Y-69337788D01*
X127923770Y-69169270D01*
X128092288Y-68971960D01*
X128227866Y-68750717D01*
X128253953Y-68687739D01*
X128325270Y-68515563D01*
X128325271Y-68515561D01*
X128327164Y-68510990D01*
X128338012Y-68465804D01*
X128360914Y-68370413D01*
X128396267Y-68308843D01*
X128459293Y-68276161D01*
X128529984Y-68282742D01*
G37*
%TD.AperFunction*%
%TA.AperFunction,Conductor*%
G36*
X117514933Y-60778502D02*
G01*
X117561426Y-60832158D01*
X117571530Y-60902432D01*
X117542036Y-60967012D01*
X117535907Y-60973595D01*
X117453802Y-61055700D01*
X117450645Y-61060208D01*
X117450643Y-61060211D01*
X117445162Y-61068039D01*
X117322477Y-61243251D01*
X117320154Y-61248233D01*
X117320151Y-61248238D01*
X117279852Y-61334661D01*
X117225716Y-61450757D01*
X117224294Y-61456065D01*
X117224293Y-61456067D01*
X117168985Y-61662477D01*
X117166457Y-61671913D01*
X117146502Y-61900000D01*
X117166457Y-62128087D01*
X117167881Y-62133400D01*
X117167881Y-62133402D01*
X117199375Y-62250936D01*
X117225716Y-62349243D01*
X117228039Y-62354224D01*
X117228039Y-62354225D01*
X117320151Y-62551762D01*
X117320154Y-62551767D01*
X117322477Y-62556749D01*
X117453802Y-62744300D01*
X117615700Y-62906198D01*
X117620208Y-62909355D01*
X117620211Y-62909357D01*
X117631902Y-62917543D01*
X117803251Y-63037523D01*
X117808233Y-63039846D01*
X117808238Y-63039849D01*
X117971439Y-63115950D01*
X118010757Y-63134284D01*
X118016065Y-63135706D01*
X118016067Y-63135707D01*
X118226598Y-63192119D01*
X118226600Y-63192119D01*
X118231913Y-63193543D01*
X118460000Y-63213498D01*
X118688087Y-63193543D01*
X118693400Y-63192119D01*
X118693402Y-63192119D01*
X118903933Y-63135707D01*
X118903935Y-63135706D01*
X118909243Y-63134284D01*
X118948561Y-63115950D01*
X119111762Y-63039849D01*
X119111767Y-63039846D01*
X119116749Y-63037523D01*
X119288098Y-62917543D01*
X119299789Y-62909357D01*
X119299792Y-62909355D01*
X119304300Y-62906198D01*
X119466198Y-62744300D01*
X119597523Y-62556749D01*
X119599846Y-62551767D01*
X119599849Y-62551762D01*
X119615805Y-62517543D01*
X119662722Y-62464258D01*
X119730999Y-62444797D01*
X119798959Y-62465339D01*
X119844195Y-62517543D01*
X119860151Y-62551762D01*
X119860154Y-62551767D01*
X119862477Y-62556749D01*
X119993802Y-62744300D01*
X120155700Y-62906198D01*
X120160208Y-62909355D01*
X120160211Y-62909357D01*
X120171902Y-62917543D01*
X120343251Y-63037523D01*
X120348233Y-63039846D01*
X120348238Y-63039849D01*
X120511439Y-63115950D01*
X120550757Y-63134284D01*
X120556065Y-63135706D01*
X120556067Y-63135707D01*
X120766598Y-63192119D01*
X120766600Y-63192119D01*
X120771913Y-63193543D01*
X121000000Y-63213498D01*
X121228087Y-63193543D01*
X121233398Y-63192120D01*
X121233409Y-63192118D01*
X121291541Y-63176541D01*
X121362517Y-63178230D01*
X121413248Y-63209152D01*
X122508490Y-64304395D01*
X123571148Y-65367053D01*
X123578688Y-65375339D01*
X123582800Y-65381818D01*
X123588577Y-65387243D01*
X123632451Y-65428443D01*
X123635293Y-65431198D01*
X123655030Y-65450935D01*
X123658227Y-65453415D01*
X123667247Y-65461118D01*
X123699479Y-65491386D01*
X123706425Y-65495205D01*
X123706428Y-65495207D01*
X123717234Y-65501148D01*
X123733753Y-65511999D01*
X123749759Y-65524414D01*
X123757028Y-65527559D01*
X123757032Y-65527562D01*
X123790337Y-65541974D01*
X123800987Y-65547191D01*
X123839740Y-65568495D01*
X123847415Y-65570466D01*
X123847416Y-65570466D01*
X123859362Y-65573533D01*
X123878067Y-65579937D01*
X123896655Y-65587981D01*
X123904478Y-65589220D01*
X123904488Y-65589223D01*
X123940324Y-65594899D01*
X123951944Y-65597305D01*
X123987089Y-65606328D01*
X123994770Y-65608300D01*
X124015024Y-65608300D01*
X124034734Y-65609851D01*
X124054743Y-65613020D01*
X124062635Y-65612274D01*
X124098761Y-65608859D01*
X124110619Y-65608300D01*
X125817906Y-65608300D01*
X125886027Y-65628302D01*
X125907001Y-65645205D01*
X126443768Y-66181972D01*
X126477794Y-66244284D01*
X126472729Y-66315099D01*
X126430182Y-66371935D01*
X126384087Y-66393586D01*
X126290936Y-66415950D01*
X126243510Y-66427336D01*
X126238939Y-66429229D01*
X126238937Y-66429230D01*
X126008357Y-66524739D01*
X126008353Y-66524741D01*
X126003783Y-66526634D01*
X125782540Y-66662212D01*
X125585230Y-66830730D01*
X125416712Y-67028040D01*
X125281134Y-67249283D01*
X125279241Y-67253853D01*
X125279239Y-67253857D01*
X125221181Y-67394022D01*
X125181836Y-67489010D01*
X125121262Y-67741320D01*
X125100903Y-68000000D01*
X125121262Y-68258680D01*
X125122416Y-68263487D01*
X125122417Y-68263493D01*
X125171441Y-68467691D01*
X125181836Y-68510990D01*
X125183725Y-68515549D01*
X125183729Y-68515563D01*
X125198170Y-68550427D01*
X125205759Y-68621017D01*
X125170856Y-68687739D01*
X123232747Y-70625848D01*
X123224461Y-70633388D01*
X123217982Y-70637500D01*
X123212557Y-70643277D01*
X123171357Y-70687151D01*
X123168602Y-70689993D01*
X123148865Y-70709730D01*
X123146385Y-70712927D01*
X123138682Y-70721947D01*
X123108414Y-70754179D01*
X123104595Y-70761125D01*
X123104593Y-70761128D01*
X123098652Y-70771934D01*
X123087801Y-70788453D01*
X123075386Y-70804459D01*
X123072241Y-70811728D01*
X123072238Y-70811732D01*
X123057826Y-70845037D01*
X123052609Y-70855687D01*
X123031305Y-70894440D01*
X123029334Y-70902115D01*
X123029334Y-70902116D01*
X123026267Y-70914062D01*
X123019863Y-70932766D01*
X123011819Y-70951355D01*
X123010580Y-70959178D01*
X123010577Y-70959188D01*
X123004901Y-70995024D01*
X123002495Y-71006644D01*
X122991500Y-71049470D01*
X122991500Y-71069724D01*
X122989949Y-71089434D01*
X122986780Y-71109443D01*
X122987526Y-71117335D01*
X122990941Y-71153461D01*
X122991500Y-71165319D01*
X122991500Y-76740901D01*
X122971498Y-76809022D01*
X122917842Y-76855515D01*
X122847568Y-76865619D01*
X122812251Y-76855096D01*
X122754230Y-76828041D01*
X122754225Y-76828039D01*
X122749243Y-76825716D01*
X122743935Y-76824294D01*
X122743933Y-76824293D01*
X122533402Y-76767881D01*
X122533400Y-76767881D01*
X122528087Y-76766457D01*
X122300000Y-76746502D01*
X122071913Y-76766457D01*
X122066600Y-76767881D01*
X122066598Y-76767881D01*
X121856067Y-76824293D01*
X121856065Y-76824294D01*
X121850757Y-76825716D01*
X121845776Y-76828039D01*
X121845775Y-76828039D01*
X121648238Y-76920151D01*
X121648233Y-76920154D01*
X121643251Y-76922477D01*
X121543792Y-76992119D01*
X121460211Y-77050643D01*
X121460208Y-77050645D01*
X121455700Y-77053802D01*
X121293802Y-77215700D01*
X121162477Y-77403251D01*
X121160154Y-77408233D01*
X121160151Y-77408238D01*
X121072616Y-77595959D01*
X121065716Y-77610757D01*
X121064294Y-77616065D01*
X121064293Y-77616067D01*
X121048185Y-77676182D01*
X121006457Y-77831913D01*
X120986502Y-78060000D01*
X121006457Y-78288087D01*
X121065716Y-78509243D01*
X121068039Y-78514224D01*
X121068039Y-78514225D01*
X121160151Y-78711762D01*
X121160154Y-78711767D01*
X121162477Y-78716749D01*
X121293802Y-78904300D01*
X121455700Y-79066198D01*
X121460208Y-79069355D01*
X121460211Y-79069357D01*
X121538389Y-79124098D01*
X121643251Y-79197523D01*
X121648233Y-79199846D01*
X121648238Y-79199849D01*
X121682457Y-79215805D01*
X121735742Y-79262722D01*
X121755203Y-79330999D01*
X121734661Y-79398959D01*
X121682457Y-79444195D01*
X121648238Y-79460151D01*
X121648233Y-79460154D01*
X121643251Y-79462477D01*
X121608500Y-79486810D01*
X121460211Y-79590643D01*
X121460208Y-79590645D01*
X121455700Y-79593802D01*
X121293802Y-79755700D01*
X121162477Y-79943251D01*
X121160154Y-79948233D01*
X121160151Y-79948238D01*
X121068039Y-80145775D01*
X121065716Y-80150757D01*
X121064294Y-80156065D01*
X121064293Y-80156067D01*
X121007881Y-80366598D01*
X121006457Y-80371913D01*
X120986502Y-80600000D01*
X121006457Y-80828087D01*
X121007881Y-80833400D01*
X121007881Y-80833402D01*
X121052038Y-80998195D01*
X121065716Y-81049243D01*
X121068039Y-81054224D01*
X121068039Y-81054225D01*
X121160151Y-81251762D01*
X121160154Y-81251767D01*
X121162477Y-81256749D01*
X121188138Y-81293396D01*
X121289057Y-81437523D01*
X121293802Y-81444300D01*
X121455700Y-81606198D01*
X121460208Y-81609355D01*
X121460211Y-81609357D01*
X121508210Y-81642966D01*
X121643251Y-81737523D01*
X121648233Y-81739846D01*
X121648238Y-81739849D01*
X121845771Y-81831959D01*
X121850757Y-81834284D01*
X121856065Y-81835706D01*
X121856067Y-81835707D01*
X122066598Y-81892119D01*
X122066600Y-81892119D01*
X122071913Y-81893543D01*
X122300000Y-81913498D01*
X122528087Y-81893543D01*
X122533400Y-81892119D01*
X122533402Y-81892119D01*
X122743933Y-81835707D01*
X122743935Y-81835706D01*
X122749243Y-81834284D01*
X122754225Y-81831961D01*
X122754230Y-81831959D01*
X122812251Y-81804904D01*
X122882443Y-81794243D01*
X122947255Y-81823224D01*
X122986111Y-81882644D01*
X122991500Y-81919099D01*
X122991500Y-87805439D01*
X122971498Y-87873560D01*
X122917842Y-87920053D01*
X122847568Y-87930157D01*
X122793229Y-87908652D01*
X122661007Y-87816069D01*
X122651511Y-87810586D01*
X122454053Y-87718510D01*
X122443761Y-87714764D01*
X122233312Y-87658375D01*
X122222519Y-87656472D01*
X122005475Y-87637483D01*
X121994525Y-87637483D01*
X121777481Y-87656472D01*
X121766688Y-87658375D01*
X121556239Y-87714764D01*
X121545947Y-87718510D01*
X121348489Y-87810586D01*
X121338994Y-87816069D01*
X121286952Y-87852509D01*
X121278576Y-87862988D01*
X121285644Y-87876434D01*
X122270115Y-88860905D01*
X122304141Y-88923217D01*
X122299076Y-88994032D01*
X122270115Y-89039095D01*
X121284923Y-90024287D01*
X121278493Y-90036062D01*
X121287789Y-90048077D01*
X121338998Y-90083934D01*
X121350528Y-90090591D01*
X121399521Y-90141973D01*
X121412958Y-90211687D01*
X121386571Y-90277598D01*
X121350528Y-90308829D01*
X121348235Y-90310153D01*
X121343251Y-90312477D01*
X121338747Y-90315631D01*
X121160211Y-90440643D01*
X121160208Y-90440645D01*
X121155700Y-90443802D01*
X120993802Y-90605700D01*
X120862477Y-90793251D01*
X120860154Y-90798233D01*
X120860151Y-90798238D01*
X120789595Y-90949548D01*
X120742678Y-91002833D01*
X120674401Y-91022294D01*
X120606441Y-91001752D01*
X120560375Y-90947730D01*
X120549400Y-90896298D01*
X120549400Y-89502520D01*
X120569402Y-89434399D01*
X120623058Y-89387906D01*
X120693332Y-89377802D01*
X120757912Y-89407296D01*
X120789595Y-89449270D01*
X120860586Y-89601511D01*
X120866069Y-89611006D01*
X120902509Y-89663048D01*
X120912988Y-89671424D01*
X120926434Y-89664356D01*
X121627978Y-88962812D01*
X121635592Y-88948868D01*
X121635461Y-88947035D01*
X121631210Y-88940420D01*
X120925713Y-88234923D01*
X120913938Y-88228493D01*
X120901923Y-88237789D01*
X120866069Y-88288994D01*
X120860586Y-88298489D01*
X120789595Y-88450730D01*
X120742677Y-88504015D01*
X120674400Y-88523476D01*
X120606440Y-88502934D01*
X120560375Y-88448911D01*
X120549400Y-88397480D01*
X120549400Y-80395267D01*
X120549927Y-80384084D01*
X120551602Y-80376591D01*
X120550858Y-80352905D01*
X120549462Y-80308514D01*
X120549400Y-80304555D01*
X120549400Y-80276644D01*
X120548895Y-80272644D01*
X120547962Y-80260801D01*
X120546822Y-80224529D01*
X120546573Y-80216610D01*
X120540922Y-80197158D01*
X120536914Y-80177806D01*
X120535367Y-80165563D01*
X120534374Y-80157703D01*
X120531456Y-80150332D01*
X120518100Y-80116597D01*
X120514255Y-80105370D01*
X120513621Y-80103187D01*
X120501918Y-80062907D01*
X120497884Y-80056085D01*
X120497881Y-80056079D01*
X120491606Y-80045468D01*
X120482910Y-80027718D01*
X120478372Y-80016256D01*
X120478369Y-80016251D01*
X120475452Y-80008883D01*
X120449473Y-79973125D01*
X120442957Y-79963207D01*
X120431155Y-79943251D01*
X120420442Y-79925137D01*
X120406118Y-79910813D01*
X120393276Y-79895778D01*
X120381372Y-79879393D01*
X120347306Y-79851211D01*
X120338527Y-79843222D01*
X115088152Y-74592847D01*
X115080612Y-74584561D01*
X115076500Y-74578082D01*
X115055998Y-74558829D01*
X115026849Y-74531457D01*
X115024007Y-74528702D01*
X115004270Y-74508965D01*
X115001073Y-74506485D01*
X114992051Y-74498780D01*
X114965600Y-74473941D01*
X114959821Y-74468514D01*
X114952875Y-74464695D01*
X114952872Y-74464693D01*
X114942066Y-74458752D01*
X114925547Y-74447901D01*
X114915807Y-74440346D01*
X114915806Y-74440345D01*
X114909541Y-74435486D01*
X114902264Y-74432337D01*
X114897433Y-74429480D01*
X114848980Y-74377587D01*
X114836275Y-74307736D01*
X114839865Y-74288415D01*
X114892119Y-74093402D01*
X114892119Y-74093400D01*
X114893543Y-74088087D01*
X114913498Y-73860000D01*
X114893543Y-73631913D01*
X114834284Y-73410757D01*
X114779917Y-73294165D01*
X114739849Y-73208238D01*
X114739846Y-73208233D01*
X114737523Y-73203251D01*
X114621388Y-73037393D01*
X114609357Y-73020211D01*
X114609355Y-73020208D01*
X114606198Y-73015700D01*
X114444300Y-72853802D01*
X114439792Y-72850645D01*
X114439789Y-72850643D01*
X114304966Y-72756239D01*
X114256749Y-72722477D01*
X114251767Y-72720154D01*
X114251762Y-72720151D01*
X114054225Y-72628039D01*
X114054224Y-72628039D01*
X114049243Y-72625716D01*
X114043935Y-72624294D01*
X114043933Y-72624293D01*
X113833402Y-72567881D01*
X113833400Y-72567881D01*
X113828087Y-72566457D01*
X113600000Y-72546502D01*
X113371913Y-72566457D01*
X113366600Y-72567881D01*
X113366598Y-72567881D01*
X113156067Y-72624293D01*
X113156065Y-72624294D01*
X113150757Y-72625716D01*
X113145776Y-72628039D01*
X113145775Y-72628039D01*
X112948238Y-72720151D01*
X112948233Y-72720154D01*
X112943251Y-72722477D01*
X112895034Y-72756239D01*
X112760211Y-72850643D01*
X112760208Y-72850645D01*
X112755700Y-72853802D01*
X112593802Y-73015700D01*
X112590645Y-73020208D01*
X112590643Y-73020211D01*
X112578612Y-73037393D01*
X112462477Y-73203251D01*
X112460154Y-73208233D01*
X112460151Y-73208238D01*
X112420083Y-73294165D01*
X112365716Y-73410757D01*
X112364294Y-73416065D01*
X112364293Y-73416067D01*
X112310607Y-73616425D01*
X112273655Y-73677048D01*
X112209794Y-73708069D01*
X112139300Y-73699641D01*
X112084553Y-73654438D01*
X112062900Y-73583814D01*
X112062900Y-71332703D01*
X116790743Y-71332703D01*
X116791302Y-71336947D01*
X116791302Y-71336951D01*
X116798537Y-71391904D01*
X116828268Y-71617734D01*
X116904129Y-71895036D01*
X116905813Y-71898984D01*
X117005931Y-72133705D01*
X117016923Y-72159476D01*
X117071485Y-72250643D01*
X117158143Y-72395437D01*
X117164561Y-72406161D01*
X117344313Y-72630528D01*
X117552851Y-72828423D01*
X117786317Y-72996186D01*
X117790112Y-72998195D01*
X117790113Y-72998196D01*
X117811869Y-73009715D01*
X118040392Y-73130712D01*
X118064699Y-73139607D01*
X118244692Y-73205475D01*
X118310373Y-73229511D01*
X118591264Y-73290755D01*
X118619841Y-73293004D01*
X118814282Y-73308307D01*
X118814291Y-73308307D01*
X118816739Y-73308500D01*
X118972271Y-73308500D01*
X118974407Y-73308354D01*
X118974418Y-73308354D01*
X119182548Y-73294165D01*
X119182554Y-73294164D01*
X119186825Y-73293873D01*
X119191020Y-73293004D01*
X119191022Y-73293004D01*
X119327583Y-73264724D01*
X119468342Y-73235574D01*
X119739343Y-73139607D01*
X119979409Y-73015700D01*
X119991005Y-73009715D01*
X119991006Y-73009715D01*
X119994812Y-73007750D01*
X119998313Y-73005289D01*
X119998317Y-73005287D01*
X120208313Y-72857699D01*
X120230023Y-72842441D01*
X120355722Y-72725634D01*
X120437479Y-72649661D01*
X120437481Y-72649658D01*
X120440622Y-72646740D01*
X120622713Y-72424268D01*
X120772927Y-72179142D01*
X120792873Y-72133705D01*
X120886757Y-71919830D01*
X120888483Y-71915898D01*
X120967244Y-71639406D01*
X121002468Y-71391904D01*
X121007146Y-71359036D01*
X121007146Y-71359034D01*
X121007751Y-71354784D01*
X121007845Y-71336951D01*
X121009235Y-71071583D01*
X121009235Y-71071576D01*
X121009257Y-71067297D01*
X120971732Y-70782266D01*
X120968906Y-70771934D01*
X120932129Y-70637500D01*
X120895871Y-70504964D01*
X120783077Y-70240524D01*
X120635439Y-69993839D01*
X120455687Y-69769472D01*
X120247149Y-69571577D01*
X120013683Y-69403814D01*
X119991843Y-69392250D01*
X119893862Y-69340372D01*
X119759608Y-69269288D01*
X119624617Y-69219888D01*
X119493658Y-69171964D01*
X119493656Y-69171963D01*
X119489627Y-69170489D01*
X119208736Y-69109245D01*
X119177685Y-69106801D01*
X118985718Y-69091693D01*
X118985709Y-69091693D01*
X118983261Y-69091500D01*
X118827729Y-69091500D01*
X118825593Y-69091646D01*
X118825582Y-69091646D01*
X118617452Y-69105835D01*
X118617446Y-69105836D01*
X118613175Y-69106127D01*
X118608980Y-69106996D01*
X118608978Y-69106996D01*
X118472417Y-69135276D01*
X118331658Y-69164426D01*
X118060657Y-69260393D01*
X117805188Y-69392250D01*
X117801687Y-69394711D01*
X117801683Y-69394713D01*
X117791594Y-69401804D01*
X117569977Y-69557559D01*
X117555760Y-69570770D01*
X117389145Y-69725599D01*
X117359378Y-69753260D01*
X117177287Y-69975732D01*
X117027073Y-70220858D01*
X116911517Y-70484102D01*
X116832756Y-70760594D01*
X116819221Y-70855698D01*
X116797739Y-71006644D01*
X116792249Y-71045216D01*
X116792227Y-71049505D01*
X116792226Y-71049512D01*
X116790765Y-71328417D01*
X116790743Y-71332703D01*
X112062900Y-71332703D01*
X112062900Y-69814694D01*
X112082902Y-69746573D01*
X112099805Y-69725599D01*
X112253241Y-69572163D01*
X112315553Y-69538137D01*
X112390553Y-69544849D01*
X112423160Y-69558355D01*
X112510002Y-69579204D01*
X112668361Y-69617223D01*
X112668367Y-69617224D01*
X112673174Y-69618378D01*
X112929500Y-69638551D01*
X113185826Y-69618378D01*
X113190633Y-69617224D01*
X113190639Y-69617223D01*
X113348998Y-69579204D01*
X113435840Y-69558355D01*
X113440413Y-69556461D01*
X113668813Y-69461855D01*
X113668817Y-69461853D01*
X113673387Y-69459960D01*
X113892616Y-69325616D01*
X114088131Y-69158631D01*
X114255116Y-68963116D01*
X114389460Y-68743887D01*
X114412718Y-68687739D01*
X114485961Y-68510913D01*
X114485962Y-68510911D01*
X114487855Y-68506340D01*
X114520488Y-68370413D01*
X114546723Y-68261139D01*
X114546724Y-68261133D01*
X114547878Y-68256326D01*
X114568051Y-68000000D01*
X114547878Y-67743674D01*
X114546158Y-67736507D01*
X114489010Y-67498472D01*
X114487855Y-67493660D01*
X114454651Y-67413498D01*
X114391355Y-67260687D01*
X114391353Y-67260683D01*
X114389460Y-67256113D01*
X114255116Y-67036884D01*
X114088131Y-66841369D01*
X113892616Y-66674384D01*
X113673387Y-66540040D01*
X113668817Y-66538147D01*
X113668813Y-66538145D01*
X113440413Y-66443539D01*
X113440411Y-66443538D01*
X113435840Y-66441645D01*
X113328813Y-66415950D01*
X113190639Y-66382777D01*
X113190633Y-66382776D01*
X113185826Y-66381622D01*
X112929500Y-66361449D01*
X112673174Y-66381622D01*
X112668367Y-66382776D01*
X112668361Y-66382777D01*
X112530187Y-66415950D01*
X112423160Y-66441645D01*
X112418589Y-66443538D01*
X112418587Y-66443539D01*
X112190187Y-66538145D01*
X112190183Y-66538147D01*
X112185613Y-66540040D01*
X111966384Y-66674384D01*
X111770869Y-66841369D01*
X111603884Y-67036884D01*
X111469540Y-67256113D01*
X111467647Y-67260683D01*
X111467645Y-67260687D01*
X111404349Y-67413498D01*
X111371145Y-67493660D01*
X111369990Y-67498472D01*
X111312843Y-67736507D01*
X111311122Y-67743674D01*
X111290949Y-68000000D01*
X111311122Y-68256326D01*
X111312276Y-68261133D01*
X111312277Y-68261139D01*
X111338512Y-68370413D01*
X111371145Y-68506340D01*
X111384650Y-68538943D01*
X111392240Y-68609533D01*
X111357337Y-68676259D01*
X111064595Y-68969000D01*
X111002283Y-69003025D01*
X110931467Y-68997960D01*
X110874632Y-68955413D01*
X110849821Y-68888893D01*
X110849500Y-68879904D01*
X110849500Y-66100000D01*
X117591502Y-66100000D01*
X117611457Y-66328087D01*
X117612881Y-66333400D01*
X117612881Y-66333402D01*
X117641576Y-66440490D01*
X117670716Y-66549243D01*
X117673039Y-66554224D01*
X117673039Y-66554225D01*
X117765151Y-66751762D01*
X117765154Y-66751767D01*
X117767477Y-66756749D01*
X117898802Y-66944300D01*
X118060700Y-67106198D01*
X118065208Y-67109355D01*
X118065211Y-67109357D01*
X118143389Y-67164098D01*
X118248251Y-67237523D01*
X118253233Y-67239846D01*
X118253238Y-67239849D01*
X118450775Y-67331961D01*
X118455757Y-67334284D01*
X118461065Y-67335706D01*
X118461067Y-67335707D01*
X118671598Y-67392119D01*
X118671600Y-67392119D01*
X118676913Y-67393543D01*
X118905000Y-67413498D01*
X119133087Y-67393543D01*
X119138400Y-67392119D01*
X119138402Y-67392119D01*
X119348933Y-67335707D01*
X119348935Y-67335706D01*
X119354243Y-67334284D01*
X119359225Y-67331961D01*
X119556762Y-67239849D01*
X119556767Y-67239846D01*
X119561749Y-67237523D01*
X119666611Y-67164098D01*
X119744789Y-67109357D01*
X119744792Y-67109355D01*
X119749300Y-67106198D01*
X119911198Y-66944300D01*
X120042523Y-66756749D01*
X120044846Y-66751767D01*
X120044849Y-66751762D01*
X120060805Y-66717543D01*
X120107722Y-66664258D01*
X120175999Y-66644797D01*
X120243959Y-66665339D01*
X120289195Y-66717543D01*
X120305151Y-66751762D01*
X120305154Y-66751767D01*
X120307477Y-66756749D01*
X120438802Y-66944300D01*
X120600700Y-67106198D01*
X120605208Y-67109355D01*
X120605211Y-67109357D01*
X120683389Y-67164098D01*
X120788251Y-67237523D01*
X120793233Y-67239846D01*
X120793238Y-67239849D01*
X120990775Y-67331961D01*
X120995757Y-67334284D01*
X121001065Y-67335706D01*
X121001067Y-67335707D01*
X121211598Y-67392119D01*
X121211600Y-67392119D01*
X121216913Y-67393543D01*
X121445000Y-67413498D01*
X121673087Y-67393543D01*
X121678400Y-67392119D01*
X121678402Y-67392119D01*
X121888933Y-67335707D01*
X121888935Y-67335706D01*
X121894243Y-67334284D01*
X121899225Y-67331961D01*
X122096762Y-67239849D01*
X122096767Y-67239846D01*
X122101749Y-67237523D01*
X122206611Y-67164098D01*
X122284789Y-67109357D01*
X122284792Y-67109355D01*
X122289300Y-67106198D01*
X122451198Y-66944300D01*
X122582523Y-66756749D01*
X122584846Y-66751767D01*
X122584849Y-66751762D01*
X122676961Y-66554225D01*
X122676961Y-66554224D01*
X122679284Y-66549243D01*
X122708425Y-66440490D01*
X122737119Y-66333402D01*
X122737119Y-66333400D01*
X122738543Y-66328087D01*
X122758498Y-66100000D01*
X122738543Y-65871913D01*
X122679284Y-65650757D01*
X122661109Y-65611780D01*
X122584849Y-65448238D01*
X122584846Y-65448233D01*
X122582523Y-65443251D01*
X122451198Y-65255700D01*
X122289300Y-65093802D01*
X122284792Y-65090645D01*
X122284789Y-65090643D01*
X122206611Y-65035902D01*
X122101749Y-64962477D01*
X122096767Y-64960154D01*
X122096762Y-64960151D01*
X121899225Y-64868039D01*
X121899224Y-64868039D01*
X121894243Y-64865716D01*
X121888935Y-64864294D01*
X121888933Y-64864293D01*
X121678402Y-64807881D01*
X121678400Y-64807881D01*
X121673087Y-64806457D01*
X121445000Y-64786502D01*
X121216913Y-64806457D01*
X121211600Y-64807881D01*
X121211598Y-64807881D01*
X121001067Y-64864293D01*
X121001065Y-64864294D01*
X120995757Y-64865716D01*
X120990776Y-64868039D01*
X120990775Y-64868039D01*
X120793238Y-64960151D01*
X120793233Y-64960154D01*
X120788251Y-64962477D01*
X120683389Y-65035902D01*
X120605211Y-65090643D01*
X120605208Y-65090645D01*
X120600700Y-65093802D01*
X120438802Y-65255700D01*
X120307477Y-65443251D01*
X120305154Y-65448233D01*
X120305151Y-65448238D01*
X120289195Y-65482457D01*
X120242278Y-65535742D01*
X120174001Y-65555203D01*
X120106041Y-65534661D01*
X120060805Y-65482457D01*
X120044849Y-65448238D01*
X120044846Y-65448233D01*
X120042523Y-65443251D01*
X119911198Y-65255700D01*
X119749300Y-65093802D01*
X119744792Y-65090645D01*
X119744789Y-65090643D01*
X119666611Y-65035902D01*
X119561749Y-64962477D01*
X119556767Y-64960154D01*
X119556762Y-64960151D01*
X119359225Y-64868039D01*
X119359224Y-64868039D01*
X119354243Y-64865716D01*
X119348935Y-64864294D01*
X119348933Y-64864293D01*
X119138402Y-64807881D01*
X119138400Y-64807881D01*
X119133087Y-64806457D01*
X118905000Y-64786502D01*
X118676913Y-64806457D01*
X118671600Y-64807881D01*
X118671598Y-64807881D01*
X118461067Y-64864293D01*
X118461065Y-64864294D01*
X118455757Y-64865716D01*
X118450776Y-64868039D01*
X118450775Y-64868039D01*
X118253238Y-64960151D01*
X118253233Y-64960154D01*
X118248251Y-64962477D01*
X118143389Y-65035902D01*
X118065211Y-65090643D01*
X118065208Y-65090645D01*
X118060700Y-65093802D01*
X117898802Y-65255700D01*
X117767477Y-65443251D01*
X117765154Y-65448233D01*
X117765151Y-65448238D01*
X117688891Y-65611780D01*
X117670716Y-65650757D01*
X117611457Y-65871913D01*
X117591502Y-66100000D01*
X110849500Y-66100000D01*
X110849500Y-64559868D01*
X110850027Y-64548685D01*
X110851702Y-64541192D01*
X110849562Y-64473101D01*
X110849500Y-64469144D01*
X110849500Y-64441244D01*
X110848996Y-64437253D01*
X110848063Y-64425411D01*
X110846923Y-64389136D01*
X110846674Y-64381211D01*
X110841021Y-64361752D01*
X110837012Y-64342393D01*
X110836372Y-64337326D01*
X110834474Y-64322303D01*
X110831558Y-64314937D01*
X110831556Y-64314931D01*
X110818200Y-64281198D01*
X110814355Y-64269968D01*
X110804230Y-64235117D01*
X110804230Y-64235116D01*
X110802019Y-64227507D01*
X110791705Y-64210066D01*
X110783008Y-64192313D01*
X110778472Y-64180858D01*
X110775552Y-64173483D01*
X110749563Y-64137712D01*
X110743047Y-64127792D01*
X110740047Y-64122719D01*
X110720542Y-64089738D01*
X110706221Y-64075417D01*
X110693380Y-64060383D01*
X110686131Y-64050406D01*
X110681472Y-64043993D01*
X110647395Y-64015802D01*
X110638616Y-64007812D01*
X110059746Y-63428942D01*
X110025720Y-63366630D01*
X110030785Y-63295815D01*
X110059746Y-63250752D01*
X110166198Y-63144300D01*
X110173212Y-63134284D01*
X110224098Y-63061611D01*
X110297523Y-62956749D01*
X110299846Y-62951767D01*
X110299849Y-62951762D01*
X110315805Y-62917543D01*
X110362722Y-62864258D01*
X110430999Y-62844797D01*
X110498959Y-62865339D01*
X110544195Y-62917543D01*
X110560151Y-62951762D01*
X110560154Y-62951767D01*
X110562477Y-62956749D01*
X110635902Y-63061611D01*
X110686789Y-63134284D01*
X110693802Y-63144300D01*
X110855700Y-63306198D01*
X110860208Y-63309355D01*
X110860211Y-63309357D01*
X110895282Y-63333914D01*
X111043251Y-63437523D01*
X111048233Y-63439846D01*
X111048238Y-63439849D01*
X111245775Y-63531961D01*
X111250757Y-63534284D01*
X111256065Y-63535706D01*
X111256067Y-63535707D01*
X111466598Y-63592119D01*
X111466600Y-63592119D01*
X111471913Y-63593543D01*
X111700000Y-63613498D01*
X111928087Y-63593543D01*
X111933400Y-63592119D01*
X111933402Y-63592119D01*
X112143933Y-63535707D01*
X112143935Y-63535706D01*
X112149243Y-63534284D01*
X112154225Y-63531961D01*
X112351762Y-63439849D01*
X112351767Y-63439846D01*
X112356749Y-63437523D01*
X112504718Y-63333914D01*
X112539789Y-63309357D01*
X112539792Y-63309355D01*
X112544300Y-63306198D01*
X112706198Y-63144300D01*
X112713212Y-63134284D01*
X112764098Y-63061611D01*
X112837523Y-62956749D01*
X112839846Y-62951767D01*
X112839849Y-62951762D01*
X112931961Y-62754225D01*
X112931961Y-62754224D01*
X112934284Y-62749243D01*
X112980332Y-62577393D01*
X112992119Y-62533402D01*
X112992119Y-62533400D01*
X112993543Y-62528087D01*
X113013498Y-62300000D01*
X112993543Y-62071913D01*
X112962404Y-61955700D01*
X112935707Y-61856067D01*
X112935706Y-61856065D01*
X112934284Y-61850757D01*
X112853444Y-61677393D01*
X112839849Y-61648238D01*
X112839846Y-61648233D01*
X112837523Y-61643251D01*
X112706198Y-61455700D01*
X112544300Y-61293802D01*
X112539792Y-61290645D01*
X112539789Y-61290643D01*
X112461611Y-61235902D01*
X112356749Y-61162477D01*
X112351767Y-61160154D01*
X112351762Y-61160151D01*
X112154225Y-61068039D01*
X112154224Y-61068039D01*
X112149243Y-61065716D01*
X112143935Y-61064294D01*
X112143933Y-61064293D01*
X111928087Y-61006457D01*
X111928675Y-61004261D01*
X111873790Y-60977060D01*
X111837319Y-60916147D01*
X111839570Y-60845186D01*
X111879828Y-60786707D01*
X111945312Y-60759277D01*
X111959280Y-60758500D01*
X117446812Y-60758500D01*
X117514933Y-60778502D01*
G37*
%TD.AperFunction*%
%TD*%
M02*
